<svg width="347" height="79" viewBox="0 0 347 79" fill="none" xmlns="http://www.w3.org/2000/svg">
<path d="M296.264 17.0218C298.288 16.2212 300.296 16.2525 302.289 17.1156C304.283 17.9787 305.68 19.4219 306.48 21.4452C307.375 23.7066 307.593 25.9952 307.132 28.311C306.708 30.5437 305.826 32.751 304.487 34.9328C303.184 37.0315 301.632 39.0223 299.83 40.9053C298.088 42.7647 296.287 44.4753 294.427 46.0372C292.567 47.599 290.905 48.8764 289.439 49.8692C292.103 55.9046 295.463 59.8747 299.521 61.7794C303.578 63.6842 308.106 63.6475 313.105 61.6695C315.783 60.6098 318.125 58.9606 320.129 56.7219C322.111 54.4237 323.469 51.8557 324.205 49.018C324.94 46.1803 324.778 43.4225 323.719 40.7445C323.412 39.9709 322.958 39.2561 322.354 38.6002C321.727 37.8848 321.217 37.467 320.825 37.3467C319.586 38.3879 318.345 39.6015 317.104 40.9873C315.863 42.3732 314.907 43.7839 314.236 45.2195C313.625 46.6315 313.578 47.9921 314.096 49.3013C314.449 50.194 314.827 50.8015 315.23 51.1239C315.075 51.254 314.778 51.3718 314.337 51.4771C313.957 51.5589 313.6 51.5278 313.268 51.384C312.627 51.1558 311.952 50.666 311.241 49.9146C310.507 49.1038 309.929 48.1627 309.505 47.0915C308.728 45.1277 308.92 43.0902 310.08 40.9791C311.217 38.8084 313.122 36.4029 315.794 33.7626C317.428 32.1524 319.021 30.3518 320.574 28.361C322.162 26.2871 323.448 24.0576 324.431 21.6724C325.474 19.2637 325.983 16.7223 325.957 14.0482C325.967 11.291 325.283 8.43023 323.903 5.46584C324.296 5.24149 324.689 5.18947 325.08 5.30977C325.449 5.37057 325.716 5.43693 325.882 5.50885C326.818 6.3086 327.723 7.29244 328.598 8.46038C329.509 9.54527 330.33 11.0101 331.06 12.855C332.426 16.3066 332.567 19.7952 331.485 23.3209C330.438 26.7635 328.691 29.8292 326.245 32.5179C326.885 33.0908 327.475 34.0615 328.017 35.4303C329.053 38.0487 329.369 40.8487 328.966 43.8303C328.622 46.7883 327.667 49.6786 326.099 52.5013C324.532 55.324 322.484 57.8894 319.956 60.1975C317.487 62.482 314.646 64.2601 311.433 65.5317C307.684 67.0152 303.985 67.7561 300.336 67.7544C296.747 67.7292 293.447 66.6949 290.436 64.6514C287.461 62.5249 284.972 59.1048 282.969 54.391C280.943 55.8809 279.262 57.3721 277.925 58.8646C276.589 60.3571 276.203 61.8175 276.768 63.2457C277.074 64.0194 277.506 64.5023 278.064 64.6945C278.622 64.8868 279.138 65.061 279.613 65.2173C280.171 65.4095 280.681 65.655 281.143 65.9539C281.665 66.2292 282.068 66.7239 282.35 67.438C282.845 68.6877 282.835 69.7929 282.32 70.7537C281.782 71.6549 281.007 72.3057 279.995 72.706C279.103 73.0592 278.33 73.193 277.676 73.1074C276.893 72.8668 276.164 72.3293 275.49 71.4948C274.792 70.6009 274.301 69.7969 274.019 69.0827C272.936 66.3453 272.809 63.6767 273.639 61.0771C274.504 58.3944 276.308 55.9944 279.049 53.8773C279.478 53.5699 279.937 53.2507 280.425 52.9198C280.89 52.5293 281.415 52.1153 281.999 51.6777C281.036 48.5485 280.591 45.2489 280.663 41.7788C280.795 38.2853 281.461 34.9244 282.661 31.6963C283.838 28.4086 285.572 25.4855 287.864 22.927C290.131 20.3089 292.932 18.3405 296.264 17.0218ZM288.168 46.6557C290.433 44.7269 292.556 42.6134 294.538 40.3151C296.519 38.0169 297.96 35.6572 298.86 33.2361C299.82 30.7915 299.841 28.4087 298.922 26.0878C298.31 24.5405 297.5 23.4501 296.492 22.8164C295.52 22.0997 294.201 22.0711 292.535 22.7304C290.631 23.4839 289.116 25.0471 287.99 27.4198C286.9 29.7095 286.336 32.5478 286.3 35.9348C286.24 39.2622 286.863 42.8359 288.168 46.6557Z" fill="black"/>
<path d="M264.315 55.6882L267.579 40.2322C267.707 39.7842 267.835 38.9522 267.963 37.7362C268.155 36.5202 268.251 35.6562 268.251 35.1442C268.251 33.9282 268.155 32.9682 267.963 32.2642C267.835 31.4962 267.323 31.1122 266.427 31.1122C265.467 31.1122 264.187 31.7842 262.587 33.1282C260.987 34.4082 259.291 36.1362 257.499 38.3122C255.771 40.4242 254.203 42.7602 252.795 45.3202C251.451 47.8162 250.555 50.2482 250.107 52.6162L247.803 65.0002C247.163 65.0642 246.587 65.1282 246.075 65.1922C245.627 65.2562 245.051 65.2882 244.347 65.2882C243.707 65.2882 243.163 65.2562 242.715 65.1922C242.267 65.1282 241.723 65.0642 241.083 65.0002L246.267 38.4082C246.395 37.6402 246.491 36.9682 246.555 36.3922C246.619 35.8162 246.651 35.3042 246.651 34.8562C246.651 32.3602 246.043 31.1122 244.827 31.1122C243.803 31.1122 242.491 31.8482 240.891 33.3202C239.291 34.7922 237.627 36.6802 235.899 38.9842C234.235 41.2882 232.763 43.7522 231.483 46.3762C230.203 48.9362 229.307 51.3362 228.795 53.5762L226.395 65.0002C225.435 65.2562 224.315 65.3842 223.035 65.3842C222.395 65.3842 221.819 65.3202 221.307 65.1922C220.859 65.1282 220.347 65.0642 219.771 65.0002L225.915 34.7602C225.979 34.4402 226.043 33.9282 226.107 33.2242C226.235 32.4562 226.299 31.9442 226.299 31.6882C226.299 31.6242 226.299 31.5602 226.299 31.4962C226.299 31.0482 226.267 30.6002 226.203 30.1522C226.139 29.6402 225.883 29.3842 225.435 29.3842C224.795 29.3842 223.963 29.8322 222.939 30.7282C221.915 31.5602 220.987 32.4242 220.155 33.3202C219.387 34.2162 218.939 34.7282 218.811 34.8562C218.683 34.8562 218.491 34.6322 218.235 34.1842C217.979 33.6722 217.851 33.2882 217.851 33.0322C218.107 32.5842 218.651 31.8802 219.483 30.9202C220.379 29.9602 221.403 28.9682 222.555 27.9442C223.707 26.9202 224.923 26.0562 226.203 25.3522C227.483 24.5842 228.667 24.2002 229.755 24.2002C230.779 24.2002 231.643 24.6802 232.347 25.6402C233.051 26.5362 233.403 27.6882 233.403 29.0962C233.403 29.4802 233.307 30.1522 233.115 31.1122C232.987 32.0722 232.827 33.0642 232.635 34.0882C232.315 35.7522 231.995 37.2242 231.675 38.5042C231.419 39.7202 231.099 41.1602 230.715 42.8242C231.547 41.3522 232.635 39.5602 233.979 37.4482C235.387 35.3362 236.891 33.2882 238.491 31.3042C240.091 29.2562 241.659 27.5602 243.195 26.2162C244.795 24.8722 246.203 24.2002 247.419 24.2002C249.275 24.2002 250.651 24.6802 251.547 25.6402C252.443 26.5362 253.019 27.6562 253.275 29.0002C253.595 30.3442 253.755 31.7202 253.755 33.1282C253.755 33.8322 253.691 34.7602 253.563 35.9122C253.435 37.0002 253.243 38.0562 252.987 39.0802C252.795 40.1042 252.603 40.9042 252.411 41.4802C253.243 40.0082 254.363 38.3122 255.771 36.3922C257.243 34.4082 258.811 32.4882 260.475 30.6322C262.139 28.7762 263.771 27.2402 265.371 26.0242C267.035 24.8082 268.475 24.2002 269.691 24.2002C271.867 24.2002 273.371 24.7762 274.203 25.9282C275.035 27.0162 275.451 28.5202 275.451 30.4402C275.451 32.0402 275.291 33.7682 274.971 35.6242C274.715 37.4802 274.427 39.1442 274.107 40.6162L271.035 55.0162C270.971 55.4642 270.875 56.0402 270.747 56.7442C270.683 57.3842 270.651 57.8322 270.651 58.0882C270.651 58.5362 270.683 59.0482 270.747 59.6242C270.875 60.1362 271.163 60.3922 271.611 60.3922C272.315 60.3922 273.147 59.9762 274.107 59.1442C275.131 58.2482 276.027 57.3522 276.795 56.4562C277.627 55.5602 278.075 55.0802 278.139 55.0162C278.267 55.0162 278.459 55.2402 278.715 55.6882C278.971 56.0722 279.099 56.4242 279.099 56.7442C278.843 57.1922 278.267 57.8962 277.371 58.8562C276.475 59.8162 275.419 60.8082 274.203 61.8322C272.987 62.8562 271.707 63.7522 270.363 64.5202C269.083 65.2242 267.899 65.5762 266.811 65.5762C265.787 65.5762 264.987 65.1282 264.411 64.2322C263.899 63.2722 263.643 62.0882 263.643 60.6802C263.643 60.2962 263.707 59.6242 263.835 58.6642C263.963 57.7042 264.123 56.7122 264.315 55.6882Z" fill="black"/>
<path d="M180.366 26.3116L181.422 20.7436C181.806 20.2956 182.414 19.5916 183.246 18.6316C184.142 17.6076 185.006 16.6796 185.838 15.8476C186.67 15.0156 187.214 14.5996 187.47 14.5996C188.11 14.5996 188.654 14.7596 189.102 15.0796L187.086 26.3116H194.094C194.286 26.3116 194.414 26.4396 194.478 26.6956C194.542 26.8876 194.574 27.1116 194.574 27.3676C194.574 27.8156 194.478 28.2316 194.286 28.6156C194.158 28.9996 193.966 29.3836 193.71 29.7676H186.414L181.422 55.0156C181.358 55.4636 181.262 56.0396 181.134 56.7436C181.07 57.3836 181.038 57.8316 181.038 58.0876C181.038 58.5356 181.07 59.0476 181.134 59.6236C181.262 60.1356 181.55 60.3916 181.998 60.3916C182.702 60.3916 183.534 59.9756 184.494 59.1436C185.518 58.2476 186.414 57.3516 187.182 56.4556C188.014 55.5596 188.462 55.0796 188.526 55.0156C188.654 55.0156 188.846 55.2396 189.102 55.6876C189.358 56.0716 189.486 56.4236 189.486 56.7436C189.23 57.1916 188.654 57.8956 187.758 58.8556C186.862 59.8156 185.806 60.8076 184.59 61.8316C183.374 62.8556 182.094 63.7516 180.75 64.5196C179.47 65.2236 178.286 65.5756 177.198 65.5756C176.174 65.5756 175.374 65.1276 174.798 64.2316C174.286 63.2716 174.03 62.0876 174.03 60.6796C174.03 60.2956 174.094 59.6236 174.222 58.6636C174.35 57.7036 174.51 56.7116 174.702 55.6876L179.694 29.7676H173.454C173.326 29.7676 173.262 29.6716 173.262 29.4796C173.262 28.9676 173.71 28.3276 174.606 27.5596C175.566 26.7276 176.558 26.3116 177.582 26.3116H180.366Z" fill="black"/>
<path d="M154.684 55.6882C155.004 54.0882 155.292 52.7442 155.548 51.6562C155.804 50.5042 156.092 49.1282 156.412 47.5282C155.836 48.8722 154.812 50.5362 153.34 52.5202C151.868 54.5042 150.204 56.5202 148.348 58.5682C146.492 60.5522 144.604 62.2162 142.684 63.5602C140.764 64.9042 139.036 65.5762 137.5 65.5762C135.708 65.5762 134.492 64.9042 133.852 63.5602C133.212 62.2162 132.892 60.6482 132.892 58.8562C132.892 57.5762 133.02 55.9762 133.276 54.0562C133.596 52.1362 133.884 50.5042 134.14 49.1602L137.308 34.7602C137.372 34.4402 137.436 33.9282 137.5 33.2242C137.564 32.4562 137.596 31.9442 137.596 31.6882C137.596 31.6242 137.596 31.5602 137.596 31.4962C137.596 31.0482 137.564 30.6002 137.5 30.1522C137.436 29.6402 137.18 29.3842 136.732 29.3842C136.092 29.3842 135.26 29.8322 134.236 30.7282C133.212 31.5602 132.284 32.4242 131.452 33.3202C130.684 34.2162 130.236 34.7282 130.108 34.8562C129.98 34.8562 129.788 34.6322 129.532 34.1842C129.34 33.6722 129.244 33.2882 129.244 33.0322C129.5 32.5842 130.044 31.8802 130.876 30.9202C131.708 29.9602 132.7 28.9682 133.852 27.9442C135.004 26.9202 136.22 26.0562 137.5 25.3522C138.78 24.5842 139.964 24.2002 141.052 24.2002C142.076 24.2002 142.94 24.6802 143.644 25.6402C144.348 26.5362 144.7 27.6882 144.7 29.0962C144.7 29.4802 144.636 30.1522 144.508 31.1122C144.38 32.0722 144.22 33.0642 144.028 34.0882L140.764 49.5442C140.7 49.9922 140.572 50.8242 140.38 52.0402C140.188 53.2562 140.092 54.1202 140.092 54.6322C140.092 55.6562 140.156 56.5842 140.284 57.4162C140.476 58.2482 140.988 58.6642 141.82 58.6642C142.652 58.6642 143.868 57.9922 145.468 56.6482C147.068 55.3042 148.764 53.5122 150.556 51.2722C152.412 48.9682 154.076 46.4402 155.548 43.6882C157.02 40.8722 158.044 37.9922 158.62 35.0482C159.004 33.1282 159.356 31.4322 159.676 29.9602C159.996 28.4882 160.348 26.7602 160.732 24.7762C161.564 24.5202 162.524 24.3922 163.612 24.3922C164.124 24.3922 164.7 24.4242 165.34 24.4882C166.044 24.5522 166.684 24.6482 167.26 24.7762L161.404 55.0162C161.34 55.4642 161.276 56.0402 161.212 56.7442C161.148 57.3842 161.116 57.8322 161.116 58.0882C161.116 58.1522 161.116 58.2162 161.116 58.2802C161.116 58.7282 161.148 59.2082 161.212 59.7202C161.276 60.1682 161.532 60.3922 161.98 60.3922C162.684 60.3922 163.516 59.9762 164.476 59.1442C165.5 58.2482 166.428 57.3522 167.26 56.4562C168.092 55.5602 168.54 55.0802 168.604 55.0162C168.732 55.0162 168.892 55.2402 169.084 55.6882C169.34 56.0722 169.468 56.4242 169.468 56.7442C169.212 57.1922 168.636 57.8962 167.74 58.8562C166.908 59.8162 165.884 60.8082 164.668 61.8322C163.452 62.8562 162.172 63.7522 160.828 64.5202C159.548 65.2242 158.364 65.5762 157.276 65.5762C156.252 65.5762 155.452 65.1282 154.876 64.2322C154.3 63.2722 154.012 62.0882 154.012 60.6802C154.012 60.2962 154.076 59.6242 154.204 58.6642C154.332 57.7042 154.492 56.7122 154.684 55.6882Z" fill="black"/>
<path d="M115.872 24.2002C119.648 24.2002 122.4 25.5122 124.128 28.1362C125.92 30.6962 126.816 33.9922 126.816 38.0242C126.816 41.2882 126.208 44.5522 124.992 47.8162C123.84 51.0802 122.24 54.0562 120.192 56.7442C118.144 59.3682 115.84 61.4802 113.28 63.0802C110.784 64.6802 108.192 65.4802 105.504 65.4802C101.792 65.4802 99.0396 64.2642 97.2476 61.8322C95.4556 59.3362 94.5596 56.0722 94.5596 52.0402C94.5596 48.7762 95.1356 45.5122 96.2876 42.2482C97.5036 38.9202 99.1356 35.9122 101.184 33.2242C103.232 30.4722 105.504 28.2962 108 26.6962C110.56 25.0322 113.184 24.2002 115.872 24.2002ZM114.528 27.1762C112.544 27.1762 110.784 27.9122 109.248 29.3842C107.712 30.8562 106.4 32.7762 105.312 35.1442C104.224 37.5122 103.392 40.0402 102.816 42.7282C102.24 45.3522 101.952 47.8482 101.952 50.2162C101.952 53.9282 102.4 56.9042 103.296 59.1442C104.256 61.3842 105.568 62.5042 107.232 62.5042C109.152 62.5042 110.88 61.7682 112.416 60.2962C113.952 58.7602 115.232 56.8082 116.256 54.4402C117.344 52.0722 118.144 49.5762 118.656 46.9522C119.232 44.2642 119.52 41.7362 119.52 39.3682C119.52 35.5922 119.104 32.6162 118.272 30.4402C117.44 28.2642 116.192 27.1762 114.528 27.1762Z" fill="black"/>
<path d="M69.5066 38.3124C71.6826 34.6644 73.8266 31.8164 75.9386 29.7684C78.1146 27.7204 80.0666 26.2804 81.7946 25.4484C83.5866 24.6164 84.9626 24.2004 85.9226 24.2004C88.0986 24.2004 89.7306 25.1924 90.8186 27.1764C91.9066 29.0964 92.4506 31.6564 92.4506 34.8564C92.4506 39.0804 91.6826 43.0484 90.1466 46.7604C88.6746 50.4724 86.7546 53.7364 84.3866 56.5524C82.0186 59.3684 79.4586 61.5764 76.7066 63.1764C73.9546 64.7764 71.3306 65.5764 68.8346 65.5764C66.2106 65.5764 64.0986 64.6164 62.4986 62.6964C60.8986 60.7764 60.0986 58.0884 60.0986 54.6324C60.0986 54.1204 60.1626 53.4164 60.2906 52.5204C60.4826 51.5604 60.6106 50.7924 60.6746 50.2164L68.0666 12.5844C68.2586 11.6884 68.4506 10.7604 68.6426 9.80037C68.8346 8.84037 68.9306 8.10437 68.9306 7.59237C68.9306 7.01637 68.5786 6.60037 67.8746 6.34437C67.1706 6.08837 66.3706 5.96037 65.4746 5.96037C64.6426 5.89637 63.9386 5.86436 63.3626 5.86436C63.2986 5.86436 63.2346 5.86436 63.1706 5.86436C63.0426 5.67237 63.0106 5.35237 63.0746 4.90437C63.2026 4.39237 63.3626 4.04037 63.5546 3.84837C66.1786 3.59237 68.6426 3.11237 70.9466 2.40837C73.2506 1.70436 74.9146 1.16037 75.9386 0.776367C76.1946 0.904366 76.3546 1.16037 76.4186 1.54437C76.4826 1.92837 76.5146 2.28037 76.5146 2.60037C76.5146 2.98437 76.3546 3.97636 76.0346 5.57637C75.7786 7.11237 75.5226 8.45637 75.2666 9.60837L69.5066 38.3124ZM81.8906 29.3844C80.8666 29.3844 79.6186 29.9924 78.1466 31.2084C76.7386 32.4244 75.2666 34.0564 73.7306 36.1044C72.2586 38.0884 70.9146 40.3284 69.6986 42.8244C68.4826 45.3204 67.6186 47.8484 67.1066 50.4084C66.3386 54.1844 66.3066 57.1604 67.0106 59.3364C67.7786 61.4484 69.2506 62.5044 71.4266 62.5044C73.0266 62.5044 74.5306 61.8644 75.9386 60.5844C77.3466 59.3044 78.6266 57.6404 79.7786 55.5924C80.9306 53.5444 81.9226 51.3684 82.7546 49.0644C83.6506 46.6964 84.3226 44.4244 84.7706 42.2484C85.2826 40.0724 85.5386 38.2164 85.5386 36.6804C85.5386 34.9524 85.3466 33.3204 84.9626 31.7844C84.5786 30.1844 83.5546 29.3844 81.8906 29.3844Z" fill="black"/>
<path d="M37.9682 62.5997C39.6322 62.5997 40.9442 62.3437 41.9042 61.8317C42.8642 61.3197 43.3442 60.5837 43.3442 59.6237C43.3442 59.1117 43.3122 58.4397 43.2482 57.6077C43.2482 56.7757 43.1842 55.9117 43.0562 55.0157L40.9442 40.9997H22.3202C20.7202 43.8797 19.3122 46.4397 18.0962 48.6797C16.8802 50.9197 16.0482 52.4557 15.6002 53.2877C14.7682 54.8877 14.0962 56.2957 13.5842 57.5117C13.1362 58.6637 12.9122 59.5917 12.9122 60.2957C12.9122 60.9357 13.3282 61.4477 14.1602 61.8317C15.0562 62.1517 15.9842 62.3757 16.9442 62.5037C17.9042 62.5677 18.4802 62.5997 18.6722 62.5997C18.8002 62.7277 18.8002 63.1437 18.6722 63.8477C18.5442 64.4877 18.4162 64.9677 18.2882 65.2877C17.1362 65.2237 16.1762 65.1597 15.4082 65.0957C14.7042 65.0317 13.9362 64.9677 13.1042 64.9037C12.3362 64.8397 11.3122 64.8077 10.0322 64.8077C8.68818 64.8077 7.56818 64.8397 6.67218 64.9037C5.84018 64.9677 5.00818 65.0317 4.17618 65.0957C3.28018 65.1597 2.16018 65.2237 0.81618 65.2877C0.75218 65.1597 0.78418 64.7757 0.91218 64.1357C1.04018 63.4317 1.20018 62.9197 1.39218 62.5997C1.90418 62.5997 2.76818 62.4717 3.98418 62.2157C5.20018 61.8957 6.09618 61.4157 6.67218 60.7757C7.82418 59.5597 8.84818 58.2157 9.74418 56.7437C10.6402 55.2077 11.5682 53.6077 12.5282 51.9437L38.3522 5.57569C38.8002 4.80769 39.4402 4.16769 40.2722 3.65569C41.1042 3.14369 41.7122 2.8877 42.0962 2.8877C42.2882 2.8877 42.4482 2.95169 42.5762 3.07969L50.6402 53.1917C50.9602 54.9837 51.2162 56.4557 51.4082 57.6077C51.6002 58.6957 51.7282 59.3357 51.7922 59.5277C51.9842 60.4237 52.4962 61.0957 53.3282 61.5437C54.2242 61.9917 55.1202 62.2797 56.0162 62.4077C56.9122 62.5357 57.4562 62.5997 57.6482 62.5997C57.7762 62.9197 57.7762 63.4317 57.6482 64.1357C57.5842 64.7757 57.4882 65.1597 57.3602 65.2877C55.6322 65.1597 53.9682 65.0637 52.3682 64.9997C50.7682 64.8717 49.0082 64.8077 47.0882 64.8077C45.1042 64.8077 43.5042 64.8717 42.2882 64.9997C41.0722 65.0637 39.4402 65.1597 37.3922 65.2877C37.2002 65.0317 37.1682 64.5837 37.2962 63.9437C37.4882 63.3037 37.7122 62.8557 37.9682 62.5997ZM24.0482 37.9277H40.4642L36.8162 14.8877L24.0482 37.9277Z" fill="black"/>
</svg>
