<svg width="508" height="87" viewBox="0 0 508 87" fill="none" xmlns="http://www.w3.org/2000/svg">
<path d="M424.302 31.5996C427.545 31.5996 429.721 32.4529 430.83 34.1596C431.94 35.7809 432.494 37.5303 432.494 39.4076C432.494 41.7969 431.726 44.1009 430.19 46.3196C428.74 48.5383 426.777 50.6289 424.302 52.5916C421.913 54.4689 419.353 56.1329 416.622 57.5836C413.977 58.9489 411.417 60.0156 408.942 60.7836C406.468 61.5516 404.462 61.9356 402.926 61.9356C402.841 62.1063 402.756 62.7463 402.67 63.8556C402.67 64.8796 402.67 65.5623 402.67 65.9036C402.67 69.7436 403.31 72.9436 404.59 75.5036C405.87 78.0636 408.089 79.3436 411.246 79.3436C412.697 79.3436 414.148 78.9596 415.598 78.1916C417.049 77.3383 418.414 76.3569 419.694 75.2476C420.974 74.1383 421.998 73.1569 422.766 72.3036C423.62 71.3649 424.089 70.8529 424.174 70.7676C424.345 70.7676 424.601 71.0663 424.942 71.6636C425.369 72.2609 425.582 72.7729 425.582 73.1996C425.156 73.8823 424.302 74.9489 423.022 76.3996C421.742 77.8503 420.206 79.3863 418.414 81.0076C416.622 82.6289 414.702 83.9943 412.654 85.1036C410.606 86.2129 408.601 86.7676 406.638 86.7676C402.201 86.7676 398.788 85.1889 396.398 82.0316C394.009 78.8743 392.814 74.3943 392.814 68.5916C392.814 63.9836 393.753 59.4609 395.63 55.0236C397.593 50.5863 400.11 46.6183 403.182 43.1196C406.254 39.6209 409.625 36.8476 413.294 34.7996C417.049 32.6663 420.718 31.5996 424.302 31.5996ZM403.182 58.7356C404.377 58.7356 406.084 58.3089 408.302 57.4556C410.521 56.5169 412.782 55.2796 415.086 53.7436C417.39 52.1223 419.31 50.2876 420.846 48.2396C422.468 46.1916 423.278 44.0156 423.278 41.7116C423.278 40.0049 422.681 38.7676 421.486 37.9996C420.377 37.1463 419.225 36.7196 418.03 36.7196C415.897 36.7196 413.934 37.5729 412.142 39.2796C410.436 40.9009 408.942 42.9489 407.662 45.4236C406.382 47.8129 405.358 50.2449 404.59 52.7196C403.822 55.1089 403.353 57.1143 403.182 58.7356Z" fill="white"/>
<path d="M379.679 31.5996C381.642 31.5996 383.178 31.9836 384.287 32.7516C385.482 33.4343 386.506 34.1169 387.359 34.7996C387.53 35.0556 387.743 35.5249 387.999 36.2076C388.341 36.8049 388.511 37.4449 388.511 38.1276C388.511 39.4929 388.17 40.7729 387.487 41.9676C386.805 43.1623 385.738 43.7596 384.287 43.7596C382.325 43.7596 380.831 42.9063 379.807 41.1996C379.21 40.1756 378.399 39.1943 377.375 38.2556C376.437 37.2316 375.071 36.7196 373.279 36.7196C370.975 36.7196 368.629 37.9996 366.239 40.5596C363.935 43.0343 361.973 46.4476 360.351 50.7996C358.815 55.1516 358.047 60.1436 358.047 65.7756C358.047 67.2263 358.218 69.0183 358.559 71.1516C358.901 73.2849 359.669 75.2049 360.863 76.9116C362.058 78.5329 363.978 79.3436 366.623 79.3436C368.074 79.3436 369.525 78.9596 370.975 78.1916C372.426 77.3383 373.791 76.3569 375.071 75.2476C376.351 74.1383 377.375 73.1569 378.143 72.3036C378.997 71.3649 379.466 70.8529 379.551 70.7676C379.722 70.7676 379.978 71.0663 380.319 71.6636C380.746 72.2609 380.959 72.7729 380.959 73.1996C380.618 73.7969 379.807 74.8209 378.527 76.2716C377.333 77.7223 375.839 79.2583 374.047 80.8796C372.255 82.5009 370.293 83.9089 368.159 85.1036C366.111 86.2129 364.106 86.7676 362.143 86.7676C357.706 86.7676 354.25 85.1889 351.775 82.0316C349.386 78.7889 348.191 74.2663 348.191 68.4636C348.191 63.4289 349.173 58.6929 351.135 54.2556C353.183 49.8183 355.829 45.9356 359.071 42.6076C362.314 39.1943 365.727 36.5063 369.311 34.5436C372.981 32.5809 376.437 31.5996 379.679 31.5996Z" fill="white"/>
<path d="M305.523 44.7836L303.219 55.2796C303.56 54.6823 304.328 53.4876 305.523 51.6956C306.803 49.9036 308.339 47.8983 310.131 45.6796C312.008 43.3756 313.971 41.1569 316.019 39.0236C318.152 36.8903 320.243 35.1409 322.291 33.7756C324.339 32.3249 326.173 31.5996 327.795 31.5996C330.696 31.5996 332.701 32.3676 333.811 33.9036C334.92 35.3543 335.475 37.3596 335.475 39.9196C335.475 41.7969 335.304 44.0156 334.963 46.5756C334.621 49.0503 334.237 51.3543 333.811 53.4876L329.587 72.6876C329.501 73.2849 329.373 74.0529 329.203 74.9916C329.117 75.8449 329.075 76.4423 329.075 76.7836C329.075 77.3809 329.117 78.0636 329.203 78.8316C329.373 79.5143 329.757 79.8556 330.355 79.8556C331.293 79.8556 332.403 79.3009 333.683 78.1916C335.048 76.9969 336.285 75.8023 337.395 74.6076C338.504 73.4129 339.101 72.7729 339.187 72.6876C339.357 72.6876 339.571 72.9863 339.827 73.5836C340.168 74.0956 340.339 74.5649 340.339 74.9916C339.997 75.5889 339.229 76.5276 338.035 77.8076C336.84 79.0876 335.432 80.4103 333.811 81.7756C332.189 83.1409 330.483 84.3356 328.691 85.3596C326.984 86.2983 325.405 86.7676 323.955 86.7676C322.589 86.7676 321.523 86.1703 320.755 84.9756C320.072 83.6956 319.731 82.1169 319.731 80.2396C319.731 79.7276 319.816 78.8316 319.987 77.5516C320.157 76.2716 320.371 74.9489 320.627 73.5836L324.979 52.9756C325.149 52.3783 325.32 51.2689 325.491 49.6476C325.747 48.0263 325.875 46.8743 325.875 46.1916C325.875 44.5703 325.747 43.2903 325.491 42.3516C325.32 41.3276 324.637 40.8156 323.443 40.8156C322.333 40.8156 320.627 41.6263 318.323 43.2476C316.104 44.8689 313.757 47.0876 311.283 49.9036C308.808 52.7196 306.547 55.9196 304.499 59.5036C302.536 63.0876 301.171 66.8423 300.403 70.7676C299.805 73.7543 299.293 76.3143 298.867 78.4476C298.44 80.4956 297.885 83.0129 297.203 85.9996C295.837 86.3409 294.344 86.5116 292.723 86.5116C291.187 86.5116 289.736 86.3409 288.371 85.9996L296.563 45.6796C296.648 45.2529 296.733 44.5703 296.819 43.6316C296.989 42.6076 297.075 41.9249 297.075 41.5836C297.075 41.4983 297.075 41.4129 297.075 41.3276C297.075 40.7303 297.032 40.1329 296.947 39.5356C296.861 38.8529 296.52 38.5116 295.923 38.5116C295.069 38.5116 293.96 39.1089 292.595 40.3036C291.229 41.4129 289.992 42.5649 288.883 43.7596C287.859 44.9543 287.261 45.6369 287.091 45.8076C286.92 45.8076 286.664 45.5089 286.323 44.9116C285.981 44.2289 285.811 43.7169 285.811 43.3756C286.152 42.7783 286.877 41.8396 287.987 40.5596C289.181 39.2796 290.547 37.9569 292.083 36.5916C293.619 35.2263 295.24 34.0743 296.947 33.1356C298.653 32.1116 300.232 31.5996 301.683 31.5996C303.048 31.5996 304.2 32.2396 305.139 33.5196C306.077 34.7143 306.547 36.2503 306.547 38.1276C306.547 38.6396 306.461 39.5356 306.291 40.8156C306.12 42.0956 305.864 43.4183 305.523 44.7836Z" fill="white"/>
<path d="M265.142 31.5996C267.36 31.5996 269.238 31.7703 270.774 32.1116C272.31 32.4529 273.675 32.8369 274.87 33.2636L267.19 72.6876C267.104 73.1143 266.976 73.9249 266.806 75.1196C266.635 76.3143 266.592 77.4236 266.678 78.4476C266.848 79.3863 267.275 79.8556 267.958 79.8556C268.896 79.8556 270.006 79.3009 271.286 78.1916C272.651 76.9969 273.888 75.8023 274.998 74.6076C276.107 73.4129 276.704 72.7729 276.79 72.6876C276.96 72.6876 277.174 72.9863 277.43 73.5836C277.771 74.0956 277.942 74.5649 277.942 74.9916C277.6 75.5889 276.832 76.5276 275.638 77.8076C274.528 79.0876 273.163 80.4103 271.542 81.7756C269.92 83.1409 268.214 84.3356 266.422 85.3596C264.715 86.2983 263.136 86.7676 261.686 86.7676C260.32 86.7676 259.254 86.1703 258.486 84.9756C257.718 83.6956 257.334 82.1169 257.334 80.2396C257.334 79.7276 257.419 78.8316 257.59 77.5516C257.76 76.2716 257.974 74.9489 258.23 73.5836C258.4 72.3889 258.528 71.5783 258.614 71.1516C258.699 70.6396 258.784 70.1703 258.87 69.7436C258.272 70.8529 257.291 72.3463 255.926 74.2236C254.646 76.1009 253.152 77.9783 251.446 79.8556C249.739 81.7329 247.904 83.3543 245.942 84.7196C244.064 85.9996 242.23 86.6396 240.438 86.6396C237.024 86.6396 234.336 85.2743 232.374 82.5436C230.411 79.8129 229.43 76.2716 229.43 71.9196C229.43 66.4583 230.539 61.2956 232.758 56.4316C235.062 51.5676 238.006 47.3009 241.59 43.6316C245.174 39.8769 249.014 36.9329 253.11 34.7996C257.291 32.6663 261.302 31.5996 265.142 31.5996ZM259.382 36.5916C256.992 36.5916 254.56 37.4876 252.086 39.2796C249.696 41.0716 247.478 43.5036 245.43 46.5756C243.382 49.5623 241.718 52.8476 240.438 56.4316C239.243 60.0156 238.646 63.5996 238.646 67.1836C238.646 71.1089 239.158 74.1383 240.182 76.2716C241.291 78.3196 242.912 79.3436 245.046 79.3436C246.582 79.3436 248.246 78.4903 250.038 76.7836C251.83 75.0769 253.536 72.8583 255.158 70.1276C256.864 67.3116 258.358 64.2823 259.638 61.0396C260.918 57.7969 261.856 54.6823 262.454 51.6956L265.142 38.5116C264.544 37.8289 263.648 37.3596 262.454 37.1036C261.259 36.7623 260.235 36.5916 259.382 36.5916Z" fill="white"/>
<path d="M194.229 12.1442L187.829 44.7842L185.653 56.3042C185.994 55.7068 186.805 54.5122 188.085 52.7202C189.365 50.8428 190.901 48.7095 192.693 46.3202C194.57 43.9308 196.575 41.6268 198.709 39.4082C200.842 37.1895 202.933 35.3548 204.981 33.9042C207.029 32.3682 208.863 31.6002 210.485 31.6002C212.959 31.6002 214.709 32.4108 215.733 34.0322C216.842 35.5682 217.397 37.5308 217.397 39.9202C217.397 42.0535 217.226 44.2722 216.885 46.5762C216.543 48.7948 216.117 51.0988 215.605 53.4882L211.509 72.6882C211.423 72.9442 211.295 73.6268 211.125 74.7362C211.039 75.7602 210.997 76.4428 210.997 76.7842C210.997 77.3815 211.039 78.0642 211.125 78.8322C211.295 79.5148 211.679 79.8562 212.277 79.8562C213.215 79.8562 214.325 79.3015 215.605 78.1922C216.97 76.9975 218.165 75.8028 219.189 74.6082C220.298 73.4135 220.895 72.7735 220.981 72.6882C221.151 72.6882 221.407 72.9868 221.749 73.5842C222.09 74.0962 222.261 74.5655 222.261 74.9922C221.919 75.5895 221.151 76.5282 219.957 77.8082C218.762 79.0882 217.354 80.4108 215.733 81.7762C214.111 83.1415 212.405 84.3362 210.613 85.3602C208.906 86.2988 207.327 86.7682 205.877 86.7682C204.511 86.7682 203.445 86.1708 202.677 84.9762C201.994 83.6962 201.653 82.1175 201.653 80.2402C201.653 79.7282 201.695 78.8322 201.781 77.5522C201.951 76.2722 202.207 74.9495 202.549 73.5842L206.901 52.9762C207.071 52.3788 207.242 51.2695 207.413 49.6482C207.669 48.0268 207.797 46.8748 207.797 46.1922C207.797 44.7415 207.669 43.5042 207.413 42.4802C207.157 41.3708 206.474 40.8162 205.365 40.8162C204.255 40.8162 202.591 41.7122 200.373 43.5042C198.239 45.2108 195.935 47.5575 193.461 50.5442C191.071 53.4455 188.895 56.6882 186.933 60.2722C184.97 63.8562 183.647 67.4828 182.965 71.1522C182.623 73.0295 182.197 75.2482 181.685 77.8082C181.173 80.3682 180.575 83.0988 179.893 86.0002C179.295 86.1708 178.57 86.2988 177.717 86.3842C176.863 86.4695 176.095 86.5122 175.413 86.5122C174.815 86.5122 174.133 86.4695 173.365 86.3842C172.597 86.2988 171.829 86.1708 171.061 86.0002L184.629 16.1122C184.799 14.9175 185.013 13.6802 185.269 12.4002C185.61 11.1202 185.781 10.1388 185.781 9.45616C185.781 8.68816 185.311 8.1335 184.373 7.79217C183.434 7.45083 182.367 7.28017 181.173 7.28017C180.063 7.19483 179.125 7.15216 178.357 7.15216C178.271 7.15216 178.186 7.15216 178.101 7.15216C177.93 6.89616 177.887 6.4695 177.973 5.87216C178.143 5.1895 178.357 4.72017 178.613 4.46416C182.111 4.12283 185.397 3.48283 188.469 2.54417C191.541 1.6055 193.759 0.880163 195.125 0.368164C195.466 0.538829 195.679 0.880163 195.765 1.39217C195.85 1.90416 195.893 2.3735 195.893 2.80016C195.893 3.31216 195.679 4.63483 195.253 6.76817C194.911 8.81616 194.57 10.6082 194.229 12.1442Z" fill="white"/>
<path d="M157.427 31.5996C160.67 31.5996 162.846 32.4529 163.955 34.1596C165.065 35.7809 165.619 37.5303 165.619 39.4076C165.619 41.7969 164.851 44.1009 163.315 46.3196C161.865 48.5383 159.902 50.6289 157.427 52.5916C155.038 54.4689 152.478 56.1329 149.747 57.5836C147.102 58.9489 144.542 60.0156 142.067 60.7836C139.593 61.5516 137.587 61.9356 136.051 61.9356C135.966 62.1063 135.881 62.7463 135.795 63.8556C135.795 64.8796 135.795 65.5623 135.795 65.9036C135.795 69.7436 136.435 72.9436 137.715 75.5036C138.995 78.0636 141.214 79.3436 144.371 79.3436C145.822 79.3436 147.273 78.9596 148.723 78.1916C150.174 77.3383 151.539 76.3569 152.819 75.2476C154.099 74.1383 155.123 73.1569 155.891 72.3036C156.745 71.3649 157.214 70.8529 157.299 70.7676C157.47 70.7676 157.726 71.0663 158.067 71.6636C158.494 72.2609 158.707 72.7729 158.707 73.1996C158.281 73.8823 157.427 74.9489 156.147 76.3996C154.867 77.8503 153.331 79.3863 151.539 81.0076C149.747 82.6289 147.827 83.9943 145.779 85.1036C143.731 86.2129 141.726 86.7676 139.763 86.7676C135.326 86.7676 131.913 85.1889 129.523 82.0316C127.134 78.8743 125.939 74.3943 125.939 68.5916C125.939 63.9836 126.878 59.4609 128.755 55.0236C130.718 50.5863 133.235 46.6183 136.307 43.1196C139.379 39.6209 142.75 36.8476 146.419 34.7996C150.174 32.6663 153.843 31.5996 157.427 31.5996ZM136.307 58.7356C137.502 58.7356 139.209 58.3089 141.427 57.4556C143.646 56.5169 145.907 55.2796 148.211 53.7436C150.515 52.1223 152.435 50.2876 153.971 48.2396C155.593 46.1916 156.403 44.0156 156.403 41.7116C156.403 40.0049 155.806 38.7676 154.611 37.9996C153.502 37.1463 152.35 36.7196 151.155 36.7196C149.022 36.7196 147.059 37.5729 145.267 39.2796C143.561 40.9009 142.067 42.9489 140.787 45.4236C139.507 47.8129 138.483 50.2449 137.715 52.7196C136.947 55.1089 136.478 57.1143 136.307 58.7356Z" fill="white"/>
<path d="M87.544 50.4162C90.4453 45.5522 93.304 41.7548 96.12 39.0242C99.0213 36.2935 101.624 34.3735 103.928 33.2642C106.317 32.1548 108.152 31.6002 109.432 31.6002C112.333 31.6002 114.509 32.9228 115.96 35.5682C117.411 38.1282 118.136 41.5415 118.136 45.8082C118.136 51.4402 117.112 56.7308 115.064 61.6802C113.101 66.6295 110.541 70.9815 107.384 74.7362C104.227 78.4908 100.813 81.4348 97.144 83.5682C93.4747 85.7015 89.976 86.7682 86.648 86.7682C83.1493 86.7682 80.3333 85.4882 78.2 82.9282C76.0667 80.3682 75 76.7842 75 72.1762C75 71.4935 75.0853 70.5548 75.256 69.3602C75.512 68.0802 75.6827 67.0562 75.768 66.2882L85.624 16.1122C85.88 14.9175 86.136 13.6802 86.392 12.4002C86.648 11.1202 86.776 10.1388 86.776 9.45616C86.776 8.68816 86.3067 8.1335 85.368 7.79217C84.4293 7.45083 83.3627 7.28017 82.168 7.28017C81.0587 7.19483 80.12 7.15216 79.352 7.15216C79.2667 7.15216 79.1813 7.15216 79.096 7.15216C78.9253 6.89616 78.8827 6.4695 78.968 5.87216C79.1387 5.1895 79.352 4.72017 79.608 4.46416C83.1067 4.12283 86.392 3.48283 89.464 2.54417C92.536 1.6055 94.7547 0.880163 96.12 0.368164C96.4613 0.538829 96.6747 0.880163 96.76 1.39217C96.8453 1.90416 96.888 2.3735 96.888 2.80016C96.888 3.31216 96.6747 4.63483 96.248 6.76817C95.9067 8.81616 95.5653 10.6082 95.224 12.1442L87.544 50.4162ZM104.056 38.5122C102.691 38.5122 101.027 39.3228 99.064 40.9442C97.1867 42.5655 95.224 44.7415 93.176 47.4722C91.2133 50.1175 89.4213 53.1042 87.8 56.4322C86.1787 59.7602 85.0267 63.1308 84.344 66.5442C83.32 71.5788 83.2773 75.5468 84.216 78.4482C85.24 81.2642 87.2027 82.6722 90.104 82.6722C92.2373 82.6722 94.2427 81.8188 96.12 80.1122C97.9973 78.4055 99.704 76.1868 101.24 73.4562C102.776 70.7255 104.099 67.8242 105.208 64.7522C106.403 61.5948 107.299 58.5655 107.896 55.6642C108.579 52.7628 108.92 50.2882 108.92 48.2402C108.92 45.9362 108.664 43.7602 108.152 41.7122C107.64 39.5788 106.275 38.5122 104.056 38.5122Z" fill="white"/>
</svg>
