<svg width="508" height="87" viewBox="0 0 508 87" fill="none" xmlns="http://www.w3.org/2000/svg">
<path d="M487.696 73.5836L492.048 52.9756C492.219 52.3783 492.389 51.2689 492.56 49.6476C492.816 48.0263 492.944 46.8743 492.944 46.1916C492.944 44.5703 492.816 43.2903 492.56 42.3516C492.389 41.3276 491.707 40.8156 490.512 40.8156C489.232 40.8156 487.525 41.7116 485.392 43.5036C483.259 45.2103 480.997 47.5143 478.608 50.4156C476.304 53.2316 474.213 56.3463 472.336 59.7596C470.544 63.0876 469.35 66.3303 468.752 69.4876L465.68 85.9996C464.827 86.0849 464.059 86.1703 463.376 86.2556C462.779 86.3409 462.011 86.3836 461.072 86.3836C460.219 86.3836 459.493 86.3409 458.896 86.2556C458.299 86.1703 457.573 86.0849 456.72 85.9996L463.632 50.5436C463.803 49.5196 463.931 48.6236 464.016 47.8556C464.101 47.0876 464.144 46.4049 464.144 45.8076C464.144 42.4796 463.333 40.8156 461.712 40.8156C460.347 40.8156 458.597 41.7969 456.464 43.7596C454.331 45.7223 452.112 48.2396 449.808 51.3116C447.59 54.3836 445.627 57.6689 443.92 61.1676C442.213 64.5809 441.019 67.7809 440.336 70.7676L437.136 85.9996C435.856 86.3409 434.363 86.5116 432.656 86.5116C431.803 86.5116 431.035 86.4263 430.352 86.2556C429.755 86.1703 429.072 86.0849 428.304 85.9996L436.496 45.6796C436.581 45.2529 436.667 44.5703 436.752 43.6316C436.923 42.6076 437.008 41.9249 437.008 41.5836C437.008 41.4983 437.008 41.4129 437.008 41.3276C437.008 40.7303 436.965 40.1329 436.88 39.5356C436.795 38.8529 436.453 38.5116 435.856 38.5116C435.003 38.5116 433.893 39.1089 432.528 40.3036C431.163 41.4129 429.925 42.5649 428.816 43.7596C427.792 44.9543 427.195 45.6369 427.024 45.8076C426.853 45.8076 426.597 45.5089 426.256 44.9116C425.915 44.2289 425.744 43.7169 425.744 43.3756C426.085 42.7783 426.811 41.8396 427.92 40.5596C429.115 39.2796 430.48 37.9569 432.016 36.5916C433.552 35.2263 435.173 34.0743 436.88 33.1356C438.587 32.1116 440.165 31.5996 441.616 31.5996C442.981 31.5996 444.133 32.2396 445.072 33.5196C446.011 34.7143 446.48 36.2503 446.48 38.1276C446.48 38.6396 446.352 39.5356 446.096 40.8156C445.925 42.0956 445.712 43.4183 445.456 44.7836C445.029 47.0023 444.603 48.9649 444.176 50.6716C443.835 52.2929 443.408 54.2129 442.896 56.4316C444.005 54.4689 445.456 52.0796 447.248 49.2636C449.126 46.4476 451.131 43.7169 453.264 41.0716C455.397 38.3409 457.488 36.0796 459.536 34.2876C461.669 32.4956 463.547 31.5996 465.168 31.5996C467.643 31.5996 469.477 32.2396 470.672 33.5196C471.867 34.7143 472.635 36.2076 472.976 37.9996C473.403 39.7916 473.616 41.6263 473.616 43.5036C473.616 44.4423 473.531 45.6796 473.36 47.2156C473.19 48.6663 472.933 50.0743 472.592 51.4396C472.336 52.8049 472.08 53.8716 471.824 54.6396C472.933 52.6769 474.427 50.4156 476.304 47.8556C478.267 45.2103 480.358 42.6503 482.576 40.1756C484.795 37.7009 486.971 35.6529 489.104 34.0316C491.323 32.4103 493.243 31.5996 494.864 31.5996C497.765 31.5996 499.771 32.3676 500.88 33.9036C501.989 35.3543 502.544 37.3596 502.544 39.9196C502.544 42.0529 502.331 44.3569 501.904 46.8316C501.563 49.3063 501.179 51.5249 500.752 53.4876L496.656 72.6876C496.571 73.2849 496.443 74.0529 496.272 74.9916C496.187 75.8449 496.144 76.4423 496.144 76.7836C496.144 77.3809 496.187 78.0636 496.272 78.8316C496.443 79.5143 496.827 79.8556 497.424 79.8556C498.363 79.8556 499.472 79.3009 500.752 78.1916C502.117 76.9969 503.312 75.8023 504.336 74.6076C505.445 73.4129 506.043 72.7729 506.128 72.6876C506.299 72.6876 506.555 72.9863 506.896 73.5836C507.237 74.0956 507.408 74.5649 507.408 74.9916C507.067 75.5889 506.299 76.5276 505.104 77.8076C503.909 79.0876 502.501 80.4103 500.88 81.7756C499.259 83.1409 497.552 84.3356 495.76 85.3596C494.053 86.2983 492.475 86.7676 491.024 86.7676C489.659 86.7676 488.592 86.1703 487.824 84.9756C487.141 83.6956 486.8 82.1169 486.8 80.2396C486.8 79.7276 486.885 78.8316 487.056 77.5516C487.227 76.2716 487.44 74.9489 487.696 73.5836Z" fill="white"/>
<path d="M398.287 73.5836C398.714 71.4503 399.098 69.6583 399.439 68.2076C399.781 66.6716 400.165 64.8369 400.591 62.7036C399.823 64.4956 398.458 66.7143 396.495 69.3596C394.533 72.0049 392.314 74.6929 389.839 77.4236C387.365 80.0689 384.847 82.2876 382.287 84.0796C379.727 85.8716 377.423 86.7676 375.375 86.7676C372.986 86.7676 371.365 85.8716 370.511 84.0796C369.658 82.2876 369.231 80.1969 369.231 77.8076C369.231 76.1009 369.402 73.9676 369.743 71.4076C370.17 68.8476 370.554 66.6716 370.895 64.8796L375.119 45.6796C375.205 45.2529 375.29 44.5703 375.375 43.6316C375.461 42.6076 375.503 41.9249 375.503 41.5836C375.503 41.4983 375.503 41.4129 375.503 41.3276C375.503 40.7303 375.461 40.1329 375.375 39.5356C375.29 38.8529 374.949 38.5116 374.351 38.5116C373.498 38.5116 372.389 39.1089 371.023 40.3036C369.658 41.4129 368.421 42.5649 367.311 43.7596C366.287 44.9543 365.69 45.6369 365.519 45.8076C365.349 45.8076 365.093 45.5089 364.751 44.9116C364.495 44.2289 364.367 43.7169 364.367 43.3756C364.709 42.7783 365.434 41.8396 366.543 40.5596C367.653 39.2796 368.975 37.9569 370.511 36.5916C372.047 35.2263 373.669 34.0743 375.375 33.1356C377.082 32.1116 378.661 31.5996 380.111 31.5996C381.477 31.5996 382.629 32.2396 383.567 33.5196C384.506 34.7143 384.975 36.2503 384.975 38.1276C384.975 38.6396 384.89 39.5356 384.719 40.8156C384.549 42.0956 384.335 43.4183 384.079 44.7836L379.727 65.3916C379.642 65.9889 379.471 67.0983 379.215 68.7196C378.959 70.3409 378.831 71.4929 378.831 72.1756C378.831 73.5409 378.917 74.7783 379.087 75.8876C379.343 76.9969 380.026 77.5516 381.135 77.5516C382.245 77.5516 383.866 76.6556 385.999 74.8636C388.133 73.0716 390.394 70.6823 392.783 67.6956C395.258 64.6236 397.477 61.2529 399.439 57.5836C401.402 53.8289 402.767 49.9889 403.535 46.0636C404.047 43.5036 404.517 41.2423 404.943 39.2796C405.37 37.3169 405.839 35.0129 406.351 32.3676C407.461 32.0263 408.741 31.8556 410.191 31.8556C410.874 31.8556 411.642 31.8983 412.495 31.9836C413.434 32.0689 414.287 32.1969 415.055 32.3676L407.247 72.6876C407.162 73.2849 407.077 74.0529 406.991 74.9916C406.906 75.8449 406.863 76.4423 406.863 76.7836C406.863 76.8689 406.863 76.9543 406.863 77.0396C406.863 77.6369 406.906 78.2769 406.991 78.9596C407.077 79.5569 407.418 79.8556 408.015 79.8556C408.954 79.8556 410.063 79.3009 411.343 78.1916C412.709 76.9969 413.946 75.8023 415.055 74.6076C416.165 73.4129 416.762 72.7729 416.847 72.6876C417.018 72.6876 417.231 72.9863 417.487 73.5836C417.829 74.0956 417.999 74.5649 417.999 74.9916C417.658 75.5889 416.89 76.5276 415.695 77.8076C414.586 79.0876 413.221 80.4103 411.599 81.7756C409.978 83.1409 408.271 84.3356 406.479 85.3596C404.773 86.2983 403.194 86.7676 401.743 86.7676C400.378 86.7676 399.311 86.1703 398.543 84.9756C397.775 83.6956 397.391 82.1169 397.391 80.2396C397.391 79.7276 397.477 78.8316 397.647 77.5516C397.818 76.2716 398.031 74.9489 398.287 73.5836Z" fill="white"/>
<path d="M348.199 16.1122C348.455 14.9175 348.711 13.6802 348.967 12.4002C349.223 11.1202 349.351 10.1388 349.351 9.45616C349.351 8.68816 348.882 8.1335 347.943 7.79217C347.004 7.45083 345.938 7.28017 344.743 7.28017C343.634 7.19483 342.695 7.15216 341.927 7.15216C341.842 7.15216 341.756 7.15216 341.671 7.15216C341.5 6.89616 341.458 6.4695 341.543 5.87216C341.714 5.1895 341.927 4.72017 342.183 4.46416C345.682 4.12283 348.967 3.48283 352.039 2.54417C355.111 1.6055 357.33 0.880163 358.695 0.368164C359.036 0.538829 359.25 0.880163 359.335 1.39217C359.42 1.90416 359.463 2.3735 359.463 2.80016C359.463 3.31216 359.25 4.63483 358.823 6.76817C358.482 8.81616 358.14 10.6082 357.799 12.1442L345.895 72.6882C345.81 72.9442 345.682 73.6268 345.511 74.7362C345.426 75.7602 345.383 76.4428 345.383 76.7842C345.383 77.3815 345.426 78.0642 345.511 78.8322C345.682 79.5148 346.066 79.8562 346.663 79.8562C347.602 79.8562 348.711 79.3015 349.991 78.1922C351.356 76.9975 352.594 75.8028 353.703 74.6082C354.812 73.4135 355.41 72.7735 355.495 72.6882C355.666 72.6882 355.879 72.9868 356.135 73.5842C356.476 74.0962 356.647 74.5655 356.647 74.9922C356.306 75.5895 355.538 76.5282 354.343 77.8082C353.148 79.0882 351.74 80.4108 350.119 81.7762C348.498 83.1415 346.791 84.3362 344.999 85.3602C343.292 86.2988 341.714 86.7682 340.263 86.7682C338.898 86.7682 337.831 86.1708 337.063 84.9762C336.38 83.6962 336.039 82.1175 336.039 80.2402C336.039 79.7282 336.124 78.8322 336.295 77.5522C336.466 76.2722 336.679 74.9495 336.935 73.5842L348.199 16.1122Z" fill="white"/>
<path d="M306.662 73.5836C307.089 71.4503 307.473 69.6583 307.814 68.2076C308.156 66.6716 308.54 64.8369 308.966 62.7036C308.198 64.4956 306.833 66.7143 304.87 69.3596C302.908 72.0049 300.689 74.6929 298.214 77.4236C295.74 80.0689 293.222 82.2876 290.662 84.0796C288.102 85.8716 285.798 86.7676 283.75 86.7676C281.361 86.7676 279.74 85.8716 278.886 84.0796C278.033 82.2876 277.606 80.1969 277.606 77.8076C277.606 76.1009 277.777 73.9676 278.118 71.4076C278.545 68.8476 278.929 66.6716 279.27 64.8796L283.494 45.6796C283.58 45.2529 283.665 44.5703 283.75 43.6316C283.836 42.6076 283.878 41.9249 283.878 41.5836C283.878 41.4983 283.878 41.4129 283.878 41.3276C283.878 40.7303 283.836 40.1329 283.75 39.5356C283.665 38.8529 283.324 38.5116 282.726 38.5116C281.873 38.5116 280.764 39.1089 279.398 40.3036C278.033 41.4129 276.796 42.5649 275.686 43.7596C274.662 44.9543 274.065 45.6369 273.894 45.8076C273.724 45.8076 273.468 45.5089 273.126 44.9116C272.87 44.2289 272.742 43.7169 272.742 43.3756C273.084 42.7783 273.809 41.8396 274.918 40.5596C276.028 39.2796 277.35 37.9569 278.886 36.5916C280.422 35.2263 282.044 34.0743 283.75 33.1356C285.457 32.1116 287.036 31.5996 288.486 31.5996C289.852 31.5996 291.004 32.2396 291.942 33.5196C292.881 34.7143 293.35 36.2503 293.35 38.1276C293.35 38.6396 293.265 39.5356 293.094 40.8156C292.924 42.0956 292.71 43.4183 292.454 44.7836L288.102 65.3916C288.017 65.9889 287.846 67.0983 287.59 68.7196C287.334 70.3409 287.206 71.4929 287.206 72.1756C287.206 73.5409 287.292 74.7783 287.462 75.8876C287.718 76.9969 288.401 77.5516 289.51 77.5516C290.62 77.5516 292.241 76.6556 294.374 74.8636C296.508 73.0716 298.769 70.6823 301.158 67.6956C303.633 64.6236 305.852 61.2529 307.814 57.5836C309.777 53.8289 311.142 49.9889 311.91 46.0636C312.422 43.5036 312.892 41.2423 313.318 39.2796C313.745 37.3169 314.214 35.0129 314.726 32.3676C315.836 32.0263 317.116 31.8556 318.566 31.8556C319.249 31.8556 320.017 31.8983 320.87 31.9836C321.809 32.0689 322.662 32.1969 323.43 32.3676L315.622 72.6876C315.537 73.2849 315.452 74.0529 315.366 74.9916C315.281 75.8449 315.238 76.4423 315.238 76.7836C315.238 76.8689 315.238 76.9543 315.238 77.0396C315.238 77.6369 315.281 78.2769 315.366 78.9596C315.452 79.5569 315.793 79.8556 316.39 79.8556C317.329 79.8556 318.438 79.3009 319.718 78.1916C321.084 76.9969 322.321 75.8023 323.43 74.6076C324.54 73.4129 325.137 72.7729 325.222 72.6876C325.393 72.6876 325.606 72.9863 325.862 73.5836C326.204 74.0956 326.374 74.5649 326.374 74.9916C326.033 75.5889 325.265 76.5276 324.07 77.8076C322.961 79.0876 321.596 80.4103 319.974 81.7756C318.353 83.1409 316.646 84.3356 314.854 85.3596C313.148 86.2983 311.569 86.7676 310.118 86.7676C308.753 86.7676 307.686 86.1703 306.918 84.9756C306.15 83.6956 305.766 82.1169 305.766 80.2396C305.766 79.7276 305.852 78.8316 306.022 77.5516C306.193 76.2716 306.406 74.9489 306.662 73.5836Z" fill="white"/>
<path d="M259.863 31.5996C261.826 31.5996 263.362 31.9836 264.471 32.7516C265.666 33.4343 266.69 34.1169 267.543 34.7996C267.714 35.0556 267.927 35.5249 268.183 36.2076C268.524 36.8049 268.695 37.4449 268.695 38.1276C268.695 39.4929 268.354 40.7729 267.671 41.9676C266.988 43.1623 265.922 43.7596 264.471 43.7596C262.508 43.7596 261.015 42.9063 259.991 41.1996C259.394 40.1756 258.583 39.1943 257.559 38.2556C256.62 37.2316 255.255 36.7196 253.463 36.7196C251.159 36.7196 248.812 37.9996 246.423 40.5596C244.119 43.0343 242.156 46.4476 240.535 50.7996C238.999 55.1516 238.231 60.1436 238.231 65.7756C238.231 67.2263 238.402 69.0183 238.743 71.1516C239.084 73.2849 239.852 75.2049 241.047 76.9116C242.242 78.5329 244.162 79.3436 246.807 79.3436C248.258 79.3436 249.708 78.9596 251.159 78.1916C252.61 77.3383 253.975 76.3569 255.255 75.2476C256.535 74.1383 257.559 73.1569 258.327 72.3036C259.18 71.3649 259.65 70.8529 259.735 70.7676C259.906 70.7676 260.162 71.0663 260.503 71.6636C260.93 72.2609 261.143 72.7729 261.143 73.1996C260.802 73.7969 259.991 74.8209 258.711 76.2716C257.516 77.7223 256.023 79.2583 254.231 80.8796C252.439 82.5009 250.476 83.9089 248.343 85.1036C246.295 86.2129 244.29 86.7676 242.327 86.7676C237.89 86.7676 234.434 85.1889 231.959 82.0316C229.57 78.7889 228.375 74.2663 228.375 68.4636C228.375 63.4289 229.356 58.6929 231.319 54.2556C233.367 49.8183 236.012 45.9356 239.255 42.6076C242.498 39.1943 245.911 36.5063 249.495 34.5436C253.164 32.5809 256.62 31.5996 259.863 31.5996Z" fill="white"/>
<path d="M206.631 45.6804C206.716 45.2538 206.802 44.5711 206.887 43.6324C207.058 42.6084 207.143 41.9258 207.143 41.5844C207.143 41.4991 207.143 41.4138 207.143 41.3284C207.143 40.7311 207.1 40.1338 207.015 39.5364C206.93 38.8538 206.588 38.5124 205.991 38.5124C205.138 38.5124 204.028 39.1098 202.663 40.3044C201.298 41.4138 200.06 42.5658 198.951 43.7604C197.927 44.9551 197.33 45.6378 197.159 45.8084C196.988 45.8084 196.732 45.5098 196.391 44.9124C196.05 44.2298 195.879 43.7178 195.879 43.3764C196.22 42.7791 196.946 41.8404 198.055 40.5604C199.164 39.2804 200.487 37.9578 202.023 36.5924C203.559 35.2271 205.18 34.0751 206.887 33.1364C208.594 32.1124 210.172 31.6004 211.623 31.6004C212.988 31.6004 214.14 32.2404 215.079 33.5204C216.103 34.7151 216.615 36.2511 216.615 38.1284C216.615 38.6404 216.53 39.5364 216.359 40.8164C216.188 42.0964 215.975 43.4191 215.719 44.7844L209.319 72.6884C209.234 73.2858 209.106 74.0538 208.935 74.9924C208.85 75.8458 208.807 76.4431 208.807 76.7844C208.807 77.3818 208.85 78.0644 208.935 78.8324C209.106 79.5151 209.49 79.8564 210.087 79.8564C211.026 79.8564 212.135 79.3018 213.415 78.1924C214.78 76.9978 215.975 75.8031 216.999 74.6084C218.108 73.4138 218.706 72.7738 218.791 72.6884C218.962 72.6884 219.218 72.9871 219.559 73.5844C219.9 74.0964 220.071 74.5658 220.071 74.9924C219.73 75.5898 218.962 76.5284 217.767 77.8084C216.572 79.0884 215.164 80.4111 213.543 81.7764C211.922 83.1418 210.215 84.3364 208.423 85.3604C206.716 86.2991 205.138 86.7684 203.687 86.7684C202.322 86.7684 201.255 86.1711 200.487 84.9764C199.804 83.6964 199.463 82.1178 199.463 80.2404C199.463 79.7284 199.548 78.8324 199.719 77.5524C199.89 76.2724 200.103 74.9498 200.359 73.5844L206.631 45.6804ZM213.799 5.23242C215.164 5.23242 216.231 5.74442 216.999 6.76842C217.852 7.70709 218.279 8.85909 218.279 10.2244C218.279 12.1018 217.639 13.8511 216.359 15.4724C215.079 17.0084 213.458 17.7764 211.495 17.7764C210.13 17.7764 209.063 17.2218 208.295 16.1124C207.612 15.0031 207.271 13.7658 207.271 12.4004C207.271 10.5231 207.868 8.85909 209.063 7.40842C210.343 5.95776 211.922 5.23242 213.799 5.23242Z" fill="white"/>
<path d="M186.831 31.5996C188.196 31.5996 189.391 31.8983 190.415 32.4956C191.524 33.0076 192.378 33.6049 192.975 34.2876C193.658 35.1409 193.999 36.2929 193.999 37.7436C193.999 39.3649 193.615 40.6876 192.847 41.7116C192.079 42.7356 190.97 43.2476 189.519 43.2476C188.154 43.2476 186.916 42.6076 185.807 41.3276C185.295 40.7303 184.442 40.4316 183.247 40.4316C182.138 40.4316 180.73 41.3703 179.023 43.2476C177.316 45.1249 175.567 47.5996 173.775 50.6716C172.068 53.7436 170.49 57.0716 169.039 60.6556C167.588 64.1543 166.564 67.5249 165.967 70.7676L163.151 85.9996C161.786 86.2556 160.378 86.3836 158.927 86.3836C157.391 86.3836 155.855 86.2556 154.319 85.9996L161.743 45.6796C161.828 45.2529 161.914 44.5703 161.999 43.6316C162.17 42.6076 162.255 41.9249 162.255 41.5836C162.255 41.4983 162.255 41.4129 162.255 41.3276C162.255 40.7303 162.212 40.1329 162.127 39.5356C162.042 38.8529 161.7 38.5116 161.103 38.5116C160.25 38.5116 159.14 39.1089 157.775 40.3036C156.41 41.4129 155.172 42.5649 154.063 43.7596C153.039 44.9543 152.442 45.6369 152.271 45.8076C152.1 45.8076 151.844 45.5089 151.503 44.9116C151.247 44.2289 151.119 43.7169 151.119 43.3756C151.46 42.7783 152.186 41.8396 153.295 40.5596C154.404 39.2796 155.727 37.9569 157.263 36.5916C158.799 35.2263 160.42 34.0743 162.127 33.1356C163.834 32.1116 165.412 31.5996 166.863 31.5996C168.228 31.5996 169.38 32.2396 170.319 33.5196C171.258 34.7143 171.727 36.2503 171.727 38.1276C171.727 38.6396 171.599 39.5356 171.343 40.8156C171.172 42.0956 170.959 43.4183 170.703 44.7836C170.362 46.8316 170.02 48.5809 169.679 50.0316C169.338 51.4823 168.954 53.2316 168.527 55.2796C169.38 53.2316 170.532 50.8849 171.983 48.2396C173.434 45.5089 175.012 42.9063 176.719 40.4316C178.511 37.8716 180.26 35.7809 181.967 34.1596C183.759 32.4529 185.38 31.5996 186.831 31.5996Z" fill="white"/>
<path d="M142.456 31.5996C143.821 31.5996 145.016 31.8983 146.04 32.4956C147.149 33.0076 148.003 33.6049 148.6 34.2876C149.283 35.1409 149.624 36.2929 149.624 37.7436C149.624 39.3649 149.24 40.6876 148.472 41.7116C147.704 42.7356 146.595 43.2476 145.144 43.2476C143.779 43.2476 142.541 42.6076 141.432 41.3276C140.92 40.7303 140.067 40.4316 138.872 40.4316C137.763 40.4316 136.355 41.3703 134.648 43.2476C132.941 45.1249 131.192 47.5996 129.4 50.6716C127.693 53.7436 126.115 57.0716 124.664 60.6556C123.213 64.1543 122.189 67.5249 121.592 70.7676L118.776 85.9996C117.411 86.2556 116.003 86.3836 114.552 86.3836C113.016 86.3836 111.48 86.2556 109.944 85.9996L117.368 45.6796C117.453 45.2529 117.539 44.5703 117.624 43.6316C117.795 42.6076 117.88 41.9249 117.88 41.5836C117.88 41.4983 117.88 41.4129 117.88 41.3276C117.88 40.7303 117.837 40.1329 117.752 39.5356C117.667 38.8529 117.325 38.5116 116.728 38.5116C115.875 38.5116 114.765 39.1089 113.4 40.3036C112.035 41.4129 110.797 42.5649 109.688 43.7596C108.664 44.9543 108.067 45.6369 107.896 45.8076C107.725 45.8076 107.469 45.5089 107.128 44.9116C106.872 44.2289 106.744 43.7169 106.744 43.3756C107.085 42.7783 107.811 41.8396 108.92 40.5596C110.029 39.2796 111.352 37.9569 112.888 36.5916C114.424 35.2263 116.045 34.0743 117.752 33.1356C119.459 32.1116 121.037 31.5996 122.488 31.5996C123.853 31.5996 125.005 32.2396 125.944 33.5196C126.883 34.7143 127.352 36.2503 127.352 38.1276C127.352 38.6396 127.224 39.5356 126.968 40.8156C126.797 42.0956 126.584 43.4183 126.328 44.7836C125.987 46.8316 125.645 48.5809 125.304 50.0316C124.963 51.4823 124.579 53.2316 124.152 55.2796C125.005 53.2316 126.157 50.8849 127.608 48.2396C129.059 45.5089 130.637 42.9063 132.344 40.4316C134.136 37.8716 135.885 35.7809 137.592 34.1596C139.384 32.4529 141.005 31.5996 142.456 31.5996Z" fill="white"/>
<path d="M79.2872 73.5836C79.7139 71.4503 80.0979 69.6583 80.4392 68.2076C80.7805 66.6716 81.1645 64.8369 81.5912 62.7036C80.8232 64.4956 79.4579 66.7143 77.4952 69.3596C75.5325 72.0049 73.3139 74.6929 70.8392 77.4236C68.3645 80.0689 65.8472 82.2876 63.2872 84.0796C60.7272 85.8716 58.4232 86.7676 56.3752 86.7676C53.9859 86.7676 52.3645 85.8716 51.5112 84.0796C50.6579 82.2876 50.2312 80.1969 50.2312 77.8076C50.2312 76.1009 50.4019 73.9676 50.7432 71.4076C51.1699 68.8476 51.5539 66.6716 51.8952 64.8796L56.1192 45.6796C56.2045 45.2529 56.2899 44.5703 56.3752 43.6316C56.4605 42.6076 56.5032 41.9249 56.5032 41.5836C56.5032 41.4983 56.5032 41.4129 56.5032 41.3276C56.5032 40.7303 56.4605 40.1329 56.3752 39.5356C56.2899 38.8529 55.9485 38.5116 55.3512 38.5116C54.4979 38.5116 53.3885 39.1089 52.0232 40.3036C50.6579 41.4129 49.4205 42.5649 48.3112 43.7596C47.2872 44.9543 46.6899 45.6369 46.5192 45.8076C46.3485 45.8076 46.0925 45.5089 45.7512 44.9116C45.4952 44.2289 45.3672 43.7169 45.3672 43.3756C45.7085 42.7783 46.4339 41.8396 47.5432 40.5596C48.6525 39.2796 49.9752 37.9569 51.5112 36.5916C53.0472 35.2263 54.6685 34.0743 56.3752 33.1356C58.0819 32.1116 59.6605 31.5996 61.1112 31.5996C62.4765 31.5996 63.6285 32.2396 64.5672 33.5196C65.5059 34.7143 65.9752 36.2503 65.9752 38.1276C65.9752 38.6396 65.8899 39.5356 65.7192 40.8156C65.5485 42.0956 65.3352 43.4183 65.0792 44.7836L60.7272 65.3916C60.6419 65.9889 60.4712 67.0983 60.2152 68.7196C59.9592 70.3409 59.8312 71.4929 59.8312 72.1756C59.8312 73.5409 59.9165 74.7783 60.0872 75.8876C60.3432 76.9969 61.0259 77.5516 62.1352 77.5516C63.2445 77.5516 64.8659 76.6556 66.9992 74.8636C69.1325 73.0716 71.3939 70.6823 73.7832 67.6956C76.2579 64.6236 78.4765 61.2529 80.4392 57.5836C82.4019 53.8289 83.7672 49.9889 84.5352 46.0636C85.0472 43.5036 85.5165 41.2423 85.9432 39.2796C86.3699 37.3169 86.8392 35.0129 87.3512 32.3676C88.4605 32.0263 89.7405 31.8556 91.1912 31.8556C91.8739 31.8556 92.6419 31.8983 93.4952 31.9836C94.4339 32.0689 95.2872 32.1969 96.0552 32.3676L88.2472 72.6876C88.1619 73.2849 88.0765 74.0529 87.9912 74.9916C87.9059 75.8449 87.8632 76.4423 87.8632 76.7836C87.8632 76.8689 87.8632 76.9543 87.8632 77.0396C87.8632 77.6369 87.9059 78.2769 87.9912 78.9596C88.0765 79.5569 88.4179 79.8556 89.0152 79.8556C89.9539 79.8556 91.0632 79.3009 92.3432 78.1916C93.7085 76.9969 94.9459 75.8023 96.0552 74.6076C97.1645 73.4129 97.7619 72.7729 97.8472 72.6876C98.0179 72.6876 98.2312 72.9863 98.4872 73.5836C98.8285 74.0956 98.9992 74.5649 98.9992 74.9916C98.6579 75.5889 97.8899 76.5276 96.6952 77.8076C95.5859 79.0876 94.2205 80.4103 92.5992 81.7756C90.9779 83.1409 89.2712 84.3356 87.4792 85.3596C85.7725 86.2983 84.1939 86.7676 82.7432 86.7676C81.3779 86.7676 80.3112 86.1703 79.5432 84.9756C78.7752 83.6956 78.3912 82.1169 78.3912 80.2396C78.3912 79.7276 78.4765 78.8316 78.6472 77.5516C78.8178 76.2716 79.0312 74.9489 79.2872 73.5836Z" fill="white"/>
<path d="M32.488 31.5996C34.4507 31.5996 35.9867 31.9836 37.096 32.7516C38.2907 33.4343 39.3147 34.1169 40.168 34.7996C40.3387 35.0556 40.552 35.5249 40.808 36.2076C41.1493 36.8049 41.32 37.4449 41.32 38.1276C41.32 39.4929 40.9787 40.7729 40.296 41.9676C39.6133 43.1623 38.5467 43.7596 37.096 43.7596C35.1333 43.7596 33.64 42.9063 32.616 41.1996C32.0187 40.1756 31.208 39.1943 30.184 38.2556C29.2453 37.2316 27.88 36.7196 26.088 36.7196C23.784 36.7196 21.4373 37.9996 19.048 40.5596C16.744 43.0343 14.7813 46.4476 13.16 50.7996C11.624 55.1516 10.856 60.1436 10.856 65.7756C10.856 67.2263 11.0267 69.0183 11.368 71.1516C11.7093 73.2849 12.4773 75.2049 13.672 76.9116C14.8667 78.5329 16.7867 79.3436 19.432 79.3436C20.8827 79.3436 22.3333 78.9596 23.784 78.1916C25.2347 77.3383 26.6 76.3569 27.88 75.2476C29.16 74.1383 30.184 73.1569 30.952 72.3036C31.8053 71.3649 32.2747 70.8529 32.36 70.7676C32.5307 70.7676 32.7867 71.0663 33.128 71.6636C33.5547 72.2609 33.768 72.7729 33.768 73.1996C33.4267 73.7969 32.616 74.8209 31.336 76.2716C30.1413 77.7223 28.648 79.2583 26.856 80.8796C25.064 82.5009 23.1013 83.9089 20.968 85.1036C18.92 86.2129 16.9147 86.7676 14.952 86.7676C10.5147 86.7676 7.05867 85.1889 4.584 82.0316C2.19467 78.7889 1 74.2663 1 68.4636C1 63.4289 1.98133 58.6929 3.944 54.2556C5.992 49.8183 8.63733 45.9356 11.88 42.6076C15.1227 39.1943 18.536 36.5063 22.12 34.5436C25.7893 32.5809 29.2453 31.5996 32.488 31.5996Z" fill="white"/>
</svg>
