<svg width="508" height="87" viewBox="0 0 508 87" fill="none" xmlns="http://www.w3.org/2000/svg">
<path d="M427.873 31.5996C431.115 31.5996 433.291 32.4529 434.401 34.1596C435.51 35.7809 436.065 37.5303 436.065 39.4076C436.065 41.7969 435.297 44.1009 433.761 46.3196C432.31 48.5383 430.347 50.6289 427.873 52.5916C425.483 54.4689 422.923 56.1329 420.193 57.5836C417.547 58.9489 414.987 60.0156 412.513 60.7836C410.038 61.5516 408.033 61.9356 406.497 61.9356C406.411 62.1063 406.326 62.7463 406.241 63.8556C406.241 64.8796 406.241 65.5623 406.241 65.9036C406.241 69.7436 406.881 72.9436 408.161 75.5036C409.441 78.0636 411.659 79.3436 414.817 79.3436C416.267 79.3436 417.718 78.9596 419.169 78.1916C420.619 77.3383 421.985 76.3569 423.265 75.2476C424.545 74.1383 425.569 73.1569 426.337 72.3036C427.19 71.3649 427.659 70.8529 427.745 70.7676C427.915 70.7676 428.171 71.0663 428.513 71.6636C428.939 72.2609 429.153 72.7729 429.153 73.1996C428.726 73.8823 427.873 74.9489 426.593 76.3996C425.313 77.8503 423.777 79.3863 421.985 81.0076C420.193 82.6289 418.273 83.9943 416.225 85.1036C414.177 86.2129 412.171 86.7676 410.209 86.7676C405.771 86.7676 402.358 85.1889 399.969 82.0316C397.579 78.8743 396.385 74.3943 396.385 68.5916C396.385 63.9836 397.323 59.4609 399.201 55.0236C401.163 50.5863 403.681 46.6183 406.753 43.1196C409.825 39.6209 413.195 36.8476 416.865 34.7996C420.619 32.6663 424.289 31.5996 427.873 31.5996ZM406.753 58.7356C407.947 58.7356 409.654 58.3089 411.873 57.4556C414.091 56.5169 416.353 55.2796 418.657 53.7436C420.961 52.1223 422.881 50.2876 424.417 48.2396C426.038 46.1916 426.849 44.0156 426.849 41.7116C426.849 40.0049 426.251 38.7676 425.057 37.9996C423.947 37.1463 422.795 36.7196 421.601 36.7196C419.467 36.7196 417.505 37.5729 415.713 39.2796C414.006 40.9009 412.513 42.9489 411.233 45.4236C409.953 47.8129 408.929 50.2449 408.161 52.7196C407.393 55.1089 406.923 57.1143 406.753 58.7356Z" fill="white"/>
<path d="M379.961 16.1122C380.217 14.9175 380.473 13.6802 380.729 12.4002C380.985 11.1202 381.113 10.1388 381.113 9.45616C381.113 8.68816 380.643 8.1335 379.705 7.79217C378.766 7.45083 377.699 7.28017 376.505 7.28017C375.395 7.19483 374.457 7.15216 373.689 7.15216C373.603 7.15216 373.518 7.15216 373.433 7.15216C373.262 6.89616 373.219 6.4695 373.305 5.87216C373.475 5.1895 373.689 4.72017 373.945 4.46416C377.443 4.12283 380.729 3.48283 383.801 2.54417C386.873 1.6055 389.091 0.880163 390.457 0.368164C390.798 0.538829 391.011 0.880163 391.097 1.39217C391.182 1.90416 391.225 2.3735 391.225 2.80016C391.225 3.31216 391.011 4.63483 390.585 6.76817C390.243 8.81616 389.902 10.6082 389.561 12.1442L377.657 72.6882C377.571 72.9442 377.443 73.6268 377.273 74.7362C377.187 75.7602 377.145 76.4428 377.145 76.7842C377.145 77.3815 377.187 78.0642 377.273 78.8322C377.443 79.5148 377.827 79.8562 378.425 79.8562C379.363 79.8562 380.473 79.3015 381.753 78.1922C383.118 76.9975 384.355 75.8028 385.465 74.6082C386.574 73.4135 387.171 72.7735 387.257 72.6882C387.427 72.6882 387.641 72.9868 387.897 73.5842C388.238 74.0962 388.409 74.5655 388.409 74.9922C388.067 75.5895 387.299 76.5282 386.105 77.8082C384.91 79.0882 383.502 80.4108 381.881 81.7762C380.259 83.1415 378.553 84.3362 376.761 85.3602C375.054 86.2988 373.475 86.7682 372.025 86.7682C370.659 86.7682 369.593 86.1708 368.825 84.9762C368.142 83.6962 367.801 82.1175 367.801 80.2402C367.801 79.7282 367.886 78.8322 368.057 77.5522C368.227 76.2722 368.441 74.9495 368.697 73.5842L379.961 16.1122Z" fill="white"/>
<path d="M327.614 50.4162C330.516 45.5522 333.374 41.7548 336.19 39.0242C339.092 36.2935 341.694 34.3735 343.998 33.2642C346.388 32.1548 348.222 31.6002 349.502 31.6002C352.404 31.6002 354.58 32.9228 356.03 35.5682C357.481 38.1282 358.206 41.5415 358.206 45.8082C358.206 51.4402 357.182 56.7308 355.134 61.6802C353.172 66.6295 350.612 70.9815 347.454 74.7362C344.297 78.4908 340.884 81.4348 337.214 83.5682C333.545 85.7015 330.046 86.7682 326.718 86.7682C323.22 86.7682 320.404 85.4882 318.27 82.9282C316.137 80.3682 315.07 76.7842 315.07 72.1762C315.07 71.4935 315.156 70.5548 315.326 69.3602C315.582 68.0802 315.753 67.0562 315.838 66.2882L325.694 16.1122C325.95 14.9175 326.206 13.6802 326.462 12.4002C326.718 11.1202 326.846 10.1388 326.846 9.45616C326.846 8.68816 326.377 8.1335 325.438 7.79217C324.5 7.45083 323.433 7.28017 322.238 7.28017C321.129 7.19483 320.19 7.15216 319.422 7.15216C319.337 7.15216 319.252 7.15216 319.166 7.15216C318.996 6.89616 318.953 6.4695 319.038 5.87216C319.209 5.1895 319.422 4.72017 319.678 4.46416C323.177 4.12283 326.462 3.48283 329.534 2.54417C332.606 1.6055 334.825 0.880163 336.19 0.368164C336.532 0.538829 336.745 0.880163 336.83 1.39217C336.916 1.90416 336.958 2.3735 336.958 2.80016C336.958 3.31216 336.745 4.63483 336.318 6.76817C335.977 8.81616 335.636 10.6082 335.294 12.1442L327.614 50.4162ZM344.126 38.5122C342.761 38.5122 341.097 39.3228 339.134 40.9442C337.257 42.5655 335.294 44.7415 333.246 47.4722C331.284 50.1175 329.492 53.1042 327.87 56.4322C326.249 59.7602 325.097 63.1308 324.414 66.5442C323.39 71.5788 323.348 75.5468 324.286 78.4482C325.31 81.2642 327.273 82.6722 330.174 82.6722C332.308 82.6722 334.313 81.8188 336.19 80.1122C338.068 78.4055 339.774 76.1868 341.31 73.4562C342.846 70.7255 344.169 67.8242 345.278 64.7522C346.473 61.5948 347.369 58.5655 347.966 55.6642C348.649 52.7628 348.99 50.2882 348.99 48.2402C348.99 45.9362 348.734 43.7602 348.222 41.7122C347.71 39.5788 346.345 38.5122 344.126 38.5122Z" fill="white"/>
<path d="M274.114 50.4162C277.016 45.5522 279.874 41.7548 282.69 39.0242C285.592 36.2935 288.194 34.3735 290.498 33.2642C292.888 32.1548 294.722 31.6002 296.002 31.6002C298.904 31.6002 301.08 32.9228 302.53 35.5682C303.981 38.1282 304.706 41.5415 304.706 45.8082C304.706 51.4402 303.682 56.7308 301.634 61.6802C299.672 66.6295 297.112 70.9815 293.954 74.7362C290.797 78.4908 287.384 81.4348 283.714 83.5682C280.045 85.7015 276.546 86.7682 273.218 86.7682C269.72 86.7682 266.904 85.4882 264.77 82.9282C262.637 80.3682 261.57 76.7842 261.57 72.1762C261.57 71.4935 261.656 70.5548 261.826 69.3602C262.082 68.0802 262.253 67.0562 262.338 66.2882L272.194 16.1122C272.45 14.9175 272.706 13.6802 272.962 12.4002C273.218 11.1202 273.346 10.1388 273.346 9.45616C273.346 8.68816 272.877 8.1335 271.938 7.79217C271 7.45083 269.933 7.28017 268.738 7.28017C267.629 7.19483 266.69 7.15216 265.922 7.15216C265.837 7.15216 265.752 7.15216 265.666 7.15216C265.496 6.89616 265.453 6.4695 265.538 5.87216C265.709 5.1895 265.922 4.72017 266.178 4.46416C269.677 4.12283 272.962 3.48283 276.034 2.54417C279.106 1.6055 281.325 0.880163 282.69 0.368164C283.032 0.538829 283.245 0.880163 283.33 1.39217C283.416 1.90416 283.458 2.3735 283.458 2.80016C283.458 3.31216 283.245 4.63483 282.818 6.76817C282.477 8.81616 282.136 10.6082 281.794 12.1442L274.114 50.4162ZM290.626 38.5122C289.261 38.5122 287.597 39.3228 285.634 40.9442C283.757 42.5655 281.794 44.7415 279.746 47.4722C277.784 50.1175 275.992 53.1042 274.37 56.4322C272.749 59.7602 271.597 63.1308 270.914 66.5442C269.89 71.5788 269.848 75.5468 270.786 78.4482C271.81 81.2642 273.773 82.6722 276.674 82.6722C278.808 82.6722 280.813 81.8188 282.69 80.1122C284.568 78.4055 286.274 76.1868 287.81 73.4562C289.346 70.7255 290.669 67.8242 291.778 64.7522C292.973 61.5948 293.869 58.5655 294.466 55.6642C295.149 52.7628 295.49 50.2882 295.49 48.2402C295.49 45.9362 295.234 43.7602 294.722 41.7122C294.21 39.5788 292.845 38.5122 290.626 38.5122Z" fill="white"/>
<path d="M220.614 50.4162C223.516 45.5522 226.374 41.7548 229.19 39.0242C232.092 36.2935 234.694 34.3735 236.998 33.2642C239.388 32.1548 241.222 31.6002 242.502 31.6002C245.404 31.6002 247.58 32.9228 249.03 35.5682C250.481 38.1282 251.206 41.5415 251.206 45.8082C251.206 51.4402 250.182 56.7308 248.134 61.6802C246.172 66.6295 243.612 70.9815 240.454 74.7362C237.297 78.4908 233.884 81.4348 230.214 83.5682C226.545 85.7015 223.046 86.7682 219.718 86.7682C216.22 86.7682 213.404 85.4882 211.27 82.9282C209.137 80.3682 208.07 76.7842 208.07 72.1762C208.07 71.4935 208.156 70.5548 208.326 69.3602C208.582 68.0802 208.753 67.0562 208.838 66.2882L218.694 16.1122C218.95 14.9175 219.206 13.6802 219.462 12.4002C219.718 11.1202 219.846 10.1388 219.846 9.45616C219.846 8.68816 219.377 8.1335 218.438 7.79217C217.5 7.45083 216.433 7.28017 215.238 7.28017C214.129 7.19483 213.19 7.15216 212.422 7.15216C212.337 7.15216 212.252 7.15216 212.166 7.15216C211.996 6.89616 211.953 6.4695 212.038 5.87216C212.209 5.1895 212.422 4.72017 212.678 4.46416C216.177 4.12283 219.462 3.48283 222.534 2.54417C225.606 1.6055 227.825 0.880163 229.19 0.368164C229.532 0.538829 229.745 0.880163 229.83 1.39217C229.916 1.90416 229.958 2.3735 229.958 2.80016C229.958 3.31216 229.745 4.63483 229.318 6.76817C228.977 8.81616 228.636 10.6082 228.294 12.1442L220.614 50.4162ZM237.126 38.5122C235.761 38.5122 234.097 39.3228 232.134 40.9442C230.257 42.5655 228.294 44.7415 226.246 47.4722C224.284 50.1175 222.492 53.1042 220.87 56.4322C219.249 59.7602 218.097 63.1308 217.414 66.5442C216.39 71.5788 216.348 75.5468 217.286 78.4482C218.31 81.2642 220.273 82.6722 223.174 82.6722C225.308 82.6722 227.313 81.8188 229.19 80.1122C231.068 78.4055 232.774 76.1868 234.31 73.4562C235.846 70.7255 237.169 67.8242 238.278 64.7522C239.473 61.5948 240.369 58.5655 240.966 55.6642C241.649 52.7628 241.99 50.2882 241.99 48.2402C241.99 45.9362 241.734 43.7602 241.222 41.7122C240.71 39.5788 239.345 38.5122 237.126 38.5122Z" fill="white"/>
<path d="M183.893 45.6804C183.978 45.2538 184.063 44.5711 184.149 43.6324C184.319 42.6084 184.405 41.9258 184.405 41.5844C184.405 41.4991 184.405 41.4138 184.405 41.3284C184.405 40.7311 184.362 40.1338 184.277 39.5364C184.191 38.8538 183.85 38.5124 183.253 38.5124C182.399 38.5124 181.29 39.1098 179.925 40.3044C178.559 41.4138 177.322 42.5658 176.213 43.7604C175.189 44.9551 174.591 45.6378 174.421 45.8084C174.25 45.8084 173.994 45.5098 173.653 44.9124C173.311 44.2298 173.141 43.7178 173.141 43.3764C173.482 42.7791 174.207 41.8404 175.317 40.5604C176.426 39.2804 177.749 37.9578 179.285 36.5924C180.821 35.2271 182.442 34.0751 184.149 33.1364C185.855 32.1124 187.434 31.6004 188.885 31.6004C190.25 31.6004 191.402 32.2404 192.341 33.5204C193.365 34.7151 193.877 36.2511 193.877 38.1284C193.877 38.6404 193.791 39.5364 193.621 40.8164C193.45 42.0964 193.237 43.4191 192.981 44.7844L186.581 72.6884C186.495 73.2858 186.367 74.0538 186.197 74.9924C186.111 75.8458 186.069 76.4431 186.069 76.7844C186.069 77.3818 186.111 78.0644 186.197 78.8324C186.367 79.5151 186.751 79.8564 187.349 79.8564C188.287 79.8564 189.397 79.3018 190.677 78.1924C192.042 76.9978 193.237 75.8031 194.261 74.6084C195.37 73.4138 195.967 72.7738 196.053 72.6884C196.223 72.6884 196.479 72.9871 196.821 73.5844C197.162 74.0964 197.333 74.5658 197.333 74.9924C196.991 75.5898 196.223 76.5284 195.029 77.8084C193.834 79.0884 192.426 80.4111 190.805 81.7764C189.183 83.1418 187.477 84.3364 185.685 85.3604C183.978 86.2991 182.399 86.7684 180.949 86.7684C179.583 86.7684 178.517 86.1711 177.749 84.9764C177.066 83.6964 176.725 82.1178 176.725 80.2404C176.725 79.7284 176.81 78.8324 176.981 77.5524C177.151 76.2724 177.365 74.9498 177.621 73.5844L183.893 45.6804ZM191.061 5.23242C192.426 5.23242 193.493 5.74442 194.261 6.76842C195.114 7.70709 195.541 8.85909 195.541 10.2244C195.541 12.1018 194.901 13.8511 193.621 15.4724C192.341 17.0084 190.719 17.7764 188.757 17.7764C187.391 17.7764 186.325 17.2218 185.557 16.1124C184.874 15.0031 184.533 13.7658 184.533 12.4004C184.533 10.5231 185.13 8.85909 186.325 7.40842C187.605 5.95776 189.183 5.23242 191.061 5.23242Z" fill="white"/>
<path d="M164.093 31.5996C165.458 31.5996 166.653 31.8983 167.677 32.4956C168.786 33.0076 169.64 33.6049 170.237 34.2876C170.92 35.1409 171.261 36.2929 171.261 37.7436C171.261 39.3649 170.877 40.6876 170.109 41.7116C169.341 42.7356 168.232 43.2476 166.781 43.2476C165.416 43.2476 164.178 42.6076 163.069 41.3276C162.557 40.7303 161.704 40.4316 160.509 40.4316C159.4 40.4316 157.992 41.3703 156.285 43.2476C154.578 45.1249 152.829 47.5996 151.037 50.6716C149.33 53.7436 147.752 57.0716 146.301 60.6556C144.85 64.1543 143.826 67.5249 143.229 70.7676L140.413 85.9996C139.048 86.2556 137.64 86.3836 136.189 86.3836C134.653 86.3836 133.117 86.2556 131.581 85.9996L139.005 45.6796C139.09 45.2529 139.176 44.5703 139.261 43.6316C139.432 42.6076 139.517 41.9249 139.517 41.5836C139.517 41.4983 139.517 41.4129 139.517 41.3276C139.517 40.7303 139.474 40.1329 139.389 39.5356C139.304 38.8529 138.962 38.5116 138.365 38.5116C137.512 38.5116 136.402 39.1089 135.037 40.3036C133.672 41.4129 132.434 42.5649 131.325 43.7596C130.301 44.9543 129.704 45.6369 129.533 45.8076C129.362 45.8076 129.106 45.5089 128.765 44.9116C128.509 44.2289 128.381 43.7169 128.381 43.3756C128.722 42.7783 129.448 41.8396 130.557 40.5596C131.666 39.2796 132.989 37.9569 134.525 36.5916C136.061 35.2263 137.682 34.0743 139.389 33.1356C141.096 32.1116 142.674 31.5996 144.125 31.5996C145.49 31.5996 146.642 32.2396 147.581 33.5196C148.52 34.7143 148.989 36.2503 148.989 38.1276C148.989 38.6396 148.861 39.5356 148.605 40.8156C148.434 42.0956 148.221 43.4183 147.965 44.7836C147.624 46.8316 147.282 48.5809 146.941 50.0316C146.6 51.4823 146.216 53.2316 145.789 55.2796C146.642 53.2316 147.794 50.8849 149.245 48.2396C150.696 45.5089 152.274 42.9063 153.981 40.4316C155.773 37.8716 157.522 35.7809 159.229 34.1596C161.021 32.4529 162.642 31.5996 164.093 31.5996Z" fill="white"/>
<path d="M111.936 16.1122C112.107 14.9175 112.32 13.6802 112.576 12.4002C112.917 11.1202 113.088 10.1388 113.088 9.45616C113.088 8.68816 112.619 8.1335 111.68 7.79217C110.741 7.45083 109.675 7.28017 108.48 7.28017C107.371 7.19483 106.432 7.15216 105.664 7.15216C105.579 7.15216 105.493 7.15216 105.408 7.15216C105.237 6.89616 105.195 6.4695 105.28 5.87216C105.451 5.1895 105.664 4.72017 105.92 4.46416C109.419 4.12283 112.704 3.48283 115.776 2.54417C118.848 1.6055 121.067 0.880163 122.432 0.368164C122.773 0.538829 122.987 0.880163 123.072 1.39217C123.157 1.90416 123.2 2.3735 123.2 2.80016C123.2 3.31216 122.987 4.63483 122.56 6.76817C122.219 8.81616 121.877 10.6082 121.536 12.1442L109.76 72.6882C109.675 72.9442 109.589 73.6268 109.504 74.7362C109.419 75.8455 109.376 76.5708 109.376 76.9122C109.376 76.9975 109.376 77.0828 109.376 77.1682C109.376 77.7655 109.419 78.3628 109.504 78.9602C109.589 79.5575 109.931 79.8562 110.528 79.8562C111.467 79.8562 112.576 79.3015 113.856 78.1922C115.221 76.9975 116.459 75.8028 117.568 74.6082C118.677 73.4135 119.275 72.7735 119.36 72.6882C119.531 72.6882 119.744 72.9868 120 73.5842C120.341 74.0962 120.512 74.5655 120.512 74.9922C120.171 75.5895 119.403 76.5282 118.208 77.8082C117.099 79.0882 115.733 80.4108 114.112 81.7762C112.491 83.1415 110.784 84.3362 108.992 85.3602C107.285 86.2988 105.707 86.7682 104.256 86.7682C102.891 86.7682 101.824 86.1708 101.056 84.9762C100.288 83.6962 99.904 82.1175 99.904 80.2402C99.904 79.7282 99.9893 78.8322 100.16 77.5522C100.331 76.2722 100.544 74.9495 100.8 73.5842C101.056 72.3895 101.184 71.5788 101.184 71.1522C101.269 70.6402 101.355 70.1708 101.44 69.7442C100.928 70.6828 100.032 72.0908 98.752 73.9682C97.5573 75.7602 96.064 77.6375 94.272 79.6002C92.48 81.5628 90.6027 83.2268 88.64 84.5922C86.6773 85.9575 84.7573 86.6402 82.88 86.6402C80.32 86.6402 78.2293 85.9148 76.608 84.4642C74.9867 82.9282 73.792 81.0082 73.024 78.7042C72.3413 76.3148 72 73.9255 72 71.5362C72 66.6722 73.0667 61.8935 75.2 57.2002C77.3333 52.4215 80.1493 48.1122 83.648 44.2722C87.1467 40.4322 90.944 37.3602 95.04 35.0562C99.2213 32.7522 103.36 31.6002 107.456 31.6002H109.12L111.936 16.1122ZM106.56 43.3762C106.816 41.9255 106.56 40.4322 105.792 38.8962C105.109 37.3602 103.915 36.5922 102.208 36.5922C99.648 36.5922 97.1307 37.5308 94.656 39.4082C92.1813 41.2002 89.92 43.5895 87.872 46.5762C85.9093 49.5628 84.288 52.8908 83.008 56.5602C81.8133 60.1442 81.216 63.7282 81.216 67.3122C81.216 70.7255 81.6853 73.5842 82.624 75.8882C83.648 78.1922 85.312 79.3442 87.616 79.3442C89.2373 79.3442 90.9013 78.4908 92.608 76.7842C94.4 74.9922 96.1067 72.7308 97.728 70.0002C99.4347 67.1842 100.928 64.1548 102.208 60.9122C103.488 57.6695 104.427 54.5122 105.024 51.4402L106.56 43.3762Z" fill="white"/>
</svg>
