<svg width="508" height="87" viewBox="0 0 508 87" fill="none" xmlns="http://www.w3.org/2000/svg">
<path d="M389.576 16.1122C389.832 14.9175 390.088 13.6802 390.344 12.4002C390.6 11.1202 390.728 10.1388 390.728 9.45616C390.728 8.68816 390.259 8.1335 389.32 7.79217C388.381 7.45083 387.315 7.28017 386.12 7.28017C385.011 7.19483 384.072 7.15216 383.304 7.15216C383.219 7.15216 383.133 7.15216 383.048 7.15216C382.877 6.89616 382.835 6.4695 382.92 5.87216C383.091 5.1895 383.304 4.72017 383.56 4.46416C387.059 4.12283 390.344 3.48283 393.416 2.54417C396.488 1.6055 398.707 0.880163 400.072 0.368164C400.413 0.538829 400.627 0.880163 400.712 1.39217C400.797 1.90416 400.84 2.3735 400.84 2.80016C400.84 3.31216 400.627 4.63483 400.2 6.76817C399.859 8.81616 399.517 10.6082 399.176 12.1442L387.272 72.6882C387.187 72.9442 387.059 73.6268 386.888 74.7362C386.803 75.7602 386.76 76.4428 386.76 76.7842C386.76 77.3815 386.803 78.0642 386.888 78.8322C387.059 79.5148 387.443 79.8562 388.04 79.8562C388.979 79.8562 390.088 79.3015 391.368 78.1922C392.733 76.9975 393.971 75.8028 395.08 74.6082C396.189 73.4135 396.787 72.7735 396.872 72.6882C397.043 72.6882 397.256 72.9868 397.512 73.5842C397.853 74.0962 398.024 74.5655 398.024 74.9922C397.683 75.5895 396.915 76.5282 395.72 77.8082C394.525 79.0882 393.117 80.4108 391.496 81.7762C389.875 83.1415 388.168 84.3362 386.376 85.3602C384.669 86.2988 383.091 86.7682 381.64 86.7682C380.275 86.7682 379.208 86.1708 378.44 84.9762C377.757 83.6962 377.416 82.1175 377.416 80.2402C377.416 79.7282 377.501 78.8322 377.672 77.5522C377.843 76.2722 378.056 74.9495 378.312 73.5842L389.576 16.1122Z" fill="white"/>
<path d="M354.008 45.6804C354.093 45.2538 354.179 44.5711 354.264 43.6324C354.435 42.6084 354.52 41.9258 354.52 41.5844C354.52 41.4991 354.52 41.4138 354.52 41.3284C354.52 40.7311 354.477 40.1338 354.392 39.5364C354.307 38.8538 353.965 38.5124 353.368 38.5124C352.515 38.5124 351.405 39.1098 350.04 40.3044C348.675 41.4138 347.437 42.5658 346.328 43.7604C345.304 44.9551 344.707 45.6378 344.536 45.8084C344.365 45.8084 344.109 45.5098 343.768 44.9124C343.427 44.2298 343.256 43.7178 343.256 43.3764C343.597 42.7791 344.323 41.8404 345.432 40.5604C346.541 39.2804 347.864 37.9578 349.4 36.5924C350.936 35.2271 352.557 34.0751 354.264 33.1364C355.971 32.1124 357.549 31.6004 359 31.6004C360.365 31.6004 361.517 32.2404 362.456 33.5204C363.48 34.7151 363.992 36.2511 363.992 38.1284C363.992 38.6404 363.907 39.5364 363.736 40.8164C363.565 42.0964 363.352 43.4191 363.096 44.7844L356.696 72.6884C356.611 73.2858 356.483 74.0538 356.312 74.9924C356.227 75.8458 356.184 76.4431 356.184 76.7844C356.184 77.3818 356.227 78.0644 356.312 78.8324C356.483 79.5151 356.867 79.8564 357.464 79.8564C358.403 79.8564 359.512 79.3018 360.792 78.1924C362.157 76.9978 363.352 75.8031 364.376 74.6084C365.485 73.4138 366.083 72.7738 366.168 72.6884C366.339 72.6884 366.595 72.9871 366.936 73.5844C367.277 74.0964 367.448 74.5658 367.448 74.9924C367.107 75.5898 366.339 76.5284 365.144 77.8084C363.949 79.0884 362.541 80.4111 360.92 81.7764C359.299 83.1418 357.592 84.3364 355.8 85.3604C354.093 86.2991 352.515 86.7684 351.064 86.7684C349.699 86.7684 348.632 86.1711 347.864 84.9764C347.181 83.6964 346.84 82.1178 346.84 80.2404C346.84 79.7284 346.925 78.8324 347.096 77.5524C347.267 76.2724 347.48 74.9498 347.736 73.5844L354.008 45.6804ZM361.176 5.23242C362.541 5.23242 363.608 5.74442 364.376 6.76842C365.229 7.70709 365.656 8.85909 365.656 10.2244C365.656 12.1018 365.016 13.8511 363.736 15.4724C362.456 17.0084 360.835 17.7764 358.872 17.7764C357.507 17.7764 356.44 17.2218 355.672 16.1124C354.989 15.0031 354.648 13.7658 354.648 12.4004C354.648 10.5231 355.245 8.85909 356.44 7.40842C357.72 5.95776 359.299 5.23242 361.176 5.23242Z" fill="white"/>
<path d="M322.202 31.5996C324.421 31.5996 326.298 31.7703 327.834 32.1116C329.37 32.4529 330.736 32.8369 331.93 33.2636L324.25 72.6876C324.165 73.1143 324.037 73.9249 323.866 75.1196C323.696 76.3143 323.653 77.4236 323.738 78.4476C323.909 79.3863 324.336 79.8556 325.018 79.8556C325.957 79.8556 327.066 79.3009 328.346 78.1916C329.712 76.9969 330.949 75.8023 332.058 74.6076C333.168 73.4129 333.765 72.7729 333.85 72.6876C334.021 72.6876 334.234 72.9863 334.49 73.5836C334.832 74.0956 335.002 74.5649 335.002 74.9916C334.661 75.5889 333.893 76.5276 332.698 77.8076C331.589 79.0876 330.224 80.4103 328.602 81.7756C326.981 83.1409 325.274 84.3356 323.482 85.3596C321.776 86.2983 320.197 86.7676 318.746 86.7676C317.381 86.7676 316.314 86.1703 315.546 84.9756C314.778 83.6956 314.394 82.1169 314.394 80.2396C314.394 79.7276 314.48 78.8316 314.65 77.5516C314.821 76.2716 315.034 74.9489 315.29 73.5836C315.461 72.3889 315.589 71.5783 315.674 71.1516C315.76 70.6396 315.845 70.1703 315.93 69.7436C315.333 70.8529 314.352 72.3463 312.986 74.2236C311.706 76.1009 310.213 77.9783 308.506 79.8556C306.8 81.7329 304.965 83.3543 303.002 84.7196C301.125 85.9996 299.29 86.6396 297.498 86.6396C294.085 86.6396 291.397 85.2743 289.434 82.5436C287.472 79.8129 286.49 76.2716 286.49 71.9196C286.49 66.4583 287.6 61.2956 289.818 56.4316C292.122 51.5676 295.066 47.3009 298.65 43.6316C302.234 39.8769 306.074 36.9329 310.17 34.7996C314.352 32.6663 318.362 31.5996 322.202 31.5996ZM316.442 36.5916C314.053 36.5916 311.621 37.4876 309.146 39.2796C306.757 41.0716 304.538 43.5036 302.49 46.5756C300.442 49.5623 298.778 52.8476 297.498 56.4316C296.304 60.0156 295.706 63.5996 295.706 67.1836C295.706 71.1089 296.218 74.1383 297.242 76.2716C298.352 78.3196 299.973 79.3436 302.106 79.3436C303.642 79.3436 305.306 78.4903 307.098 76.7836C308.89 75.0769 310.597 72.8583 312.218 70.1276C313.925 67.3116 315.418 64.2823 316.698 61.0396C317.978 57.7969 318.917 54.6823 319.514 51.6956L322.202 38.5116C321.605 37.8289 320.709 37.3596 319.514 37.1036C318.32 36.7623 317.296 36.5916 316.442 36.5916Z" fill="white"/>
<path d="M259.448 73.5836L263.8 52.9756C263.971 52.3783 264.141 51.2689 264.312 49.6476C264.568 48.0263 264.696 46.8743 264.696 46.1916C264.696 44.5703 264.568 43.2903 264.312 42.3516C264.141 41.3276 263.459 40.8156 262.264 40.8156C260.984 40.8156 259.277 41.7116 257.144 43.5036C255.011 45.2103 252.749 47.5143 250.36 50.4156C248.056 53.2316 245.965 56.3463 244.088 59.7596C242.296 63.0876 241.101 66.3303 240.504 69.4876L237.432 85.9996C236.579 86.0849 235.811 86.1703 235.128 86.2556C234.531 86.3409 233.763 86.3836 232.824 86.3836C231.971 86.3836 231.245 86.3409 230.648 86.2556C230.051 86.1703 229.325 86.0849 228.472 85.9996L235.384 50.5436C235.555 49.5196 235.683 48.6236 235.768 47.8556C235.853 47.0876 235.896 46.4049 235.896 45.8076C235.896 42.4796 235.085 40.8156 233.464 40.8156C232.099 40.8156 230.349 41.7969 228.216 43.7596C226.083 45.7223 223.864 48.2396 221.56 51.3116C219.341 54.3836 217.379 57.6689 215.672 61.1676C213.965 64.5809 212.771 67.7809 212.088 70.7676L208.888 85.9996C207.608 86.3409 206.115 86.5116 204.408 86.5116C203.555 86.5116 202.787 86.4263 202.104 86.2556C201.507 86.1703 200.824 86.0849 200.056 85.9996L208.248 45.6796C208.333 45.2529 208.419 44.5703 208.504 43.6316C208.675 42.6076 208.76 41.9249 208.76 41.5836C208.76 41.4983 208.76 41.4129 208.76 41.3276C208.76 40.7303 208.717 40.1329 208.632 39.5356C208.547 38.8529 208.205 38.5116 207.608 38.5116C206.755 38.5116 205.645 39.1089 204.28 40.3036C202.915 41.4129 201.677 42.5649 200.568 43.7596C199.544 44.9543 198.947 45.6369 198.776 45.8076C198.605 45.8076 198.349 45.5089 198.008 44.9116C197.667 44.2289 197.496 43.7169 197.496 43.3756C197.837 42.7783 198.563 41.8396 199.672 40.5596C200.867 39.2796 202.232 37.9569 203.768 36.5916C205.304 35.2263 206.925 34.0743 208.632 33.1356C210.339 32.1116 211.917 31.5996 213.368 31.5996C214.733 31.5996 215.885 32.2396 216.824 33.5196C217.763 34.7143 218.232 36.2503 218.232 38.1276C218.232 38.6396 218.104 39.5356 217.848 40.8156C217.677 42.0956 217.464 43.4183 217.208 44.7836C216.781 47.0023 216.355 48.9649 215.928 50.6716C215.587 52.2929 215.16 54.2129 214.648 56.4316C215.757 54.4689 217.208 52.0796 219 49.2636C220.877 46.4476 222.883 43.7169 225.016 41.0716C227.149 38.3409 229.24 36.0796 231.288 34.2876C233.421 32.4956 235.299 31.5996 236.92 31.5996C239.395 31.5996 241.229 32.2396 242.424 33.5196C243.619 34.7143 244.387 36.2076 244.728 37.9996C245.155 39.7916 245.368 41.6263 245.368 43.5036C245.368 44.4423 245.283 45.6796 245.112 47.2156C244.941 48.6663 244.685 50.0743 244.344 51.4396C244.088 52.8049 243.832 53.8716 243.576 54.6396C244.685 52.6769 246.179 50.4156 248.056 47.8556C250.019 45.2103 252.109 42.6503 254.328 40.1756C256.547 37.7009 258.723 35.6529 260.856 34.0316C263.075 32.4103 264.995 31.5996 266.616 31.5996C269.517 31.5996 271.523 32.3676 272.632 33.9036C273.741 35.3543 274.296 37.3596 274.296 39.9196C274.296 42.0529 274.083 44.3569 273.656 46.8316C273.315 49.3063 272.931 51.5249 272.504 53.4876L268.408 72.6876C268.323 73.2849 268.195 74.0529 268.024 74.9916C267.939 75.8449 267.896 76.4423 267.896 76.7836C267.896 77.3809 267.939 78.0636 268.024 78.8316C268.195 79.5143 268.579 79.8556 269.176 79.8556C270.115 79.8556 271.224 79.3009 272.504 78.1916C273.869 76.9969 275.064 75.8023 276.088 74.6076C277.197 73.4129 277.795 72.7729 277.88 72.6876C278.051 72.6876 278.307 72.9863 278.648 73.5836C278.989 74.0956 279.16 74.5649 279.16 74.9916C278.819 75.5889 278.051 76.5276 276.856 77.8076C275.661 79.0876 274.253 80.4103 272.632 81.7756C271.011 83.1409 269.304 84.3356 267.512 85.3596C265.805 86.2983 264.227 86.7676 262.776 86.7676C261.411 86.7676 260.344 86.1703 259.576 84.9756C258.893 83.6956 258.552 82.1169 258.552 80.2396C258.552 79.7276 258.637 78.8316 258.808 77.5516C258.979 76.2716 259.192 74.9489 259.448 73.5836Z" fill="white"/>
<path d="M157.65 53.3602L186.066 51.8242C186.407 51.8242 186.621 51.9949 186.706 52.3362C186.791 52.6776 186.834 53.0189 186.834 53.3602C186.834 53.8722 186.663 54.6402 186.322 55.6642C186.066 56.6882 185.682 57.6269 185.17 58.4802C184.743 59.2482 184.317 59.6749 183.89 59.7602L155.73 61.1682C155.303 61.1682 155.09 60.5282 155.09 59.2482C155.09 58.7362 155.175 58.0536 155.346 57.2002C155.602 56.2616 155.943 55.4082 156.37 54.6402C156.797 53.7869 157.223 53.3602 157.65 53.3602Z" fill="white"/>
<path d="M138.488 31.5996C141.731 31.5996 143.907 32.4529 145.016 34.1596C146.125 35.7809 146.68 37.5303 146.68 39.4076C146.68 41.7969 145.912 44.1009 144.376 46.3196C142.925 48.5383 140.963 50.6289 138.488 52.5916C136.099 54.4689 133.539 56.1329 130.808 57.5836C128.163 58.9489 125.603 60.0156 123.128 60.7836C120.653 61.5516 118.648 61.9356 117.112 61.9356C117.027 62.1063 116.941 62.7463 116.856 63.8556C116.856 64.8796 116.856 65.5623 116.856 65.9036C116.856 69.7436 117.496 72.9436 118.776 75.5036C120.056 78.0636 122.275 79.3436 125.432 79.3436C126.883 79.3436 128.333 78.9596 129.784 78.1916C131.235 77.3383 132.6 76.3569 133.88 75.2476C135.16 74.1383 136.184 73.1569 136.952 72.3036C137.805 71.3649 138.275 70.8529 138.36 70.7676C138.531 70.7676 138.787 71.0663 139.128 71.6636C139.555 72.2609 139.768 72.7729 139.768 73.1996C139.341 73.8823 138.488 74.9489 137.208 76.3996C135.928 77.8503 134.392 79.3863 132.6 81.0076C130.808 82.6289 128.888 83.9943 126.84 85.1036C124.792 86.2129 122.787 86.7676 120.824 86.7676C116.387 86.7676 112.973 85.1889 110.584 82.0316C108.195 78.8743 107 74.3943 107 68.5916C107 63.9836 107.939 59.4609 109.816 55.0236C111.779 50.5863 114.296 46.6183 117.368 43.1196C120.44 39.6209 123.811 36.8476 127.48 34.7996C131.235 32.6663 134.904 31.5996 138.488 31.5996ZM117.368 58.7356C118.563 58.7356 120.269 58.3089 122.488 57.4556C124.707 56.5169 126.968 55.2796 129.272 53.7436C131.576 52.1223 133.496 50.2876 135.032 48.2396C136.653 46.1916 137.464 44.0156 137.464 41.7116C137.464 40.0049 136.867 38.7676 135.672 37.9996C134.563 37.1463 133.411 36.7196 132.216 36.7196C130.083 36.7196 128.12 37.5729 126.328 39.2796C124.621 40.9009 123.128 42.9489 121.848 45.4236C120.568 47.8129 119.544 50.2449 118.776 52.7196C118.008 55.1089 117.539 57.1143 117.368 58.7356Z" fill="white"/>
</svg>
