<svg width="508" height="116" viewBox="0 0 508 116" fill="none" xmlns="http://www.w3.org/2000/svg">
<path d="M397.888 31.5996C399.253 31.5996 400.448 31.8983 401.472 32.4956C402.581 33.0076 403.434 33.6049 404.032 34.2876C404.714 35.1409 405.056 36.2929 405.056 37.7436C405.056 39.3649 404.672 40.6876 403.904 41.7116C403.136 42.7356 402.026 43.2476 400.576 43.2476C399.21 43.2476 397.973 42.6076 396.864 41.3276C396.352 40.7303 395.498 40.4316 394.304 40.4316C393.194 40.4316 391.786 41.3703 390.08 43.2476C388.373 45.1249 386.624 47.5996 384.832 50.6716C383.125 53.7436 381.546 57.0716 380.096 60.6556C378.645 64.1543 377.621 67.5249 377.024 70.7676L374.208 85.9996C372.842 86.2556 371.434 86.3836 369.984 86.3836C368.448 86.3836 366.912 86.2556 365.376 85.9996L372.8 45.6796C372.885 45.2529 372.97 44.5703 373.056 43.6316C373.226 42.6076 373.312 41.9249 373.312 41.5836C373.312 41.4983 373.312 41.4129 373.312 41.3276C373.312 40.7303 373.269 40.1329 373.184 39.5356C373.098 38.8529 372.757 38.5116 372.16 38.5116C371.306 38.5116 370.197 39.1089 368.832 40.3036C367.466 41.4129 366.229 42.5649 365.12 43.7596C364.096 44.9543 363.498 45.6369 363.328 45.8076C363.157 45.8076 362.901 45.5089 362.56 44.9116C362.304 44.2289 362.176 43.7169 362.176 43.3756C362.517 42.7783 363.242 41.8396 364.352 40.5596C365.461 39.2796 366.784 37.9569 368.32 36.5916C369.856 35.2263 371.477 34.0743 373.184 33.1356C374.89 32.1116 376.469 31.5996 377.92 31.5996C379.285 31.5996 380.437 32.2396 381.376 33.5196C382.314 34.7143 382.784 36.2503 382.784 38.1276C382.784 38.6396 382.656 39.5356 382.4 40.8156C382.229 42.0956 382.016 43.4183 381.76 44.7836C381.418 46.8316 381.077 48.5809 380.736 50.0316C380.394 51.4823 380.01 53.2316 379.584 55.2796C380.437 53.2316 381.589 50.8849 383.04 48.2396C384.49 45.5089 386.069 42.9063 387.776 40.4316C389.568 37.8716 391.317 35.7809 393.024 34.1596C394.816 32.4529 396.437 31.5996 397.888 31.5996Z" fill="white"/>
<path d="M341.507 31.5996C343.726 31.5996 345.603 31.7703 347.139 32.1116C348.675 32.4529 350.04 32.8369 351.235 33.2636L343.555 72.6876C343.47 73.1143 343.342 73.9249 343.171 75.1196C343 76.3143 342.958 77.4236 343.043 78.4476C343.214 79.3863 343.64 79.8556 344.323 79.8556C345.262 79.8556 346.371 79.3009 347.651 78.1916C349.016 76.9969 350.254 75.8023 351.363 74.6076C352.472 73.4129 353.07 72.7729 353.155 72.6876C353.326 72.6876 353.539 72.9863 353.795 73.5836C354.136 74.0956 354.307 74.5649 354.307 74.9916C353.966 75.5889 353.198 76.5276 352.003 77.8076C350.894 79.0876 349.528 80.4103 347.907 81.7756C346.286 83.1409 344.579 84.3356 342.787 85.3596C341.08 86.2983 339.502 86.7676 338.051 86.7676C336.686 86.7676 335.619 86.1703 334.851 84.9756C334.083 83.6956 333.699 82.1169 333.699 80.2396C333.699 79.7276 333.784 78.8316 333.955 77.5516C334.126 76.2716 334.339 74.9489 334.595 73.5836C334.766 72.3889 334.894 71.5783 334.979 71.1516C335.064 70.6396 335.15 70.1703 335.235 69.7436C334.638 70.8529 333.656 72.3463 332.291 74.2236C331.011 76.1009 329.518 77.9783 327.811 79.8556C326.104 81.7329 324.27 83.3543 322.307 84.7196C320.43 85.9996 318.595 86.6396 316.803 86.6396C313.39 86.6396 310.702 85.2743 308.739 82.5436C306.776 79.8129 305.795 76.2716 305.795 71.9196C305.795 66.4583 306.904 61.2956 309.123 56.4316C311.427 51.5676 314.371 47.3009 317.955 43.6316C321.539 39.8769 325.379 36.9329 329.475 34.7996C333.656 32.6663 337.667 31.5996 341.507 31.5996ZM335.747 36.5916C333.358 36.5916 330.926 37.4876 328.451 39.2796C326.062 41.0716 323.843 43.5036 321.795 46.5756C319.747 49.5623 318.083 52.8476 316.803 56.4316C315.608 60.0156 315.011 63.5996 315.011 67.1836C315.011 71.1089 315.523 74.1383 316.547 76.2716C317.656 78.3196 319.278 79.3436 321.411 79.3436C322.947 79.3436 324.611 78.4903 326.403 76.7836C328.195 75.0769 329.902 72.8583 331.523 70.1276C333.23 67.3116 334.723 64.2823 336.003 61.0396C337.283 57.7969 338.222 54.6823 338.819 51.6956L341.507 38.5116C340.91 37.8289 340.014 37.3596 338.819 37.1036C337.624 36.7623 336.6 36.5916 335.747 36.5916Z" fill="white"/>
<path d="M270.594 12.1442L264.194 44.7842L262.018 56.3042C262.359 55.7068 263.17 54.5122 264.45 52.7202C265.73 50.8428 267.266 48.7095 269.058 46.3202C270.935 43.9308 272.94 41.6268 275.074 39.4082C277.207 37.1895 279.298 35.3548 281.346 33.9042C283.394 32.3682 285.228 31.6002 286.85 31.6002C289.324 31.6002 291.074 32.4108 292.098 34.0322C293.207 35.5682 293.762 37.5308 293.762 39.9202C293.762 42.0535 293.591 44.2722 293.25 46.5762C292.908 48.7948 292.482 51.0988 291.97 53.4882L287.874 72.6882C287.788 72.9442 287.66 73.6268 287.49 74.7362C287.404 75.7602 287.362 76.4428 287.362 76.7842C287.362 77.3815 287.404 78.0642 287.49 78.8322C287.66 79.5148 288.044 79.8562 288.642 79.8562C289.58 79.8562 290.69 79.3015 291.97 78.1922C293.335 76.9975 294.53 75.8028 295.554 74.6082C296.663 73.4135 297.26 72.7735 297.346 72.6882C297.516 72.6882 297.772 72.9868 298.114 73.5842C298.455 74.0962 298.626 74.5655 298.626 74.9922C298.284 75.5895 297.516 76.5282 296.322 77.8082C295.127 79.0882 293.719 80.4108 292.098 81.7762C290.476 83.1415 288.77 84.3362 286.978 85.3602C285.271 86.2988 283.692 86.7682 282.242 86.7682C280.876 86.7682 279.81 86.1708 279.042 84.9762C278.359 83.6962 278.018 82.1175 278.018 80.2402C278.018 79.7282 278.06 78.8322 278.146 77.5522C278.316 76.2722 278.572 74.9495 278.914 73.5842L283.266 52.9762C283.436 52.3788 283.607 51.2695 283.778 49.6482C284.034 48.0268 284.162 46.8748 284.162 46.1922C284.162 44.7415 284.034 43.5042 283.778 42.4802C283.522 41.3708 282.839 40.8162 281.73 40.8162C280.62 40.8162 278.956 41.7122 276.738 43.5042C274.604 45.2108 272.3 47.5575 269.826 50.5442C267.436 53.4455 265.26 56.6882 263.298 60.2722C261.335 63.8562 260.012 67.4828 259.33 71.1522C258.988 73.0295 258.562 75.2482 258.05 77.8082C257.538 80.3682 256.94 83.0988 256.258 86.0002C255.66 86.1708 254.935 86.2988 254.082 86.3842C253.228 86.4695 252.46 86.5122 251.778 86.5122C251.18 86.5122 250.498 86.4695 249.73 86.3842C248.962 86.2988 248.194 86.1708 247.426 86.0002L260.994 16.1122C261.164 14.9175 261.378 13.6802 261.634 12.4002C261.975 11.1202 262.146 10.1388 262.146 9.45616C262.146 8.68816 261.676 8.1335 260.738 7.79217C259.799 7.45083 258.732 7.28017 257.538 7.28017C256.428 7.19483 255.49 7.15216 254.722 7.15216C254.636 7.15216 254.551 7.15216 254.466 7.15216C254.295 6.89616 254.252 6.4695 254.338 5.87216C254.508 5.1895 254.722 4.72017 254.978 4.46416C258.476 4.12283 261.762 3.48283 264.834 2.54417C267.906 1.6055 270.124 0.880163 271.49 0.368164C271.831 0.538829 272.044 0.880163 272.13 1.39217C272.215 1.90416 272.258 2.3735 272.258 2.80016C272.258 3.31216 272.044 4.63483 271.618 6.76817C271.276 8.81616 270.935 10.6082 270.594 12.1442Z" fill="white"/>
<path d="M234.42 31.5996C236.382 31.5996 237.918 31.9836 239.028 32.7516C240.222 33.4343 241.246 34.1169 242.1 34.7996C242.27 35.0556 242.484 35.5249 242.74 36.2076C243.081 36.8049 243.252 37.4449 243.252 38.1276C243.252 39.4929 242.91 40.7729 242.228 41.9676C241.545 43.1623 240.478 43.7596 239.028 43.7596C237.065 43.7596 235.572 42.9063 234.548 41.1996C233.95 40.1756 233.14 39.1943 232.116 38.2556C231.177 37.2316 229.812 36.7196 228.02 36.7196C225.716 36.7196 223.369 37.9996 220.98 40.5596C218.676 43.0343 216.713 46.4476 215.092 50.7996C213.556 55.1516 212.788 60.1436 212.788 65.7756C212.788 67.2263 212.958 69.0183 213.3 71.1516C213.641 73.2849 214.409 75.2049 215.604 76.9116C216.798 78.5329 218.718 79.3436 221.364 79.3436C222.814 79.3436 224.265 78.9596 225.716 78.1916C227.166 77.3383 228.532 76.3569 229.812 75.2476C231.092 74.1383 232.116 73.1569 232.884 72.3036C233.737 71.3649 234.206 70.8529 234.292 70.7676C234.462 70.7676 234.718 71.0663 235.06 71.6636C235.486 72.2609 235.7 72.7729 235.7 73.1996C235.358 73.7969 234.548 74.8209 233.268 76.2716C232.073 77.7223 230.58 79.2583 228.788 80.8796C226.996 82.5009 225.033 83.9089 222.9 85.1036C220.852 86.2129 218.846 86.7676 216.884 86.7676C212.446 86.7676 208.99 85.1889 206.516 82.0316C204.126 78.7889 202.932 74.2663 202.932 68.4636C202.932 63.4289 203.913 58.6929 205.876 54.2556C207.924 49.8183 210.569 45.9356 213.812 42.6076C217.054 39.1943 220.468 36.5063 224.052 34.5436C227.721 32.5809 231.177 31.5996 234.42 31.5996Z" fill="white"/>
<path d="M189.043 31.5996C192.285 31.5996 194.461 32.4529 195.571 34.1596C196.68 35.7809 197.235 37.5303 197.235 39.4076C197.235 41.7969 196.467 44.1009 194.931 46.3196C193.48 48.5383 191.517 50.6289 189.043 52.5916C186.653 54.4689 184.093 56.1329 181.363 57.5836C178.717 58.9489 176.157 60.0156 173.683 60.7836C171.208 61.5516 169.203 61.9356 167.667 61.9356C167.581 62.1063 167.496 62.7463 167.411 63.8556C167.411 64.8796 167.411 65.5623 167.411 65.9036C167.411 69.7436 168.051 72.9436 169.331 75.5036C170.611 78.0636 172.829 79.3436 175.987 79.3436C177.437 79.3436 178.888 78.9596 180.339 78.1916C181.789 77.3383 183.155 76.3569 184.435 75.2476C185.715 74.1383 186.739 73.1569 187.507 72.3036C188.36 71.3649 188.829 70.8529 188.915 70.7676C189.085 70.7676 189.341 71.0663 189.683 71.6636C190.109 72.2609 190.323 72.7729 190.323 73.1996C189.896 73.8823 189.043 74.9489 187.763 76.3996C186.483 77.8503 184.947 79.3863 183.155 81.0076C181.363 82.6289 179.443 83.9943 177.395 85.1036C175.347 86.2129 173.341 86.7676 171.379 86.7676C166.941 86.7676 163.528 85.1889 161.139 82.0316C158.749 78.8743 157.555 74.3943 157.555 68.5916C157.555 63.9836 158.493 59.4609 160.371 55.0236C162.333 50.5863 164.851 46.6183 167.923 43.1196C170.995 39.6209 174.365 36.8476 178.035 34.7996C181.789 32.6663 185.459 31.5996 189.043 31.5996ZM167.923 58.7356C169.117 58.7356 170.824 58.3089 173.043 57.4556C175.261 56.5169 177.523 55.2796 179.827 53.7436C182.131 52.1223 184.051 50.2876 185.587 48.2396C187.208 46.1916 188.019 44.0156 188.019 41.7116C188.019 40.0049 187.421 38.7676 186.227 37.9996C185.117 37.1463 183.965 36.7196 182.771 36.7196C180.637 36.7196 178.675 37.5729 176.883 39.2796C175.176 40.9009 173.683 42.9489 172.403 45.4236C171.123 47.8129 170.099 50.2449 169.331 52.7196C168.563 55.1089 168.093 57.1143 167.923 58.7356Z" fill="white"/>
<path d="M160.472 0.368164C162.264 0.368164 163.715 0.666829 164.824 1.26416C166.019 1.8615 166.829 2.58683 167.256 3.44016V4.59216C167.171 5.9575 166.829 7.28017 166.232 8.56017C165.635 9.84016 164.739 10.4802 163.544 10.4802C162.435 10.4802 161.496 10.2242 160.728 9.71217C160.045 9.11483 159.363 8.43216 158.68 7.66416C158.253 7.2375 157.784 6.81083 157.272 6.38416C156.76 5.9575 156.035 5.74416 155.096 5.74416C152.707 5.74416 150.701 8.04816 149.08 12.6562C147.544 17.2642 145.795 24.5175 143.832 34.4162H156.376C156.632 34.4162 156.803 34.5868 156.888 34.9282C156.973 35.1842 157.016 35.4828 157.016 35.8242C157.016 36.4215 156.888 36.9762 156.632 37.4882C156.461 38.0002 156.205 38.5122 155.864 39.0242H142.936C142.936 39.0242 142.765 39.9628 142.424 41.8402C142.168 43.6322 141.741 46.0642 141.144 49.1362C140.632 52.2082 140.035 55.5788 139.352 59.2482C138.755 62.9175 138.115 66.6295 137.432 70.3842C136.835 74.0535 136.237 77.4668 135.64 80.6242C134.36 87.4508 132.312 93.4668 129.496 98.6722C126.68 103.877 123.523 107.931 120.024 110.832C116.525 113.734 113.112 115.184 109.784 115.184C107.992 115.184 106.541 114.843 105.432 114.16C104.237 113.563 103.427 112.838 103 111.984C103 111.643 103 111.302 103 110.96C103 110.704 103.043 110.406 103.128 110.064C103.299 108.784 103.683 107.59 104.28 106.48C104.792 105.456 105.603 104.944 106.712 104.944C107.821 104.944 108.717 105.243 109.4 105.84C110.083 106.437 110.765 107.12 111.448 107.888C111.875 108.315 112.387 108.742 112.984 109.168C113.581 109.595 114.307 109.808 115.16 109.808C117.635 109.808 119.64 107.504 121.176 102.896C122.797 98.2882 124.547 91.0348 126.424 81.1362L133.848 39.0242H123.224C123.053 39.0242 122.968 38.8962 122.968 38.6402C122.968 37.9575 123.565 37.1042 124.76 36.0802C126.04 34.9708 127.363 34.4162 128.728 34.4162H134.616C135.981 27.5895 138.029 21.6162 140.76 16.4962C143.576 11.3762 146.733 7.40816 150.232 4.59216C153.731 1.77616 157.144 0.368164 160.472 0.368164Z" fill="white"/>
</svg>
