<svg width="508" height="116" viewBox="0 0 508 116" fill="none" xmlns="http://www.w3.org/2000/svg">
<path d="M370.687 50.4162C373.588 45.5522 376.447 41.7548 379.263 39.0242C382.164 36.2935 384.767 34.3735 387.071 33.2642C389.46 32.1548 391.295 31.6002 392.575 31.6002C395.476 31.6002 397.652 32.9228 399.103 35.5682C400.553 38.1282 401.279 41.5415 401.279 45.8082C401.279 51.4402 400.255 56.7308 398.207 61.6802C396.244 66.6295 393.684 70.9815 390.527 74.7362C387.369 78.4908 383.956 81.4348 380.287 83.5682C376.617 85.7015 373.119 86.7682 369.791 86.7682C366.292 86.7682 363.476 85.4882 361.343 82.9282C359.209 80.3682 358.143 76.7842 358.143 72.1762C358.143 71.4935 358.228 70.5548 358.399 69.3602C358.655 68.0802 358.825 67.0562 358.911 66.2882L368.767 16.1122C369.023 14.9175 369.279 13.6802 369.535 12.4002C369.791 11.1202 369.919 10.1388 369.919 9.45616C369.919 8.68816 369.449 8.1335 368.511 7.79217C367.572 7.45083 366.505 7.28017 365.311 7.28017C364.201 7.19483 363.263 7.15216 362.495 7.15216C362.409 7.15216 362.324 7.15216 362.239 7.15216C362.068 6.89616 362.025 6.4695 362.111 5.87216C362.281 5.1895 362.495 4.72017 362.751 4.46416C366.249 4.12283 369.535 3.48283 372.607 2.54417C375.679 1.6055 377.897 0.880163 379.263 0.368164C379.604 0.538829 379.817 0.880163 379.903 1.39217C379.988 1.90416 380.031 2.3735 380.031 2.80016C380.031 3.31216 379.817 4.63483 379.391 6.76817C379.049 8.81616 378.708 10.6082 378.367 12.1442L370.687 50.4162ZM387.199 38.5122C385.833 38.5122 384.169 39.3228 382.207 40.9442C380.329 42.5655 378.367 44.7415 376.319 47.4722C374.356 50.1175 372.564 53.1042 370.943 56.4322C369.321 59.7602 368.169 63.1308 367.487 66.5442C366.463 71.5788 366.42 75.5468 367.359 78.4482C368.383 81.2642 370.345 82.6722 373.247 82.6722C375.38 82.6722 377.385 81.8188 379.263 80.1122C381.14 78.4055 382.847 76.1868 384.383 73.4562C385.919 70.7255 387.241 67.8242 388.351 64.7522C389.545 61.5948 390.441 58.5655 391.039 55.6642C391.721 52.7628 392.063 50.2882 392.063 48.2402C392.063 45.9362 391.807 43.7602 391.295 41.7122C390.783 39.5788 389.417 38.5122 387.199 38.5122Z" fill="white"/>
<path d="M327.996 73.5836C328.423 71.4503 328.807 69.6583 329.148 68.2076C329.49 66.6716 329.874 64.8369 330.3 62.7036C329.532 64.4956 328.167 66.7143 326.204 69.3596C324.242 72.0049 322.023 74.6929 319.548 77.4236C317.074 80.0689 314.556 82.2876 311.996 84.0796C309.436 85.8716 307.132 86.7676 305.084 86.7676C302.695 86.7676 301.074 85.8716 300.22 84.0796C299.367 82.2876 298.94 80.1969 298.94 77.8076C298.94 76.1009 299.111 73.9676 299.452 71.4076C299.879 68.8476 300.263 66.6716 300.604 64.8796L304.828 45.6796C304.914 45.2529 304.999 44.5703 305.084 43.6316C305.17 42.6076 305.212 41.9249 305.212 41.5836C305.212 41.4983 305.212 41.4129 305.212 41.3276C305.212 40.7303 305.17 40.1329 305.084 39.5356C304.999 38.8529 304.658 38.5116 304.06 38.5116C303.207 38.5116 302.098 39.1089 300.732 40.3036C299.367 41.4129 298.13 42.5649 297.02 43.7596C295.996 44.9543 295.399 45.6369 295.228 45.8076C295.058 45.8076 294.802 45.5089 294.46 44.9116C294.204 44.2289 294.076 43.7169 294.076 43.3756C294.418 42.7783 295.143 41.8396 296.252 40.5596C297.362 39.2796 298.684 37.9569 300.22 36.5916C301.756 35.2263 303.378 34.0743 305.084 33.1356C306.791 32.1116 308.37 31.5996 309.82 31.5996C311.186 31.5996 312.338 32.2396 313.276 33.5196C314.215 34.7143 314.684 36.2503 314.684 38.1276C314.684 38.6396 314.599 39.5356 314.428 40.8156C314.258 42.0956 314.044 43.4183 313.788 44.7836L309.436 65.3916C309.351 65.9889 309.18 67.0983 308.924 68.7196C308.668 70.3409 308.54 71.4929 308.54 72.1756C308.54 73.5409 308.626 74.7783 308.796 75.8876C309.052 76.9969 309.735 77.5516 310.844 77.5516C311.954 77.5516 313.575 76.6556 315.708 74.8636C317.842 73.0716 320.103 70.6823 322.492 67.6956C324.967 64.6236 327.186 61.2529 329.148 57.5836C331.111 53.8289 332.476 49.9889 333.244 46.0636C333.756 43.5036 334.226 41.2423 334.652 39.2796C335.079 37.3169 335.548 35.0129 336.06 32.3676C337.17 32.0263 338.45 31.8556 339.9 31.8556C340.583 31.8556 341.351 31.8983 342.204 31.9836C343.143 32.0689 343.996 32.1969 344.764 32.3676L336.956 72.6876C336.871 73.2849 336.786 74.0529 336.7 74.9916C336.615 75.8449 336.572 76.4423 336.572 76.7836C336.572 76.8689 336.572 76.9543 336.572 77.0396C336.572 77.6369 336.615 78.2769 336.7 78.9596C336.786 79.5569 337.127 79.8556 337.724 79.8556C338.663 79.8556 339.772 79.3009 341.052 78.1916C342.418 76.9969 343.655 75.8023 344.764 74.6076C345.874 73.4129 346.471 72.7729 346.556 72.6876C346.727 72.6876 346.94 72.9863 347.196 73.5836C347.538 74.0956 347.708 74.5649 347.708 74.9916C347.367 75.5889 346.599 76.5276 345.404 77.8076C344.295 79.0876 342.93 80.4103 341.308 81.7756C339.687 83.1409 337.98 84.3356 336.188 85.3596C334.482 86.2983 332.903 86.7676 331.452 86.7676C330.087 86.7676 329.02 86.1703 328.252 84.9756C327.484 83.6956 327.1 82.1169 327.1 80.2396C327.1 79.7276 327.186 78.8316 327.356 77.5516C327.527 76.2716 327.74 74.9489 327.996 73.5836Z" fill="white"/>
<path d="M258.746 12.1442L252.346 44.7842L250.17 56.3042C250.511 55.7068 251.322 54.5122 252.602 52.7202C253.882 50.8428 255.418 48.7095 257.21 46.3202C259.087 43.9308 261.093 41.6268 263.226 39.4082C265.359 37.1895 267.45 35.3548 269.498 33.9042C271.546 32.3682 273.381 31.6002 275.002 31.6002C277.477 31.6002 279.226 32.4108 280.25 34.0322C281.359 35.5682 281.914 37.5308 281.914 39.9202C281.914 42.0535 281.743 44.2722 281.402 46.5762C281.061 48.7948 280.634 51.0988 280.122 53.4882L276.026 72.6882C275.941 72.9442 275.813 73.6268 275.642 74.7362C275.557 75.7602 275.514 76.4428 275.514 76.7842C275.514 77.3815 275.557 78.0642 275.642 78.8322C275.813 79.5148 276.197 79.8562 276.794 79.8562C277.733 79.8562 278.842 79.3015 280.122 78.1922C281.487 76.9975 282.682 75.8028 283.706 74.6082C284.815 73.4135 285.413 72.7735 285.498 72.6882C285.669 72.6882 285.925 72.9868 286.266 73.5842C286.607 74.0962 286.778 74.5655 286.778 74.9922C286.437 75.5895 285.669 76.5282 284.474 77.8082C283.279 79.0882 281.871 80.4108 280.25 81.7762C278.629 83.1415 276.922 84.3362 275.13 85.3602C273.423 86.2988 271.845 86.7682 270.394 86.7682C269.029 86.7682 267.962 86.1708 267.194 84.9762C266.511 83.6962 266.17 82.1175 266.17 80.2402C266.17 79.7282 266.213 78.8322 266.298 77.5522C266.469 76.2722 266.725 74.9495 267.066 73.5842L271.418 52.9762C271.589 52.3788 271.759 51.2695 271.93 49.6482C272.186 48.0268 272.314 46.8748 272.314 46.1922C272.314 44.7415 272.186 43.5042 271.93 42.4802C271.674 41.3708 270.991 40.8162 269.882 40.8162C268.773 40.8162 267.109 41.7122 264.89 43.5042C262.757 45.2108 260.453 47.5575 257.978 50.5442C255.589 53.4455 253.413 56.6882 251.45 60.2722C249.487 63.8562 248.165 67.4828 247.482 71.1522C247.141 73.0295 246.714 75.2482 246.202 77.8082C245.69 80.3682 245.093 83.0988 244.41 86.0002C243.813 86.1708 243.087 86.2988 242.234 86.3842C241.381 86.4695 240.613 86.5122 239.93 86.5122C239.333 86.5122 238.65 86.4695 237.882 86.3842C237.114 86.2988 236.346 86.1708 235.578 86.0002L249.146 16.1122C249.317 14.9175 249.53 13.6802 249.786 12.4002C250.127 11.1202 250.298 10.1388 250.298 9.45616C250.298 8.68816 249.829 8.1335 248.89 7.79217C247.951 7.45083 246.885 7.28017 245.69 7.28017C244.581 7.19483 243.642 7.15216 242.874 7.15216C242.789 7.15216 242.703 7.15216 242.618 7.15216C242.447 6.89616 242.405 6.4695 242.49 5.87216C242.661 5.1895 242.874 4.72017 243.13 4.46416C246.629 4.12283 249.914 3.48283 252.986 2.54417C256.058 1.6055 258.277 0.880163 259.642 0.368164C259.983 0.538829 260.197 0.880163 260.282 1.39217C260.367 1.90416 260.41 2.3735 260.41 2.80016C260.41 3.31216 260.197 4.63483 259.77 6.76817C259.429 8.81616 259.087 10.6082 258.746 12.1442Z" fill="white"/>
<path d="M212.732 34.4158L214.14 26.9918C214.652 26.3945 215.462 25.4558 216.572 24.1758C217.766 22.8105 218.918 21.5731 220.028 20.4638C221.137 19.3545 221.862 18.7998 222.204 18.7998C223.057 18.7998 223.782 19.0131 224.38 19.4398L221.692 34.4158H231.036C231.292 34.4158 231.462 34.5865 231.548 34.9278C231.633 35.1838 231.676 35.4825 231.676 35.8238C231.676 36.4211 231.548 36.9758 231.292 37.4878C231.121 37.9998 230.865 38.5118 230.524 39.0238H220.796L214.14 72.6878C214.054 73.2851 213.926 74.0531 213.756 74.9918C213.67 75.8451 213.628 76.4425 213.628 76.7838C213.628 77.3811 213.67 78.0638 213.756 78.8318C213.926 79.5145 214.31 79.8558 214.908 79.8558C215.846 79.8558 216.956 79.3011 218.236 78.1918C219.601 76.9971 220.796 75.8025 221.82 74.6078C222.929 73.4131 223.526 72.7731 223.612 72.6878C223.782 72.6878 224.038 72.9865 224.38 73.5838C224.721 74.0958 224.892 74.5651 224.892 74.9918C224.55 75.5891 223.782 76.5278 222.588 77.8078C221.393 79.0878 219.985 80.4105 218.364 81.7758C216.742 83.1411 215.036 84.3358 213.244 85.3598C211.537 86.2985 209.958 86.7678 208.508 86.7678C207.142 86.7678 206.076 86.1705 205.308 84.9758C204.625 83.6958 204.284 82.1171 204.284 80.2398C204.284 79.7278 204.369 78.8318 204.54 77.5518C204.71 76.2718 204.924 74.9491 205.18 73.5838L211.836 39.0238H203.516C203.345 39.0238 203.26 38.8958 203.26 38.6398C203.26 37.9571 203.857 37.1038 205.052 36.0798C206.332 34.9705 207.654 34.4158 209.02 34.4158H212.732Z" fill="white"/>
<path d="M179.34 45.6804C179.425 45.2538 179.511 44.5711 179.596 43.6324C179.767 42.6084 179.852 41.9258 179.852 41.5844C179.852 41.4991 179.852 41.4138 179.852 41.3284C179.852 40.7311 179.809 40.1338 179.724 39.5364C179.639 38.8538 179.297 38.5124 178.7 38.5124C177.847 38.5124 176.737 39.1098 175.372 40.3044C174.007 41.4138 172.769 42.5658 171.66 43.7604C170.636 44.9551 170.039 45.6378 169.868 45.8084C169.697 45.8084 169.441 45.5098 169.1 44.9124C168.759 44.2298 168.588 43.7178 168.588 43.3764C168.929 42.7791 169.655 41.8404 170.764 40.5604C171.873 39.2804 173.196 37.9578 174.732 36.5924C176.268 35.2271 177.889 34.0751 179.596 33.1364C181.303 32.1124 182.881 31.6004 184.332 31.6004C185.697 31.6004 186.849 32.2404 187.788 33.5204C188.812 34.7151 189.324 36.2511 189.324 38.1284C189.324 38.6404 189.239 39.5364 189.068 40.8164C188.897 42.0964 188.684 43.4191 188.428 44.7844L182.028 72.6884C181.943 73.2858 181.815 74.0538 181.644 74.9924C181.559 75.8458 181.516 76.4431 181.516 76.7844C181.516 77.3818 181.559 78.0644 181.644 78.8324C181.815 79.5151 182.199 79.8564 182.796 79.8564C183.735 79.8564 184.844 79.3018 186.124 78.1924C187.489 76.9978 188.684 75.8031 189.708 74.6084C190.817 73.4138 191.415 72.7738 191.5 72.6884C191.671 72.6884 191.927 72.9871 192.268 73.5844C192.609 74.0964 192.78 74.5658 192.78 74.9924C192.439 75.5898 191.671 76.5284 190.476 77.8084C189.281 79.0884 187.873 80.4111 186.252 81.7764C184.631 83.1418 182.924 84.3364 181.132 85.3604C179.425 86.2991 177.847 86.7684 176.396 86.7684C175.031 86.7684 173.964 86.1711 173.196 84.9764C172.513 83.6964 172.172 82.1178 172.172 80.2404C172.172 79.7284 172.257 78.8324 172.428 77.5524C172.599 76.2724 172.812 74.9498 173.068 73.5844L179.34 45.6804ZM186.508 5.23242C187.873 5.23242 188.94 5.74442 189.708 6.76842C190.561 7.70709 190.988 8.85909 190.988 10.2244C190.988 12.1018 190.348 13.8511 189.068 15.4724C187.788 17.0084 186.167 17.7764 184.204 17.7764C182.839 17.7764 181.772 17.2218 181.004 16.1124C180.321 15.0031 179.98 13.7658 179.98 12.4004C179.98 10.5231 180.577 8.85909 181.772 7.40842C183.052 5.95776 184.631 5.23242 186.508 5.23242Z" fill="white"/>
<path d="M155.616 38.3837C155.701 38.725 156 39.8343 156.512 41.7117C157.109 43.5037 157.408 45.253 157.408 46.9597C157.408 51.397 156.64 55.0663 155.104 57.9677C153.568 60.869 151.861 63.1303 149.984 64.7517C148.192 66.2877 146.869 67.3117 146.016 67.8237C144.565 68.677 142.688 69.573 140.384 70.5117C138.165 71.365 136.16 72.2183 134.368 73.0717C132.576 73.925 131.68 74.821 131.68 75.7597C131.68 76.613 132.533 77.381 134.24 78.0637C135.947 78.7463 138.037 79.5144 140.512 80.3677C142.987 81.221 145.461 82.2877 147.936 83.5677C150.411 84.8477 152.501 86.469 154.208 88.4317C155.915 90.3943 156.768 92.8264 156.768 95.7277C156.768 101.701 154.123 106.437 148.832 109.936C143.541 113.434 136.416 115.184 127.456 115.184C121.824 115.184 117.173 114.117 113.504 111.984C109.835 109.85 108 106.821 108 102.896C108 99.9944 108.981 97.4343 110.944 95.2157C112.907 92.997 115.296 91.0343 118.112 89.3277C120.928 87.7063 123.573 86.341 126.048 85.2317L123.744 83.6957C122.976 83.1837 122.251 82.5863 121.568 81.9037C120.971 81.221 120.672 80.325 120.672 79.2157C120.672 78.1917 121.397 77.0824 122.848 75.8877C124.384 74.693 126.133 73.6263 128.096 72.6877C130.059 71.749 131.723 71.109 133.088 70.7677C131.808 70.7677 130.016 70.2557 127.712 69.2317C125.493 68.1223 123.488 66.501 121.696 64.3677C119.904 62.149 119.008 59.4183 119.008 56.1757C119.008 51.4823 120.16 47.301 122.464 43.6317C124.853 39.877 127.84 36.933 131.424 34.7997C135.093 32.581 138.848 31.4717 142.688 31.4717C145.077 31.4717 147.04 31.7703 148.576 32.3677C150.197 32.8797 151.776 33.5197 153.312 34.2877C153.909 34.5437 154.72 34.5437 155.744 34.2877C156.768 33.9463 157.749 33.5623 158.688 33.1357C159.2 32.965 159.669 32.837 160.096 32.7517C160.523 32.581 160.864 32.453 161.12 32.3677C161.973 32.6237 163.04 33.221 164.32 34.1597C165.6 35.013 166.24 35.8663 166.24 36.7197C166.24 37.1463 166.112 37.573 165.856 37.9997C165.6 38.341 165.216 38.5117 164.704 38.5117C164.363 38.5117 163.936 38.5117 163.424 38.5117C162.912 38.5117 162.357 38.469 161.76 38.3837C160.565 38.3837 159.371 38.3837 158.176 38.3837C156.981 38.3837 156.128 38.3837 155.616 38.3837ZM148.704 100.72C148.704 98.0743 147.637 95.8557 145.504 94.0637C143.371 92.2717 140.853 90.7783 137.952 89.5837C135.051 88.4743 132.363 87.5357 129.888 86.7677C128.267 87.4504 126.432 88.3464 124.384 89.4557C122.421 90.6504 120.715 92.0584 119.264 93.6797C117.899 95.301 117.216 97.3063 117.216 99.6957C117.216 102.426 118.027 104.602 119.648 106.224C121.269 107.845 123.445 108.997 126.176 109.68C128.907 110.362 131.893 110.704 135.136 110.704C139.317 110.704 142.603 109.68 144.992 107.632C147.467 105.669 148.704 103.365 148.704 100.72ZM140.512 35.1837C137.867 35.1837 135.605 36.2503 133.728 38.3837C131.936 40.517 130.571 43.1197 129.632 46.1917C128.693 49.2637 128.224 52.2503 128.224 55.1517C128.224 58.2237 128.864 60.997 130.144 63.4717C131.424 65.9463 133.387 67.1837 136.032 67.1837C138.763 67.1837 141.024 66.245 142.816 64.3677C144.608 62.405 145.931 60.0583 146.784 57.3277C147.723 54.5117 148.192 51.8237 148.192 49.2637C148.192 47.2157 147.893 45.125 147.296 42.9917C146.699 40.773 145.803 38.9383 144.608 37.4877C143.499 35.9517 142.133 35.1837 140.512 35.1837Z" fill="white"/>
</svg>
