<svg width="508" height="111" viewBox="0 0 508 111" fill="none" xmlns="http://www.w3.org/2000/svg">
<path d="M463.067 68.5836L467.419 47.9756C467.59 47.3783 467.761 46.2689 467.931 44.6476C468.187 43.0263 468.315 41.8743 468.315 41.1916C468.315 39.5703 468.187 38.2903 467.931 37.3516C467.761 36.3276 467.078 35.8156 465.883 35.8156C464.603 35.8156 462.897 36.7116 460.763 38.5036C458.63 40.2103 456.369 42.5143 453.979 45.4156C451.675 48.2316 449.585 51.3463 447.707 54.7596C445.915 58.0876 444.721 61.3303 444.123 64.4876L441.051 80.9996C440.198 81.0849 439.43 81.1703 438.747 81.2556C438.15 81.3409 437.382 81.3836 436.443 81.3836C435.59 81.3836 434.865 81.3409 434.267 81.2556C433.67 81.1703 432.945 81.0849 432.091 80.9996L439.003 45.5436C439.174 44.5196 439.302 43.6236 439.387 42.8556C439.473 42.0876 439.515 41.4049 439.515 40.8076C439.515 37.4796 438.705 35.8156 437.083 35.8156C435.718 35.8156 433.969 36.7969 431.835 38.7596C429.702 40.7223 427.483 43.2396 425.179 46.3116C422.961 49.3836 420.998 52.6689 419.291 56.1676C417.585 59.5809 416.39 62.7809 415.707 65.7676L412.507 80.9996C411.227 81.3409 409.734 81.5116 408.027 81.5116C407.174 81.5116 406.406 81.4263 405.723 81.2556C405.126 81.1703 404.443 81.0849 403.675 80.9996L411.867 40.6796C411.953 40.2529 412.038 39.5703 412.123 38.6316C412.294 37.6076 412.379 36.9249 412.379 36.5836C412.379 36.4983 412.379 36.4129 412.379 36.3276C412.379 35.7303 412.337 35.1329 412.251 34.5356C412.166 33.8529 411.825 33.5116 411.227 33.5116C410.374 33.5116 409.265 34.1089 407.899 35.3036C406.534 36.4129 405.297 37.5649 404.187 38.7596C403.163 39.9543 402.566 40.6369 402.395 40.8076C402.225 40.8076 401.969 40.5089 401.627 39.9116C401.286 39.2289 401.115 38.7169 401.115 38.3756C401.457 37.7783 402.182 36.8396 403.291 35.5596C404.486 34.2796 405.851 32.9569 407.387 31.5916C408.923 30.2263 410.545 29.0743 412.251 28.1356C413.958 27.1116 415.537 26.5996 416.987 26.5996C418.353 26.5996 419.505 27.2396 420.443 28.5196C421.382 29.7143 421.851 31.2503 421.851 33.1276C421.851 33.6396 421.723 34.5356 421.467 35.8156C421.297 37.0956 421.083 38.4183 420.827 39.7836C420.401 42.0023 419.974 43.9649 419.547 45.6716C419.206 47.2929 418.779 49.2129 418.267 51.4316C419.377 49.4689 420.827 47.0796 422.619 44.2636C424.497 41.4476 426.502 38.7169 428.635 36.0716C430.769 33.3409 432.859 31.0796 434.907 29.2876C437.041 27.4956 438.918 26.5996 440.539 26.5996C443.014 26.5996 444.849 27.2396 446.043 28.5196C447.238 29.7143 448.006 31.2076 448.347 32.9996C448.774 34.7916 448.987 36.6263 448.987 38.5036C448.987 39.4423 448.902 40.6796 448.731 42.2156C448.561 43.6663 448.305 45.0743 447.963 46.4396C447.707 47.8049 447.451 48.8716 447.195 49.6396C448.305 47.6769 449.798 45.4156 451.675 42.8556C453.638 40.2103 455.729 37.6503 457.947 35.1756C460.166 32.7009 462.342 30.6529 464.475 29.0316C466.694 27.4103 468.614 26.5996 470.235 26.5996C473.137 26.5996 475.142 27.3676 476.251 28.9036C477.361 30.3543 477.915 32.3596 477.915 34.9196C477.915 37.0529 477.702 39.3569 477.275 41.8316C476.934 44.3063 476.55 46.5249 476.123 48.4876L472.027 67.6876C471.942 68.2849 471.814 69.0529 471.643 69.9916C471.558 70.8449 471.515 71.4423 471.515 71.7836C471.515 72.3809 471.558 73.0636 471.643 73.8316C471.814 74.5143 472.198 74.8556 472.795 74.8556C473.734 74.8556 474.843 74.3009 476.123 73.1916C477.489 71.9969 478.683 70.8023 479.707 69.6076C480.817 68.4129 481.414 67.7729 481.499 67.6876C481.67 67.6876 481.926 67.9863 482.267 68.5836C482.609 69.0956 482.779 69.5649 482.779 69.9916C482.438 70.5889 481.67 71.5276 480.475 72.8076C479.281 74.0876 477.873 75.4103 476.251 76.7756C474.63 78.1409 472.923 79.3356 471.131 80.3596C469.425 81.2983 467.846 81.7676 466.395 81.7676C465.03 81.7676 463.963 81.1703 463.195 79.9756C462.513 78.6956 462.171 77.1169 462.171 75.2396C462.171 74.7276 462.257 73.8316 462.427 72.5516C462.598 71.2716 462.811 69.9489 463.067 68.5836Z" fill="white"/>
<path d="M380.446 26.5996C382.665 26.5996 384.542 26.7703 386.078 27.1116C387.614 27.4529 388.98 27.8369 390.174 28.2636L382.494 67.6876C382.409 68.1143 382.281 68.9249 382.11 70.1196C381.94 71.3143 381.897 72.4236 381.982 73.4476C382.153 74.3863 382.58 74.8556 383.262 74.8556C384.201 74.8556 385.31 74.3009 386.59 73.1916C387.956 71.9969 389.193 70.8023 390.302 69.6076C391.412 68.4129 392.009 67.7729 392.094 67.6876C392.265 67.6876 392.478 67.9863 392.734 68.5836C393.076 69.0956 393.246 69.5649 393.246 69.9916C392.905 70.5889 392.137 71.5276 390.942 72.8076C389.833 74.0876 388.468 75.4103 386.846 76.7756C385.225 78.1409 383.518 79.3356 381.726 80.3596C380.02 81.2983 378.441 81.7676 376.99 81.7676C375.625 81.7676 374.558 81.1703 373.79 79.9756C373.022 78.6956 372.638 77.1169 372.638 75.2396C372.638 74.7276 372.724 73.8316 372.894 72.5516C373.065 71.2716 373.278 69.9489 373.534 68.5836C373.705 67.3889 373.833 66.5783 373.918 66.1516C374.004 65.6396 374.089 65.1703 374.174 64.7436C373.577 65.8529 372.596 67.3463 371.23 69.2236C369.95 71.1009 368.457 72.9783 366.75 74.8556C365.044 76.7329 363.209 78.3543 361.246 79.7196C359.369 80.9996 357.534 81.6396 355.742 81.6396C352.329 81.6396 349.641 80.2743 347.678 77.5436C345.716 74.8129 344.734 71.2716 344.734 66.9196C344.734 61.4583 345.844 56.2956 348.062 51.4316C350.366 46.5676 353.31 42.3009 356.894 38.6316C360.478 34.8769 364.318 31.9329 368.414 29.7996C372.596 27.6663 376.606 26.5996 380.446 26.5996ZM374.686 31.5916C372.297 31.5916 369.865 32.4876 367.39 34.2796C365.001 36.0716 362.782 38.5036 360.734 41.5756C358.686 44.5623 357.022 47.8476 355.742 51.4316C354.548 55.0156 353.95 58.5996 353.95 62.1836C353.95 66.1089 354.462 69.1383 355.486 71.2716C356.596 73.3196 358.217 74.3436 360.35 74.3436C361.886 74.3436 363.55 73.4903 365.342 71.7836C367.134 70.0769 368.841 67.8583 370.462 65.1276C372.169 62.3116 373.662 59.2823 374.942 56.0396C376.222 52.7969 377.161 49.6823 377.758 46.6956L380.446 33.5116C379.849 32.8289 378.953 32.3596 377.758 32.1036C376.564 31.7623 375.54 31.5916 374.686 31.5916Z" fill="white"/>
<path d="M337.702 26.5996C339.068 26.5996 340.262 26.8983 341.286 27.4956C342.396 28.0076 343.249 28.6049 343.846 29.2876C344.529 30.1409 344.87 31.2929 344.87 32.7436C344.87 34.3649 344.486 35.6876 343.718 36.7116C342.95 37.7356 341.841 38.2476 340.39 38.2476C339.025 38.2476 337.788 37.6076 336.678 36.3276C336.166 35.7303 335.313 35.4316 334.118 35.4316C333.009 35.4316 331.601 36.3703 329.894 38.2476C328.188 40.1249 326.438 42.5996 324.646 45.6716C322.94 48.7436 321.361 52.0716 319.91 55.6556C318.46 59.1543 317.436 62.5249 316.838 65.7676L314.022 80.9996C312.657 81.2556 311.249 81.3836 309.798 81.3836C308.262 81.3836 306.726 81.2556 305.19 80.9996L312.614 40.6796C312.7 40.2529 312.785 39.5703 312.87 38.6316C313.041 37.6076 313.126 36.9249 313.126 36.5836C313.126 36.4983 313.126 36.4129 313.126 36.3276C313.126 35.7303 313.084 35.1329 312.998 34.5356C312.913 33.8529 312.572 33.5116 311.974 33.5116C311.121 33.5116 310.012 34.1089 308.646 35.3036C307.281 36.4129 306.044 37.5649 304.934 38.7596C303.91 39.9543 303.313 40.6369 303.142 40.8076C302.972 40.8076 302.716 40.5089 302.374 39.9116C302.118 39.2289 301.99 38.7169 301.99 38.3756C302.332 37.7783 303.057 36.8396 304.166 35.5596C305.276 34.2796 306.598 32.9569 308.134 31.5916C309.67 30.2263 311.292 29.0743 312.998 28.1356C314.705 27.1116 316.284 26.5996 317.734 26.5996C319.1 26.5996 320.252 27.2396 321.19 28.5196C322.129 29.7143 322.598 31.2503 322.598 33.1276C322.598 33.6396 322.47 34.5356 322.214 35.8156C322.044 37.0956 321.83 38.4183 321.574 39.7836C321.233 41.8316 320.892 43.5809 320.55 45.0316C320.209 46.4823 319.825 48.2316 319.398 50.2796C320.252 48.2316 321.404 45.8849 322.854 43.2396C324.305 40.5089 325.884 37.9063 327.59 35.4316C329.382 32.8716 331.132 30.7809 332.838 29.1596C334.63 27.4529 336.252 26.5996 337.702 26.5996Z" fill="white"/>
<path d="M289.403 33.3837C289.488 33.725 289.787 34.8343 290.299 36.7117C290.896 38.5037 291.195 40.253 291.195 41.9597C291.195 46.397 290.427 50.0663 288.891 52.9677C287.355 55.869 285.648 58.1303 283.771 59.7517C281.979 61.2877 280.656 62.3117 279.803 62.8237C278.352 63.677 276.475 64.573 274.171 65.5117C271.952 66.365 269.947 67.2183 268.155 68.0717C266.363 68.925 265.467 69.821 265.467 70.7597C265.467 71.613 266.32 72.381 268.027 73.0637C269.734 73.7463 271.824 74.5144 274.299 75.3677C276.774 76.221 279.248 77.2877 281.723 78.5677C284.198 79.8477 286.288 81.469 287.995 83.4317C289.702 85.3943 290.555 87.8264 290.555 90.7277C290.555 96.701 287.91 101.437 282.619 104.936C277.328 108.434 270.203 110.184 261.243 110.184C255.611 110.184 250.96 109.117 247.291 106.984C243.622 104.85 241.787 101.821 241.787 97.8957C241.787 94.9944 242.768 92.4343 244.731 90.2157C246.694 87.997 249.083 86.0343 251.899 84.3277C254.715 82.7063 257.36 81.341 259.835 80.2317L257.531 78.6957C256.763 78.1837 256.038 77.5863 255.355 76.9037C254.758 76.221 254.459 75.325 254.459 74.2157C254.459 73.1917 255.184 72.0824 256.635 70.8877C258.171 69.693 259.92 68.6263 261.883 67.6877C263.846 66.749 265.51 66.109 266.875 65.7677C265.595 65.7677 263.803 65.2557 261.499 64.2317C259.28 63.1223 257.275 61.501 255.483 59.3677C253.691 57.149 252.795 54.4183 252.795 51.1757C252.795 46.4823 253.947 42.301 256.251 38.6317C258.64 34.877 261.627 31.933 265.211 29.7997C268.88 27.581 272.635 26.4717 276.475 26.4717C278.864 26.4717 280.827 26.7703 282.363 27.3677C283.984 27.8797 285.563 28.5197 287.099 29.2877C287.696 29.5437 288.507 29.5437 289.531 29.2877C290.555 28.9463 291.536 28.5623 292.475 28.1357C292.987 27.965 293.456 27.837 293.883 27.7517C294.31 27.581 294.651 27.453 294.907 27.3677C295.76 27.6237 296.827 28.221 298.107 29.1597C299.387 30.013 300.027 30.8663 300.027 31.7197C300.027 32.1463 299.899 32.573 299.643 32.9997C299.387 33.341 299.003 33.5117 298.491 33.5117C298.15 33.5117 297.723 33.5117 297.211 33.5117C296.699 33.5117 296.144 33.469 295.547 33.3837C294.352 33.3837 293.158 33.3837 291.963 33.3837C290.768 33.3837 289.915 33.3837 289.403 33.3837ZM282.491 95.7197C282.491 93.0743 281.424 90.8557 279.291 89.0637C277.158 87.2717 274.64 85.7783 271.739 84.5837C268.838 83.4743 266.15 82.5357 263.675 81.7677C262.054 82.4504 260.219 83.3464 258.171 84.4557C256.208 85.6504 254.502 87.0584 253.051 88.6797C251.686 90.301 251.003 92.3063 251.003 94.6957C251.003 97.4263 251.814 99.6023 253.435 101.224C255.056 102.845 257.232 103.997 259.963 104.68C262.694 105.362 265.68 105.704 268.923 105.704C273.104 105.704 276.39 104.68 278.779 102.632C281.254 100.669 282.491 98.365 282.491 95.7197ZM274.299 30.1837C271.654 30.1837 269.392 31.2503 267.515 33.3837C265.723 35.517 264.358 38.1197 263.419 41.1917C262.48 44.2637 262.011 47.2503 262.011 50.1517C262.011 53.2237 262.651 55.997 263.931 58.4717C265.211 60.9463 267.174 62.1837 269.819 62.1837C272.55 62.1837 274.811 61.245 276.603 59.3677C278.395 57.405 279.718 55.0583 280.571 52.3277C281.51 49.5117 281.979 46.8237 281.979 44.2637C281.979 42.2157 281.68 40.125 281.083 37.9917C280.486 35.773 279.59 33.9383 278.395 32.4877C277.286 30.9517 275.92 30.1837 274.299 30.1837Z" fill="white"/>
<path d="M229.821 26.5996C232.04 26.5996 233.917 26.7703 235.453 27.1116C236.989 27.4529 238.355 27.8369 239.549 28.2636L231.869 67.6876C231.784 68.1143 231.656 68.9249 231.485 70.1196C231.315 71.3143 231.272 72.4236 231.357 73.4476C231.528 74.3863 231.955 74.8556 232.637 74.8556C233.576 74.8556 234.685 74.3009 235.965 73.1916C237.331 71.9969 238.568 70.8023 239.677 69.6076C240.787 68.4129 241.384 67.7729 241.469 67.6876C241.64 67.6876 241.853 67.9863 242.109 68.5836C242.451 69.0956 242.621 69.5649 242.621 69.9916C242.28 70.5889 241.512 71.5276 240.317 72.8076C239.208 74.0876 237.843 75.4103 236.221 76.7756C234.6 78.1409 232.893 79.3356 231.101 80.3596C229.395 81.2983 227.816 81.7676 226.365 81.7676C225 81.7676 223.933 81.1703 223.165 79.9756C222.397 78.6956 222.013 77.1169 222.013 75.2396C222.013 74.7276 222.099 73.8316 222.269 72.5516C222.44 71.2716 222.653 69.9489 222.909 68.5836C223.08 67.3889 223.208 66.5783 223.293 66.1516C223.379 65.6396 223.464 65.1703 223.549 64.7436C222.952 65.8529 221.971 67.3463 220.605 69.2236C219.325 71.1009 217.832 72.9783 216.125 74.8556C214.419 76.7329 212.584 78.3543 210.621 79.7196C208.744 80.9996 206.909 81.6396 205.117 81.6396C201.704 81.6396 199.016 80.2743 197.053 77.5436C195.091 74.8129 194.109 71.2716 194.109 66.9196C194.109 61.4583 195.219 56.2956 197.437 51.4316C199.741 46.5676 202.685 42.3009 206.269 38.6316C209.853 34.8769 213.693 31.9329 217.789 29.7996C221.971 27.6663 225.981 26.5996 229.821 26.5996ZM224.061 31.5916C221.672 31.5916 219.24 32.4876 216.765 34.2796C214.376 36.0716 212.157 38.5036 210.109 41.5756C208.061 44.5623 206.397 47.8476 205.117 51.4316C203.923 55.0156 203.325 58.5996 203.325 62.1836C203.325 66.1089 203.837 69.1383 204.861 71.2716C205.971 73.3196 207.592 74.3436 209.725 74.3436C211.261 74.3436 212.925 73.4903 214.717 71.7836C216.509 70.0769 218.216 67.8583 219.837 65.1276C221.544 62.3116 223.037 59.2823 224.317 56.0396C225.597 52.7969 226.536 49.6823 227.133 46.6956L229.821 33.5116C229.224 32.8289 228.328 32.3596 227.133 32.1036C225.939 31.7623 224.915 31.5916 224.061 31.5916Z" fill="white"/>
<path d="M171.519 29.4158L172.927 21.9918C173.439 21.3945 174.25 20.4558 175.359 19.1758C176.554 17.8105 177.706 16.5731 178.815 15.4638C179.924 14.3545 180.65 13.7998 180.991 13.7998C181.844 13.7998 182.57 14.0131 183.167 14.4398L180.479 29.4158H189.823C190.079 29.4158 190.25 29.5865 190.335 29.9278C190.42 30.1838 190.463 30.4825 190.463 30.8238C190.463 31.4211 190.335 31.9758 190.079 32.4878C189.908 32.9998 189.652 33.5118 189.311 34.0238H179.583L172.927 67.6878C172.842 68.2851 172.714 69.0531 172.543 69.9918C172.458 70.8451 172.415 71.4425 172.415 71.7838C172.415 72.3811 172.458 73.0638 172.543 73.8318C172.714 74.5145 173.098 74.8558 173.695 74.8558C174.634 74.8558 175.743 74.3011 177.023 73.1918C178.388 71.9971 179.583 70.8025 180.607 69.6078C181.716 68.4131 182.314 67.7731 182.399 67.6878C182.57 67.6878 182.826 67.9865 183.167 68.5838C183.508 69.0958 183.679 69.5651 183.679 69.9918C183.338 70.5891 182.57 71.5278 181.375 72.8078C180.18 74.0878 178.772 75.4105 177.151 76.7758C175.53 78.1411 173.823 79.3358 172.031 80.3598C170.324 81.2985 168.746 81.7678 167.295 81.7678C165.93 81.7678 164.863 81.1705 164.095 79.9758C163.412 78.6958 163.071 77.1171 163.071 75.2398C163.071 74.7278 163.156 73.8318 163.327 72.5518C163.498 71.2718 163.711 69.9491 163.967 68.5838L170.623 34.0238H162.303C162.132 34.0238 162.047 33.8958 162.047 33.6398C162.047 32.9571 162.644 32.1038 163.839 31.0798C165.119 29.9705 166.442 29.4158 167.807 29.4158H171.519Z" fill="white"/>
<path d="M141.51 26.2158C143.984 26.2158 146.032 26.5145 147.654 27.1118C149.36 27.6238 150.896 28.4772 152.262 29.6718C152.603 30.0985 152.902 30.7812 153.158 31.7198C153.414 32.5732 153.542 33.2132 153.542 33.6398C153.542 35.0052 153.158 36.1998 152.39 37.2238C151.622 38.2478 150.598 38.7598 149.318 38.7598C148.208 38.7598 147.142 38.3332 146.118 37.4798C145.179 36.5412 144.283 35.5172 143.43 34.4078C142.747 33.3838 142.022 32.4878 141.254 31.7198C140.571 30.8665 139.334 30.4398 137.542 30.4398C135.408 30.4398 133.83 31.2932 132.806 32.9998C131.867 34.6212 131.398 36.1145 131.398 37.4798C131.398 39.9545 132.294 42.2585 134.086 44.3918C135.963 46.4398 137.84 48.5732 139.718 50.7918C141.68 53.0105 143.43 55.3998 144.966 57.9598C146.502 60.4345 147.27 63.2505 147.27 66.4078C147.27 71.0158 145.563 74.7278 142.15 77.5438C138.822 80.3598 134.512 81.7678 129.222 81.7678C127.344 81.7678 125.424 81.5118 123.462 80.9998C121.584 80.4025 119.835 79.4212 118.214 78.0558C118.043 77.7145 117.787 77.1598 117.446 76.3918C117.104 75.5385 116.934 74.8132 116.934 74.2158C116.934 72.4238 117.36 71.0158 118.214 69.9918C119.152 68.9678 120.262 68.4558 121.542 68.4558C122.822 68.4558 123.803 69.0532 124.486 70.2478C125.168 71.4425 125.979 72.7225 126.918 74.0878C127.6 75.0265 128.454 75.8798 129.478 76.6478C130.587 77.4158 131.952 77.7998 133.574 77.7998C135.28 77.7998 136.56 77.3732 137.414 76.5198C138.267 75.6665 138.864 74.6852 139.206 73.5758C139.547 72.3812 139.718 71.3572 139.718 70.5038C139.718 68.2852 139.035 66.2798 137.67 64.4878C136.304 62.6958 134.811 60.8612 133.19 58.9838C131.056 56.5092 129.008 53.9492 127.046 51.3038C125.168 48.6585 124.23 45.5438 124.23 41.9598C124.23 39.5705 124.912 37.1812 126.278 34.7918C127.728 32.4025 129.734 30.3972 132.294 28.7758C134.939 27.0692 138.011 26.2158 141.51 26.2158Z" fill="white"/>
<path d="M76.9522 39.7836L74.6482 50.2796C74.9896 49.6823 75.7576 48.4876 76.9522 46.6956C78.2322 44.9036 79.7682 42.8983 81.5602 40.6796C83.4376 38.3756 85.4002 36.1569 87.4482 34.0236C89.5816 31.8903 91.6722 30.1409 93.7202 28.7756C95.7682 27.3249 97.6029 26.5996 99.2242 26.5996C102.126 26.5996 104.131 27.3676 105.24 28.9036C106.35 30.3543 106.904 32.3596 106.904 34.9196C106.904 36.7969 106.734 39.0156 106.392 41.5756C106.051 44.0503 105.667 46.3543 105.24 48.4876L101.016 67.6876C100.931 68.2849 100.803 69.0529 100.632 69.9916C100.547 70.8449 100.504 71.4423 100.504 71.7836C100.504 72.3809 100.547 73.0636 100.632 73.8316C100.803 74.5143 101.187 74.8556 101.784 74.8556C102.723 74.8556 103.832 74.3009 105.112 73.1916C106.478 71.9969 107.715 70.8023 108.824 69.6076C109.934 68.4129 110.531 67.7729 110.616 67.6876C110.787 67.6876 111 67.9863 111.256 68.5836C111.598 69.0956 111.768 69.5649 111.768 69.9916C111.427 70.5889 110.659 71.5276 109.464 72.8076C108.27 74.0876 106.862 75.4103 105.24 76.7756C103.619 78.1409 101.912 79.3356 100.12 80.3596C98.4136 81.2983 96.8349 81.7676 95.3842 81.7676C94.0189 81.7676 92.9522 81.1703 92.1842 79.9756C91.5016 78.6956 91.1602 77.1169 91.1602 75.2396C91.1602 74.7276 91.2456 73.8316 91.4162 72.5516C91.5869 71.2716 91.8002 69.9489 92.0562 68.5836L96.4082 47.9756C96.5789 47.3783 96.7496 46.2689 96.9202 44.6476C97.1762 43.0263 97.3042 41.8743 97.3042 41.1916C97.3042 39.5703 97.1762 38.2903 96.9202 37.3516C96.7496 36.3276 96.0669 35.8156 94.8722 35.8156C93.7629 35.8156 92.0562 36.6263 89.7522 38.2476C87.5336 39.8689 85.1869 42.0876 82.7122 44.9036C80.2376 47.7196 77.9762 50.9196 75.9282 54.5036C73.9656 58.0876 72.6002 61.8423 71.8322 65.7676C71.2349 68.7543 70.7229 71.3143 70.2962 73.4476C69.8696 75.4956 69.3149 78.0129 68.6322 80.9996C67.2669 81.3409 65.7736 81.5116 64.1522 81.5116C62.6162 81.5116 61.1656 81.3409 59.8002 80.9996L67.9922 40.6796C68.0776 40.2529 68.1629 39.5703 68.2482 38.6316C68.4189 37.6076 68.5042 36.9249 68.5042 36.5836C68.5042 36.4983 68.5042 36.4129 68.5042 36.3276C68.5042 35.7303 68.4616 35.1329 68.3762 34.5356C68.2909 33.8529 67.9496 33.5116 67.3522 33.5116C66.4989 33.5116 65.3896 34.1089 64.0242 35.3036C62.6589 36.4129 61.4216 37.5649 60.3122 38.7596C59.2882 39.9543 58.6909 40.6369 58.5202 40.8076C58.3496 40.8076 58.0936 40.5089 57.7522 39.9116C57.4109 39.2289 57.2402 38.7169 57.2402 38.3756C57.5816 37.7783 58.3069 36.8396 59.4162 35.5596C60.6109 34.2796 61.9762 32.9569 63.5122 31.5916C65.0482 30.2263 66.6696 29.0743 68.3762 28.1356C70.0829 27.1116 71.6616 26.5996 73.1122 26.5996C74.4776 26.5996 75.6296 27.2396 76.5682 28.5196C77.5069 29.7143 77.9762 31.2503 77.9762 33.1276C77.9762 33.6396 77.8909 34.5356 77.7202 35.8156C77.5496 37.0956 77.2936 38.4183 76.9522 39.7836Z" fill="white"/>
<path d="M35.752 40.6804C35.8373 40.2538 35.9227 39.5711 36.008 38.6324C36.1787 37.6084 36.264 36.9258 36.264 36.5844C36.264 36.4991 36.264 36.4138 36.264 36.3284C36.264 35.7311 36.2213 35.1338 36.136 34.5364C36.0507 33.8538 35.7093 33.5124 35.112 33.5124C34.2587 33.5124 33.1493 34.1098 31.784 35.3044C30.4187 36.4138 29.1813 37.5658 28.072 38.7604C27.048 39.9551 26.4507 40.6378 26.28 40.8084C26.1093 40.8084 25.8533 40.5098 25.512 39.9124C25.1707 39.2298 25 38.7178 25 38.3764C25.3413 37.7791 26.0667 36.8404 27.176 35.5604C28.2853 34.2804 29.608 32.9578 31.144 31.5924C32.68 30.2271 34.3013 29.0751 36.008 28.1364C37.7147 27.1124 39.2933 26.6004 40.744 26.6004C42.1093 26.6004 43.2613 27.2404 44.2 28.5204C45.224 29.7151 45.736 31.2511 45.736 33.1284C45.736 33.6404 45.6507 34.5364 45.48 35.8164C45.3093 37.0964 45.096 38.4191 44.84 39.7844L38.44 67.6884C38.3547 68.2858 38.2267 69.0538 38.056 69.9924C37.9707 70.8458 37.928 71.4431 37.928 71.7844C37.928 72.3818 37.9707 73.0644 38.056 73.8324C38.2267 74.5151 38.6107 74.8564 39.208 74.8564C40.1467 74.8564 41.256 74.3018 42.536 73.1924C43.9013 71.9978 45.096 70.8031 46.12 69.6084C47.2293 68.4138 47.8267 67.7738 47.912 67.6884C48.0827 67.6884 48.3387 67.9871 48.68 68.5844C49.0213 69.0964 49.192 69.5658 49.192 69.9924C48.8507 70.5898 48.0827 71.5284 46.888 72.8084C45.6933 74.0884 44.2853 75.4111 42.664 76.7764C41.0427 78.1418 39.336 79.3364 37.544 80.3604C35.8373 81.2991 34.2587 81.7684 32.808 81.7684C31.4427 81.7684 30.376 81.1711 29.608 79.9764C28.9253 78.6964 28.584 77.1178 28.584 75.2404C28.584 74.7284 28.6693 73.8324 28.84 72.5524C29.0107 71.2724 29.224 69.9498 29.48 68.5844L35.752 40.6804ZM42.92 0.232422C44.2853 0.232422 45.352 0.744423 46.12 1.76842C46.9733 2.70709 47.4 3.85909 47.4 5.22443C47.4 7.10176 46.76 8.85109 45.48 10.4724C44.2 12.0084 42.5787 12.7764 40.616 12.7764C39.2507 12.7764 38.184 12.2218 37.416 11.1124C36.7333 10.0031 36.392 8.76576 36.392 7.40042C36.392 5.52309 36.9893 3.85909 38.184 2.40842C39.464 0.957756 41.0427 0.232422 42.92 0.232422Z" fill="white"/>
</svg>
