<svg width="508" height="87" viewBox="0 0 508 87" fill="none" xmlns="http://www.w3.org/2000/svg">
<path d="M404.417 44.7836L402.113 55.2796C402.454 54.6823 403.222 53.4876 404.417 51.6956C405.697 49.9036 407.233 47.8983 409.025 45.6796C410.902 43.3756 412.865 41.1569 414.913 39.0236C417.046 36.8903 419.137 35.1409 421.185 33.7756C423.233 32.3249 425.068 31.5996 426.689 31.5996C429.59 31.5996 431.596 32.3676 432.705 33.9036C433.814 35.3543 434.369 37.3596 434.369 39.9196C434.369 41.7969 434.198 44.0156 433.857 46.5756C433.516 49.0503 433.132 51.3543 432.705 53.4876L428.481 72.6876C428.396 73.2849 428.268 74.0529 428.097 74.9916C428.012 75.8449 427.969 76.4423 427.969 76.7836C427.969 77.3809 428.012 78.0636 428.097 78.8316C428.268 79.5143 428.652 79.8556 429.249 79.8556C430.188 79.8556 431.297 79.3009 432.577 78.1916C433.942 76.9969 435.18 75.8023 436.289 74.6076C437.398 73.4129 437.996 72.7729 438.081 72.6876C438.252 72.6876 438.465 72.9863 438.721 73.5836C439.062 74.0956 439.233 74.5649 439.233 74.9916C438.892 75.5889 438.124 76.5276 436.929 77.8076C435.734 79.0876 434.326 80.4103 432.705 81.7756C431.084 83.1409 429.377 84.3356 427.585 85.3596C425.878 86.2983 424.3 86.7676 422.849 86.7676C421.484 86.7676 420.417 86.1703 419.649 84.9756C418.966 83.6956 418.625 82.1169 418.625 80.2396C418.625 79.7276 418.71 78.8316 418.881 77.5516C419.052 76.2716 419.265 74.9489 419.521 73.5836L423.873 52.9756C424.044 52.3783 424.214 51.2689 424.385 49.6476C424.641 48.0263 424.769 46.8743 424.769 46.1916C424.769 44.5703 424.641 43.2903 424.385 42.3516C424.214 41.3276 423.532 40.8156 422.337 40.8156C421.228 40.8156 419.521 41.6263 417.217 43.2476C414.998 44.8689 412.652 47.0876 410.177 49.9036C407.702 52.7196 405.441 55.9196 403.393 59.5036C401.43 63.0876 400.065 66.8423 399.297 70.7676C398.7 73.7543 398.188 76.3143 397.761 78.4476C397.334 80.4956 396.78 83.0129 396.097 85.9996C394.732 86.3409 393.238 86.5116 391.617 86.5116C390.081 86.5116 388.63 86.3409 387.265 85.9996L395.457 45.6796C395.542 45.2529 395.628 44.5703 395.713 43.6316C395.884 42.6076 395.969 41.9249 395.969 41.5836C395.969 41.4983 395.969 41.4129 395.969 41.3276C395.969 40.7303 395.926 40.1329 395.841 39.5356C395.756 38.8529 395.414 38.5116 394.817 38.5116C393.964 38.5116 392.854 39.1089 391.489 40.3036C390.124 41.4129 388.886 42.5649 387.777 43.7596C386.753 44.9543 386.156 45.6369 385.985 45.8076C385.814 45.8076 385.558 45.5089 385.217 44.9116C384.876 44.2289 384.705 43.7169 384.705 43.3756C385.046 42.7783 385.772 41.8396 386.881 40.5596C388.076 39.2796 389.441 37.9569 390.977 36.5916C392.513 35.2263 394.134 34.0743 395.841 33.1356C397.548 32.1116 399.126 31.5996 400.577 31.5996C401.942 31.5996 403.094 32.2396 404.033 33.5196C404.972 34.7143 405.441 36.2503 405.441 38.1276C405.441 38.6396 405.356 39.5356 405.185 40.8156C405.014 42.0956 404.758 43.4183 404.417 44.7836Z" fill="white"/>
<path d="M363.217 45.6804C363.302 45.2538 363.388 44.5711 363.473 43.6324C363.644 42.6084 363.729 41.9258 363.729 41.5844C363.729 41.4991 363.729 41.4138 363.729 41.3284C363.729 40.7311 363.686 40.1338 363.601 39.5364C363.516 38.8538 363.174 38.5124 362.577 38.5124C361.724 38.5124 360.614 39.1098 359.249 40.3044C357.884 41.4138 356.646 42.5658 355.537 43.7604C354.513 44.9551 353.916 45.6378 353.745 45.8084C353.574 45.8084 353.318 45.5098 352.977 44.9124C352.636 44.2298 352.465 43.7178 352.465 43.3764C352.806 42.7791 353.532 41.8404 354.641 40.5604C355.75 39.2804 357.073 37.9578 358.609 36.5924C360.145 35.2271 361.766 34.0751 363.473 33.1364C365.18 32.1124 366.758 31.6004 368.209 31.6004C369.574 31.6004 370.726 32.2404 371.665 33.5204C372.689 34.7151 373.201 36.2511 373.201 38.1284C373.201 38.6404 373.116 39.5364 372.945 40.8164C372.774 42.0964 372.561 43.4191 372.305 44.7844L365.905 72.6884C365.82 73.2858 365.692 74.0538 365.521 74.9924C365.436 75.8458 365.393 76.4431 365.393 76.7844C365.393 77.3818 365.436 78.0644 365.521 78.8324C365.692 79.5151 366.076 79.8564 366.673 79.8564C367.612 79.8564 368.721 79.3018 370.001 78.1924C371.366 76.9978 372.561 75.8031 373.585 74.6084C374.694 73.4138 375.292 72.7738 375.377 72.6884C375.548 72.6884 375.804 72.9871 376.145 73.5844C376.486 74.0964 376.657 74.5658 376.657 74.9924C376.316 75.5898 375.548 76.5284 374.353 77.8084C373.158 79.0884 371.75 80.4111 370.129 81.7764C368.508 83.1418 366.801 84.3364 365.009 85.3604C363.302 86.2991 361.724 86.7684 360.273 86.7684C358.908 86.7684 357.841 86.1711 357.073 84.9764C356.39 83.6964 356.049 82.1178 356.049 80.2404C356.049 79.7284 356.134 78.8324 356.305 77.5524C356.476 76.2724 356.689 74.9498 356.945 73.5844L363.217 45.6804ZM370.385 5.23242C371.75 5.23242 372.817 5.74442 373.585 6.76842C374.438 7.70709 374.865 8.85909 374.865 10.2244C374.865 12.1018 374.225 13.8511 372.945 15.4724C371.665 17.0084 370.044 17.7764 368.081 17.7764C366.716 17.7764 365.649 17.2218 364.881 16.1124C364.198 15.0031 363.857 13.7658 363.857 12.4004C363.857 10.5231 364.454 8.85909 365.649 7.40842C366.929 5.95776 368.508 5.23242 370.385 5.23242Z" fill="white"/>
<path d="M335.635 16.1122C335.806 14.9175 336.019 13.6802 336.275 12.4002C336.617 11.1202 336.787 10.1388 336.787 9.45616C336.787 8.68816 336.318 8.1335 335.379 7.79217C334.441 7.45083 333.374 7.28017 332.179 7.28017C331.07 7.19483 330.131 7.15216 329.363 7.15216C329.278 7.15216 329.193 7.15216 329.107 7.15216C328.937 6.89616 328.894 6.4695 328.979 5.87216C329.15 5.1895 329.363 4.72017 329.619 4.46416C333.118 4.12283 336.403 3.48283 339.475 2.54417C342.547 1.6055 344.766 0.880163 346.131 0.368164C346.473 0.538829 346.686 0.880163 346.771 1.39217C346.857 1.90416 346.899 2.3735 346.899 2.80016C346.899 3.31216 346.686 4.63483 346.259 6.76817C345.918 8.81616 345.577 10.6082 345.235 12.1442L333.459 72.6882C333.374 72.9442 333.289 73.6268 333.203 74.7362C333.118 75.8455 333.075 76.5708 333.075 76.9122C333.075 76.9975 333.075 77.0828 333.075 77.1682C333.075 77.7655 333.118 78.3628 333.203 78.9602C333.289 79.5575 333.63 79.8562 334.227 79.8562C335.166 79.8562 336.275 79.3015 337.555 78.1922C338.921 76.9975 340.158 75.8028 341.267 74.6082C342.377 73.4135 342.974 72.7735 343.059 72.6882C343.23 72.6882 343.443 72.9868 343.699 73.5842C344.041 74.0962 344.211 74.5655 344.211 74.9922C343.87 75.5895 343.102 76.5282 341.907 77.8082C340.798 79.0882 339.433 80.4108 337.811 81.7762C336.19 83.1415 334.483 84.3362 332.691 85.3602C330.985 86.2988 329.406 86.7682 327.955 86.7682C326.59 86.7682 325.523 86.1708 324.755 84.9762C323.987 83.6962 323.603 82.1175 323.603 80.2402C323.603 79.7282 323.689 78.8322 323.859 77.5522C324.03 76.2722 324.243 74.9495 324.499 73.5842C324.755 72.3895 324.883 71.5788 324.883 71.1522C324.969 70.6402 325.054 70.1708 325.139 69.7442C324.627 70.6828 323.731 72.0908 322.451 73.9682C321.257 75.7602 319.763 77.6375 317.971 79.6002C316.179 81.5628 314.302 83.2268 312.339 84.5922C310.377 85.9575 308.457 86.6402 306.579 86.6402C304.019 86.6402 301.929 85.9148 300.307 84.4642C298.686 82.9282 297.491 81.0082 296.723 78.7042C296.041 76.3148 295.699 73.9255 295.699 71.5362C295.699 66.6722 296.766 61.8935 298.899 57.2002C301.033 52.4215 303.849 48.1122 307.347 44.2722C310.846 40.4322 314.643 37.3602 318.739 35.0562C322.921 32.7522 327.059 31.6002 331.155 31.6002H332.819L335.635 16.1122ZM330.259 43.3762C330.515 41.9255 330.259 40.4322 329.491 38.8962C328.809 37.3602 327.614 36.5922 325.907 36.5922C323.347 36.5922 320.83 37.5308 318.355 39.4082C315.881 41.2002 313.619 43.5895 311.571 46.5762C309.609 49.5628 307.987 52.8908 306.707 56.5602C305.513 60.1442 304.915 63.7282 304.915 67.3122C304.915 70.7255 305.385 73.5842 306.323 75.8882C307.347 78.1922 309.011 79.3442 311.315 79.3442C312.937 79.3442 314.601 78.4908 316.307 76.7842C318.099 74.9922 319.806 72.7308 321.427 70.0002C323.134 67.1842 324.627 64.1548 325.907 60.9122C327.187 57.6695 328.126 54.5122 328.723 51.4402L330.259 43.3762Z" fill="white"/>
<path d="M282.322 31.5996C285.565 31.5996 287.741 32.4529 288.85 34.1596C289.959 35.7809 290.514 37.5303 290.514 39.4076C290.514 41.7969 289.746 44.1009 288.21 46.3196C286.759 48.5383 284.797 50.6289 282.322 52.5916C279.933 54.4689 277.373 56.1329 274.642 57.5836C271.997 58.9489 269.437 60.0156 266.962 60.7836C264.487 61.5516 262.482 61.9356 260.946 61.9356C260.861 62.1063 260.775 62.7463 260.69 63.8556C260.69 64.8796 260.69 65.5623 260.69 65.9036C260.69 69.7436 261.33 72.9436 262.61 75.5036C263.89 78.0636 266.109 79.3436 269.266 79.3436C270.717 79.3436 272.167 78.9596 273.618 78.1916C275.069 77.3383 276.434 76.3569 277.714 75.2476C278.994 74.1383 280.018 73.1569 280.786 72.3036C281.639 71.3649 282.109 70.8529 282.194 70.7676C282.365 70.7676 282.621 71.0663 282.962 71.6636C283.389 72.2609 283.602 72.7729 283.602 73.1996C283.175 73.8823 282.322 74.9489 281.042 76.3996C279.762 77.8503 278.226 79.3863 276.434 81.0076C274.642 82.6289 272.722 83.9943 270.674 85.1036C268.626 86.2129 266.621 86.7676 264.658 86.7676C260.221 86.7676 256.807 85.1889 254.418 82.0316C252.029 78.8743 250.834 74.3943 250.834 68.5916C250.834 63.9836 251.773 59.4609 253.65 55.0236C255.613 50.5863 258.13 46.6183 261.202 43.1196C264.274 39.6209 267.645 36.8476 271.314 34.7996C275.069 32.6663 278.738 31.5996 282.322 31.5996ZM261.202 58.7356C262.397 58.7356 264.103 58.3089 266.322 57.4556C268.541 56.5169 270.802 55.2796 273.106 53.7436C275.41 52.1223 277.33 50.2876 278.866 48.2396C280.487 46.1916 281.298 44.0156 281.298 41.7116C281.298 40.0049 280.701 38.7676 279.506 37.9996C278.397 37.1463 277.245 36.7196 276.05 36.7196C273.917 36.7196 271.954 37.5729 270.162 39.2796C268.455 40.9009 266.962 42.9489 265.682 45.4236C264.402 47.8129 263.378 50.2449 262.61 52.7196C261.842 55.1089 261.373 57.1143 261.202 58.7356Z" fill="white"/>
<path d="M231.093 31.6002C233.568 31.6002 235.744 32.4108 237.621 34.0322C239.584 35.6535 240.565 37.7015 240.565 40.1762C240.565 43.9308 239.328 47.1308 236.853 49.7762C234.378 52.3362 231.136 54.4268 227.125 56.0482C223.114 57.5842 218.805 58.7788 214.197 59.6322C217.866 65.0935 220.81 69.2748 223.029 72.1762C225.333 75.0775 227.253 77.0402 228.789 78.0642C230.41 79.0882 232.074 79.6002 233.781 79.6002C234.549 79.6002 235.488 79.1735 236.597 78.3202C237.792 77.3815 238.901 76.3575 239.925 75.2482C241.034 74.1388 241.802 73.2855 242.229 72.6882C242.4 72.6882 242.656 72.9868 242.997 73.5842C243.338 74.1815 243.509 74.6508 243.509 74.9922C243.253 75.4188 242.57 76.2722 241.461 77.5522C240.437 78.7468 239.157 80.0695 237.621 81.5202C236.085 82.8855 234.464 84.0802 232.757 85.1042C231.136 86.0428 229.642 86.5122 228.277 86.5122C225.802 86.5122 223.541 85.7015 221.493 84.0802C219.445 82.3735 217.568 80.2402 215.861 77.6802C214.154 75.1202 212.533 72.4322 210.997 69.6162C209.546 66.8002 208.138 64.2828 206.773 62.0642L202.165 86.0002C200.629 86.4268 199.178 86.6402 197.813 86.6402C196.448 86.6402 194.912 86.4268 193.205 86.0002L206.901 16.1122C207.157 14.9175 207.413 13.6802 207.669 12.4002C207.925 11.1202 208.053 10.1388 208.053 9.45616C208.053 8.68816 207.584 8.1335 206.645 7.79217C205.706 7.45083 204.64 7.28017 203.445 7.28017C202.336 7.19483 201.397 7.15216 200.629 7.15216C200.544 7.15216 200.458 7.15216 200.373 7.15216C200.202 6.89616 200.16 6.4695 200.245 5.87216C200.416 5.1895 200.629 4.72017 200.885 4.46416C204.384 4.12283 207.669 3.48283 210.741 2.54417C213.813 1.6055 216.032 0.880163 217.397 0.368164C217.738 0.538829 217.952 0.880163 218.037 1.39217C218.122 1.90416 218.165 2.3735 218.165 2.80016C218.165 3.31216 217.952 4.63483 217.525 6.76817C217.184 8.81616 216.842 10.6082 216.501 12.1442L209.973 45.8082C210.144 45.6375 210.826 44.8695 212.021 43.5042C213.216 42.0535 214.794 40.3895 216.757 38.5122C218.72 36.6348 220.938 35.0135 223.413 33.6482C225.888 32.2828 228.448 31.6002 231.093 31.6002ZM226.613 37.4882C224.821 37.4882 222.901 38.1708 220.853 39.5362C218.805 40.8162 216.842 42.4802 214.965 44.5282C213.173 46.4908 211.637 48.6242 210.357 50.9282C209.077 53.1468 208.224 55.2375 207.797 57.2002C209.845 57.2002 212.192 56.9015 214.837 56.3042C217.482 55.6215 220 54.6402 222.389 53.3602C224.778 52.0802 226.741 50.4588 228.277 48.4962C229.898 46.5335 230.709 44.2722 230.709 41.7122C230.709 40.5175 230.453 39.5362 229.941 38.7682C229.429 37.9148 228.32 37.4882 226.613 37.4882Z" fill="white"/>
<path d="M150.792 44.7836L148.488 55.2796C148.829 54.6823 149.597 53.4876 150.792 51.6956C152.072 49.9036 153.608 47.8983 155.4 45.6796C157.277 43.3756 159.24 41.1569 161.288 39.0236C163.421 36.8903 165.512 35.1409 167.56 33.7756C169.608 32.3249 171.443 31.5996 173.064 31.5996C175.965 31.5996 177.971 32.3676 179.08 33.9036C180.189 35.3543 180.744 37.3596 180.744 39.9196C180.744 41.7969 180.573 44.0156 180.232 46.5756C179.891 49.0503 179.507 51.3543 179.08 53.4876L174.856 72.6876C174.771 73.2849 174.643 74.0529 174.472 74.9916C174.387 75.8449 174.344 76.4423 174.344 76.7836C174.344 77.3809 174.387 78.0636 174.472 78.8316C174.643 79.5143 175.027 79.8556 175.624 79.8556C176.563 79.8556 177.672 79.3009 178.952 78.1916C180.317 76.9969 181.555 75.8023 182.664 74.6076C183.773 73.4129 184.371 72.7729 184.456 72.6876C184.627 72.6876 184.84 72.9863 185.096 73.5836C185.437 74.0956 185.608 74.5649 185.608 74.9916C185.267 75.5889 184.499 76.5276 183.304 77.8076C182.109 79.0876 180.701 80.4103 179.08 81.7756C177.459 83.1409 175.752 84.3356 173.96 85.3596C172.253 86.2983 170.675 86.7676 169.224 86.7676C167.859 86.7676 166.792 86.1703 166.024 84.9756C165.341 83.6956 165 82.1169 165 80.2396C165 79.7276 165.085 78.8316 165.256 77.5516C165.427 76.2716 165.64 74.9489 165.896 73.5836L170.248 52.9756C170.419 52.3783 170.589 51.2689 170.76 49.6476C171.016 48.0263 171.144 46.8743 171.144 46.1916C171.144 44.5703 171.016 43.2903 170.76 42.3516C170.589 41.3276 169.907 40.8156 168.712 40.8156C167.603 40.8156 165.896 41.6263 163.592 43.2476C161.373 44.8689 159.027 47.0876 156.552 49.9036C154.077 52.7196 151.816 55.9196 149.768 59.5036C147.805 63.0876 146.44 66.8423 145.672 70.7676C145.075 73.7543 144.563 76.3143 144.136 78.4476C143.709 80.4956 143.155 83.0129 142.472 85.9996C141.107 86.3409 139.613 86.5116 137.992 86.5116C136.456 86.5116 135.005 86.3409 133.64 85.9996L141.832 45.6796C141.917 45.2529 142.003 44.5703 142.088 43.6316C142.259 42.6076 142.344 41.9249 142.344 41.5836C142.344 41.4983 142.344 41.4129 142.344 41.3276C142.344 40.7303 142.301 40.1329 142.216 39.5356C142.131 38.8529 141.789 38.5116 141.192 38.5116C140.339 38.5116 139.229 39.1089 137.864 40.3036C136.499 41.4129 135.261 42.5649 134.152 43.7596C133.128 44.9543 132.531 45.6369 132.36 45.8076C132.189 45.8076 131.933 45.5089 131.592 44.9116C131.251 44.2289 131.08 43.7169 131.08 43.3756C131.421 42.7783 132.147 41.8396 133.256 40.5596C134.451 39.2796 135.816 37.9569 137.352 36.5916C138.888 35.2263 140.509 34.0743 142.216 33.1356C143.923 32.1116 145.501 31.5996 146.952 31.5996C148.317 31.5996 149.469 32.2396 150.408 33.5196C151.347 34.7143 151.816 36.2503 151.816 38.1276C151.816 38.6396 151.731 39.5356 151.56 40.8156C151.389 42.0956 151.133 43.4183 150.792 44.7836Z" fill="white"/>
<path d="M109.592 45.6804C109.677 45.2538 109.763 44.5711 109.848 43.6324C110.019 42.6084 110.104 41.9258 110.104 41.5844C110.104 41.4991 110.104 41.4138 110.104 41.3284C110.104 40.7311 110.061 40.1338 109.976 39.5364C109.891 38.8538 109.549 38.5124 108.952 38.5124C108.099 38.5124 106.989 39.1098 105.624 40.3044C104.259 41.4138 103.021 42.5658 101.912 43.7604C100.888 44.9551 100.291 45.6378 100.12 45.8084C99.9492 45.8084 99.6932 45.5098 99.3518 44.9124C99.0105 44.2298 98.8398 43.7178 98.8398 43.3764C99.1812 42.7791 99.9065 41.8404 101.016 40.5604C102.125 39.2804 103.448 37.9578 104.984 36.5924C106.52 35.2271 108.141 34.0751 109.848 33.1364C111.555 32.1124 113.133 31.6004 114.584 31.6004C115.949 31.6004 117.101 32.2404 118.04 33.5204C119.064 34.7151 119.576 36.2511 119.576 38.1284C119.576 38.6404 119.491 39.5364 119.32 40.8164C119.149 42.0964 118.936 43.4191 118.68 44.7844L112.28 72.6884C112.195 73.2858 112.067 74.0538 111.896 74.9924C111.811 75.8458 111.768 76.4431 111.768 76.7844C111.768 77.3818 111.811 78.0644 111.896 78.8324C112.067 79.5151 112.451 79.8564 113.048 79.8564C113.987 79.8564 115.096 79.3018 116.376 78.1924C117.741 76.9978 118.936 75.8031 119.96 74.6084C121.069 73.4138 121.667 72.7738 121.752 72.6884C121.923 72.6884 122.179 72.9871 122.52 73.5844C122.861 74.0964 123.032 74.5658 123.032 74.9924C122.691 75.5898 121.923 76.5284 120.728 77.8084C119.533 79.0884 118.125 80.4111 116.504 81.7764C114.883 83.1418 113.176 84.3364 111.384 85.3604C109.677 86.2991 108.099 86.7684 106.648 86.7684C105.283 86.7684 104.216 86.1711 103.448 84.9764C102.765 83.6964 102.424 82.1178 102.424 80.2404C102.424 79.7284 102.509 78.8324 102.68 77.5524C102.851 76.2724 103.064 74.9498 103.32 73.5844L109.592 45.6804ZM116.76 5.23242C118.125 5.23242 119.192 5.74442 119.96 6.76842C120.813 7.70709 121.24 8.85909 121.24 10.2244C121.24 12.1018 120.6 13.8511 119.32 15.4724C118.04 17.0084 116.419 17.7764 114.456 17.7764C113.091 17.7764 112.024 17.2218 111.256 16.1124C110.573 15.0031 110.232 13.7658 110.232 12.4004C110.232 10.5231 110.829 8.85909 112.024 7.40842C113.304 5.95776 114.883 5.23242 116.76 5.23242Z" fill="white"/>
<path d="M82.16 16.1122C82.416 14.9175 82.672 13.6802 82.928 12.4002C83.184 11.1202 83.312 10.1388 83.312 9.45616C83.312 8.68816 82.8427 8.1335 81.904 7.79217C80.9653 7.45083 79.8987 7.28017 78.704 7.28017C77.5947 7.19483 76.656 7.15216 75.888 7.15216C75.8027 7.15216 75.7173 7.15216 75.632 7.15216C75.4613 6.89616 75.4187 6.4695 75.504 5.87216C75.6747 5.1895 75.888 4.72017 76.144 4.46416C79.6427 4.12283 82.928 3.48283 86 2.54417C89.072 1.6055 91.2907 0.880163 92.656 0.368164C92.9973 0.538829 93.2107 0.880163 93.296 1.39217C93.3813 1.90416 93.424 2.3735 93.424 2.80016C93.424 3.31216 93.2107 4.63483 92.784 6.76817C92.4427 8.81616 92.1013 10.6082 91.76 12.1442L79.856 72.6882C79.7707 72.9442 79.6427 73.6268 79.472 74.7362C79.3867 75.7602 79.344 76.4428 79.344 76.7842C79.344 77.3815 79.3867 78.0642 79.472 78.8322C79.6427 79.5148 80.0267 79.8562 80.624 79.8562C81.5627 79.8562 82.672 79.3015 83.952 78.1922C85.3173 76.9975 86.5547 75.8028 87.664 74.6082C88.7733 73.4135 89.3707 72.7735 89.456 72.6882C89.6267 72.6882 89.84 72.9868 90.096 73.5842C90.4373 74.0962 90.608 74.5655 90.608 74.9922C90.2667 75.5895 89.4987 76.5282 88.304 77.8082C87.1093 79.0882 85.7013 80.4108 84.08 81.7762C82.4587 83.1415 80.752 84.3362 78.96 85.3602C77.2533 86.2988 75.6747 86.7682 74.224 86.7682C72.8587 86.7682 71.792 86.1708 71.024 84.9762C70.3413 83.6962 70 82.1175 70 80.2402C70 79.7282 70.0853 78.8322 70.256 77.5522C70.4267 76.2722 70.64 74.9495 70.896 73.5842L82.16 16.1122Z" fill="white"/>
</svg>
