<svg width="508" height="56" viewBox="0 0 508 56" fill="none" xmlns="http://www.w3.org/2000/svg">
<path d="M359.418 42.5836C359.845 40.4503 360.229 38.6583 360.57 37.2076C360.911 35.6716 361.295 33.8369 361.722 31.7036C360.954 33.4956 359.589 35.7143 357.626 38.3596C355.663 41.0049 353.445 43.6929 350.97 46.4236C348.495 49.0689 345.978 51.2876 343.418 53.0796C340.858 54.8716 338.554 55.7676 336.506 55.7676C334.117 55.7676 332.495 54.8716 331.642 53.0796C330.789 51.2876 330.362 49.1969 330.362 46.8076C330.362 45.1009 330.533 42.9676 330.874 40.4076C331.301 37.8476 331.685 35.6716 332.026 33.8796L336.25 14.6796C336.335 14.2529 336.421 13.5703 336.506 12.6316C336.591 11.6076 336.634 10.9249 336.634 10.5836C336.634 10.4983 336.634 10.4129 336.634 10.3276C336.634 9.73028 336.591 9.13294 336.506 8.53561C336.421 7.85294 336.079 7.51161 335.482 7.51161C334.629 7.51161 333.519 8.10894 332.154 9.30361C330.789 10.4129 329.551 11.5649 328.442 12.7596C327.418 13.9543 326.821 14.6369 326.65 14.8076C326.479 14.8076 326.223 14.5089 325.882 13.9116C325.626 13.2289 325.498 12.7169 325.498 12.3756C325.839 11.7783 326.565 10.8396 327.674 9.55961C328.783 8.27961 330.106 6.95694 331.642 5.59161C333.178 4.22628 334.799 3.07428 336.506 2.13561C338.213 1.11161 339.791 0.599609 341.242 0.599609C342.607 0.599609 343.759 1.23961 344.698 2.51961C345.637 3.71427 346.106 5.25027 346.106 7.12761C346.106 7.63961 346.021 8.53561 345.85 9.81561C345.679 11.0956 345.466 12.4183 345.21 13.7836L340.858 34.3916C340.773 34.9889 340.602 36.0983 340.346 37.7196C340.09 39.3409 339.962 40.4929 339.962 41.1756C339.962 42.5409 340.047 43.7783 340.218 44.8876C340.474 45.9969 341.157 46.5516 342.266 46.5516C343.375 46.5516 344.997 45.6556 347.13 43.8636C349.263 42.0716 351.525 39.6823 353.914 36.6956C356.389 33.6236 358.607 30.2529 360.57 26.5836C362.533 22.8289 363.898 18.9889 364.666 15.0636C365.178 12.5036 365.647 10.2423 366.074 8.27961C366.501 6.31694 366.97 4.01294 367.482 1.36761C368.591 1.02628 369.871 0.85561 371.322 0.85561C372.005 0.85561 372.773 0.898276 373.626 0.983608C374.565 1.06894 375.418 1.19694 376.186 1.36761L368.378 41.6876C368.293 42.2849 368.207 43.0529 368.122 43.9916C368.037 44.8449 367.994 45.4423 367.994 45.7836C367.994 45.8689 367.994 45.9543 367.994 46.0396C367.994 46.6369 368.037 47.2769 368.122 47.9596C368.207 48.5569 368.549 48.8556 369.146 48.8556C370.085 48.8556 371.194 48.3009 372.474 47.1916C373.839 45.9969 375.077 44.8023 376.186 43.6076C377.295 42.4129 377.893 41.7729 377.978 41.6876C378.149 41.6876 378.362 41.9863 378.618 42.5836C378.959 43.0956 379.13 43.5649 379.13 43.9916C378.789 44.5889 378.021 45.5276 376.826 46.8076C375.717 48.0876 374.351 49.4103 372.73 50.7756C371.109 52.1409 369.402 53.3356 367.61 54.3596C365.903 55.2983 364.325 55.7676 362.874 55.7676C361.509 55.7676 360.442 55.1703 359.674 53.9756C358.906 52.6956 358.522 51.1169 358.522 49.2396C358.522 48.7276 358.607 47.8316 358.778 46.5516C358.949 45.2716 359.162 43.9489 359.418 42.5836Z" fill="white"/>
<path d="M283.212 13.7836L280.908 24.2796C281.249 23.6823 282.017 22.4876 283.212 20.6956C284.492 18.9036 286.028 16.8983 287.82 14.6796C289.697 12.3756 291.66 10.1569 293.708 8.02361C295.841 5.89028 297.932 4.14094 299.98 2.77561C302.028 1.32494 303.863 0.599609 305.484 0.599609C308.385 0.599609 310.391 1.36761 311.5 2.90361C312.609 4.35428 313.164 6.35961 313.164 8.91961C313.164 10.7969 312.993 13.0156 312.652 15.5756C312.311 18.0503 311.927 20.3543 311.5 22.4876L307.276 41.6876C307.191 42.2849 307.063 43.0529 306.892 43.9916C306.807 44.8449 306.764 45.4423 306.764 45.7836C306.764 46.3809 306.807 47.0636 306.892 47.8316C307.063 48.5143 307.447 48.8556 308.044 48.8556C308.983 48.8556 310.092 48.3009 311.372 47.1916C312.737 45.9969 313.975 44.8023 315.084 43.6076C316.193 42.4129 316.791 41.7729 316.876 41.6876C317.047 41.6876 317.26 41.9863 317.516 42.5836C317.857 43.0956 318.028 43.5649 318.028 43.9916C317.687 44.5889 316.919 45.5276 315.724 46.8076C314.529 48.0876 313.121 49.4103 311.5 50.7756C309.879 52.1409 308.172 53.3356 306.38 54.3596C304.673 55.2983 303.095 55.7676 301.644 55.7676C300.279 55.7676 299.212 55.1703 298.444 53.9756C297.761 52.6956 297.42 51.1169 297.42 49.2396C297.42 48.7276 297.505 47.8316 297.676 46.5516C297.847 45.2716 298.06 43.9489 298.316 42.5836L302.668 21.9756C302.839 21.3783 303.009 20.2689 303.18 18.6476C303.436 17.0263 303.564 15.8743 303.564 15.1916C303.564 13.5703 303.436 12.2903 303.18 11.3516C303.009 10.3276 302.327 9.81561 301.132 9.81561C300.023 9.81561 298.316 10.6263 296.012 12.2476C293.793 13.8689 291.447 16.0876 288.972 18.9036C286.497 21.7196 284.236 24.9196 282.188 28.5036C280.225 32.0876 278.86 35.8423 278.092 39.7676C277.495 42.7543 276.983 45.3143 276.556 47.4476C276.129 49.4956 275.575 52.0129 274.892 54.9996C273.527 55.3409 272.033 55.5116 270.412 55.5116C268.876 55.5116 267.425 55.3409 266.06 54.9996L274.252 14.6796C274.337 14.2529 274.423 13.5703 274.508 12.6316C274.679 11.6076 274.764 10.9249 274.764 10.5836C274.764 10.4983 274.764 10.4129 274.764 10.3276C274.764 9.73028 274.721 9.13294 274.636 8.53561C274.551 7.85294 274.209 7.51161 273.612 7.51161C272.759 7.51161 271.649 8.10894 270.284 9.30361C268.919 10.4129 267.681 11.5649 266.572 12.7596C265.548 13.9543 264.951 14.6369 264.78 14.8076C264.609 14.8076 264.353 14.5089 264.012 13.9116C263.671 13.2289 263.5 12.7169 263.5 12.3756C263.841 11.7783 264.567 10.8396 265.676 9.55961C266.871 8.27961 268.236 6.95694 269.772 5.59161C271.308 4.22628 272.929 3.07428 274.636 2.13561C276.343 1.11161 277.921 0.599609 279.372 0.599609C280.737 0.599609 281.889 1.23961 282.828 2.51961C283.767 3.71427 284.236 5.25027 284.236 7.12761C284.236 7.63961 284.151 8.53561 283.98 9.81561C283.809 11.0956 283.553 12.4183 283.212 13.7836Z" fill="white"/>
<path d="M249.867 0.599609C253.11 0.599609 255.286 1.45294 256.395 3.15961C257.504 4.78094 258.059 6.53028 258.059 8.40761C258.059 10.7969 257.291 13.1009 255.755 15.3196C254.304 17.5383 252.342 19.6289 249.867 21.5916C247.478 23.4689 244.918 25.1329 242.187 26.5836C239.542 27.9489 236.982 29.0156 234.507 29.7836C232.032 30.5516 230.027 30.9356 228.491 30.9356C228.406 31.1063 228.32 31.7463 228.235 32.8556C228.235 33.8796 228.235 34.5623 228.235 34.9036C228.235 38.7436 228.875 41.9436 230.155 44.5036C231.435 47.0636 233.654 48.3436 236.811 48.3436C238.262 48.3436 239.712 47.9596 241.163 47.1916C242.614 46.3383 243.979 45.3569 245.259 44.2476C246.539 43.1383 247.563 42.1569 248.331 41.3036C249.184 40.3649 249.654 39.8529 249.739 39.7676C249.91 39.7676 250.166 40.0663 250.507 40.6636C250.934 41.2609 251.147 41.7729 251.147 42.1996C250.72 42.8823 249.867 43.9489 248.587 45.3996C247.307 46.8503 245.771 48.3863 243.979 50.0076C242.187 51.6289 240.267 52.9943 238.219 54.1036C236.171 55.2129 234.166 55.7676 232.203 55.7676C227.766 55.7676 224.352 54.1889 221.963 51.0316C219.574 47.8743 218.379 43.3943 218.379 37.5916C218.379 32.9836 219.318 28.4609 221.195 24.0236C223.158 19.5863 225.675 15.6183 228.747 12.1196C231.819 8.62094 235.19 5.84761 238.859 3.79961C242.614 1.66628 246.283 0.599609 249.867 0.599609ZM228.747 27.7356C229.942 27.7356 231.648 27.3089 233.867 26.4556C236.086 25.5169 238.347 24.2796 240.651 22.7436C242.955 21.1223 244.875 19.2876 246.411 17.2396C248.032 15.1916 248.843 13.0156 248.843 10.7116C248.843 9.00494 248.246 7.76761 247.051 6.99961C245.942 6.14627 244.79 5.71961 243.595 5.71961C241.462 5.71961 239.499 6.57294 237.707 8.27961C236 9.90094 234.507 11.9489 233.227 14.4236C231.947 16.8129 230.923 19.2449 230.155 21.7196C229.387 24.1089 228.918 26.1143 228.747 27.7356Z" fill="white"/>
<path d="M190.952 42.5836L195.304 21.9756C195.475 21.3783 195.645 20.2689 195.816 18.6476C196.072 17.0263 196.2 15.8743 196.2 15.1916C196.2 13.5703 196.072 12.2903 195.816 11.3516C195.645 10.3276 194.963 9.81561 193.768 9.81561C192.488 9.81561 190.781 10.7116 188.648 12.5036C186.515 14.2103 184.253 16.5143 181.864 19.4156C179.56 22.2316 177.469 25.3463 175.592 28.7596C173.8 32.0876 172.605 35.3303 172.008 38.4876L168.936 54.9996C168.083 55.0849 167.315 55.1703 166.632 55.2556C166.035 55.3409 165.267 55.3836 164.328 55.3836C163.475 55.3836 162.749 55.3409 162.152 55.2556C161.555 55.1703 160.829 55.0849 159.976 54.9996L166.888 19.5436C167.059 18.5196 167.187 17.6236 167.272 16.8556C167.357 16.0876 167.4 15.4049 167.4 14.8076C167.4 11.4796 166.589 9.81561 164.968 9.81561C163.603 9.81561 161.853 10.7969 159.72 12.7596C157.587 14.7223 155.368 17.2396 153.064 20.3116C150.845 23.3836 148.883 26.6689 147.176 30.1676C145.469 33.5809 144.275 36.7809 143.592 39.7676L140.392 54.9996C139.112 55.3409 137.619 55.5116 135.912 55.5116C135.059 55.5116 134.291 55.4263 133.608 55.2556C133.011 55.1703 132.328 55.0849 131.56 54.9996L139.752 14.6796C139.837 14.2529 139.923 13.5703 140.008 12.6316C140.179 11.6076 140.264 10.9249 140.264 10.5836C140.264 10.4983 140.264 10.4129 140.264 10.3276C140.264 9.73028 140.221 9.13294 140.136 8.53561C140.051 7.85294 139.709 7.51161 139.112 7.51161C138.259 7.51161 137.149 8.10894 135.784 9.30361C134.419 10.4129 133.181 11.5649 132.072 12.7596C131.048 13.9543 130.451 14.6369 130.28 14.8076C130.109 14.8076 129.853 14.5089 129.512 13.9116C129.171 13.2289 129 12.7169 129 12.3756C129.341 11.7783 130.067 10.8396 131.176 9.55961C132.371 8.27961 133.736 6.95694 135.272 5.59161C136.808 4.22628 138.429 3.07428 140.136 2.13561C141.843 1.11161 143.421 0.599609 144.872 0.599609C146.237 0.599609 147.389 1.23961 148.328 2.51961C149.267 3.71427 149.736 5.25027 149.736 7.12761C149.736 7.63961 149.608 8.53561 149.352 9.81561C149.181 11.0956 148.968 12.4183 148.712 13.7836C148.285 16.0023 147.859 17.9649 147.432 19.6716C147.091 21.2929 146.664 23.2129 146.152 25.4316C147.261 23.4689 148.712 21.0796 150.504 18.2636C152.381 15.4476 154.387 12.7169 156.52 10.0716C158.653 7.34094 160.744 5.07961 162.792 3.28761C164.925 1.49561 166.803 0.599609 168.424 0.599609C170.899 0.599609 172.733 1.23961 173.928 2.51961C175.123 3.71427 175.891 5.20761 176.232 6.99961C176.659 8.79161 176.872 10.6263 176.872 12.5036C176.872 13.4423 176.787 14.6796 176.616 16.2156C176.445 17.6663 176.189 19.0743 175.848 20.4396C175.592 21.8049 175.336 22.8716 175.08 23.6396C176.189 21.6769 177.683 19.4156 179.56 16.8556C181.523 14.2103 183.613 11.6503 185.832 9.17561C188.051 6.70094 190.227 4.65294 192.36 3.03161C194.579 1.41028 196.499 0.599609 198.12 0.599609C201.021 0.599609 203.027 1.36761 204.136 2.90361C205.245 4.35428 205.8 6.35961 205.8 8.91961C205.8 11.0529 205.587 13.3569 205.16 15.8316C204.819 18.3063 204.435 20.5249 204.008 22.4876L199.912 41.6876C199.827 42.2849 199.699 43.0529 199.528 43.9916C199.443 44.8449 199.4 45.4423 199.4 45.7836C199.4 46.3809 199.443 47.0636 199.528 47.8316C199.699 48.5143 200.083 48.8556 200.68 48.8556C201.619 48.8556 202.728 48.3009 204.008 47.1916C205.373 45.9969 206.568 44.8023 207.592 43.6076C208.701 42.4129 209.299 41.7729 209.384 41.6876C209.555 41.6876 209.811 41.9863 210.152 42.5836C210.493 43.0956 210.664 43.5649 210.664 43.9916C210.323 44.5889 209.555 45.5276 208.36 46.8076C207.165 48.0876 205.757 49.4103 204.136 50.7756C202.515 52.1409 200.808 53.3356 199.016 54.3596C197.309 55.2983 195.731 55.7676 194.28 55.7676C192.915 55.7676 191.848 55.1703 191.08 53.9756C190.397 52.6956 190.056 51.1169 190.056 49.2396C190.056 48.7276 190.141 47.8316 190.312 46.5516C190.483 45.2716 190.696 43.9489 190.952 42.5836Z" fill="white"/>
</svg>
