<svg width="508" height="87" viewBox="0 0 508 87" fill="none" xmlns="http://www.w3.org/2000/svg">
<path d="M361.424 31.5996C364.666 31.5996 366.842 32.4529 367.952 34.1596C369.061 35.7809 369.616 37.5303 369.616 39.4076C369.616 41.7969 368.848 44.1009 367.312 46.3196C365.861 48.5383 363.898 50.6289 361.424 52.5916C359.034 54.4689 356.474 56.1329 353.744 57.5836C351.098 58.9489 348.538 60.0156 346.064 60.7836C343.589 61.5516 341.584 61.9356 340.048 61.9356C339.962 62.1063 339.877 62.7463 339.792 63.8556C339.792 64.8796 339.792 65.5623 339.792 65.9036C339.792 69.7436 340.432 72.9436 341.712 75.5036C342.992 78.0636 345.21 79.3436 348.368 79.3436C349.818 79.3436 351.269 78.9596 352.72 78.1916C354.17 77.3383 355.536 76.3569 356.816 75.2476C358.096 74.1383 359.12 73.1569 359.888 72.3036C360.741 71.3649 361.21 70.8529 361.296 70.7676C361.466 70.7676 361.722 71.0663 362.064 71.6636C362.49 72.2609 362.704 72.7729 362.704 73.1996C362.277 73.8823 361.424 74.9489 360.144 76.3996C358.864 77.8503 357.328 79.3863 355.536 81.0076C353.744 82.6289 351.824 83.9943 349.776 85.1036C347.728 86.2129 345.722 86.7676 343.76 86.7676C339.322 86.7676 335.909 85.1889 333.52 82.0316C331.13 78.8743 329.936 74.3943 329.936 68.5916C329.936 63.9836 330.874 59.4609 332.752 55.0236C334.714 50.5863 337.232 46.6183 340.304 43.1196C343.376 39.6209 346.746 36.8476 350.416 34.7996C354.17 32.6663 357.84 31.5996 361.424 31.5996ZM340.304 58.7356C341.498 58.7356 343.205 58.3089 345.424 57.4556C347.642 56.5169 349.904 55.2796 352.208 53.7436C354.512 52.1223 356.432 50.2876 357.968 48.2396C359.589 46.1916 360.4 44.0156 360.4 41.7116C360.4 40.0049 359.802 38.7676 358.608 37.9996C357.498 37.1463 356.346 36.7196 355.152 36.7196C353.018 36.7196 351.056 37.5729 349.264 39.2796C347.557 40.9009 346.064 42.9489 344.784 45.4236C343.504 47.8129 342.48 50.2449 341.712 52.7196C340.944 55.1089 340.474 57.1143 340.304 58.7356Z" fill="white"/>
<path d="M321.644 31.5996C323.009 31.5996 324.204 31.8983 325.228 32.4956C326.337 33.0076 327.19 33.6049 327.788 34.2876C328.47 35.1409 328.812 36.2929 328.812 37.7436C328.812 39.3649 328.428 40.6876 327.66 41.7116C326.892 42.7356 325.782 43.2476 324.332 43.2476C322.966 43.2476 321.729 42.6076 320.62 41.3276C320.108 40.7303 319.254 40.4316 318.06 40.4316C316.95 40.4316 315.542 41.3703 313.836 43.2476C312.129 45.1249 310.38 47.5996 308.588 50.6716C306.881 53.7436 305.302 57.0716 303.852 60.6556C302.401 64.1543 301.377 67.5249 300.78 70.7676L297.964 85.9996C296.598 86.2556 295.19 86.3836 293.74 86.3836C292.204 86.3836 290.668 86.2556 289.132 85.9996L296.556 45.6796C296.641 45.2529 296.726 44.5703 296.812 43.6316C296.982 42.6076 297.068 41.9249 297.068 41.5836C297.068 41.4983 297.068 41.4129 297.068 41.3276C297.068 40.7303 297.025 40.1329 296.94 39.5356C296.854 38.8529 296.513 38.5116 295.916 38.5116C295.062 38.5116 293.953 39.1089 292.588 40.3036C291.222 41.4129 289.985 42.5649 288.876 43.7596C287.852 44.9543 287.254 45.6369 287.084 45.8076C286.913 45.8076 286.657 45.5089 286.316 44.9116C286.06 44.2289 285.932 43.7169 285.932 43.3756C286.273 42.7783 286.998 41.8396 288.108 40.5596C289.217 39.2796 290.54 37.9569 292.076 36.5916C293.612 35.2263 295.233 34.0743 296.94 33.1356C298.646 32.1116 300.225 31.5996 301.676 31.5996C303.041 31.5996 304.193 32.2396 305.132 33.5196C306.07 34.7143 306.54 36.2503 306.54 38.1276C306.54 38.6396 306.412 39.5356 306.156 40.8156C305.985 42.0956 305.772 43.4183 305.516 44.7836C305.174 46.8316 304.833 48.5809 304.492 50.0316C304.15 51.4823 303.766 53.2316 303.34 55.2796C304.193 53.2316 305.345 50.8849 306.796 48.2396C308.246 45.5089 309.825 42.9063 311.532 40.4316C313.324 37.8716 315.073 35.7809 316.78 34.1596C318.572 32.4529 320.193 31.5996 321.644 31.5996Z" fill="white"/>
<path d="M247.665 50.4162C250.566 45.5522 253.425 41.7548 256.241 39.0242C259.142 36.2935 261.745 34.3735 264.049 33.2642C266.438 32.1548 268.273 31.6002 269.553 31.6002C272.454 31.6002 274.63 32.9228 276.081 35.5682C277.532 38.1282 278.257 41.5415 278.257 45.8082C278.257 51.4402 277.233 56.7308 275.185 61.6802C273.222 66.6295 270.662 70.9815 267.505 74.7362C264.348 78.4908 260.934 81.4348 257.265 83.5682C253.596 85.7015 250.097 86.7682 246.769 86.7682C243.27 86.7682 240.454 85.4882 238.321 82.9282C236.188 80.3682 235.121 76.7842 235.121 72.1762C235.121 71.4935 235.206 70.5548 235.377 69.3602C235.633 68.0802 235.804 67.0562 235.889 66.2882L245.745 16.1122C246.001 14.9175 246.257 13.6802 246.513 12.4002C246.769 11.1202 246.897 10.1388 246.897 9.45616C246.897 8.68816 246.428 8.1335 245.489 7.79217C244.55 7.45083 243.484 7.28017 242.289 7.28017C241.18 7.19483 240.241 7.15216 239.473 7.15216C239.388 7.15216 239.302 7.15216 239.217 7.15216C239.046 6.89616 239.004 6.4695 239.089 5.87216C239.26 5.1895 239.473 4.72017 239.729 4.46416C243.228 4.12283 246.513 3.48283 249.585 2.54417C252.657 1.6055 254.876 0.880163 256.241 0.368164C256.582 0.538829 256.796 0.880163 256.881 1.39217C256.966 1.90416 257.009 2.3735 257.009 2.80016C257.009 3.31216 256.796 4.63483 256.369 6.76817C256.028 8.81616 255.686 10.6082 255.345 12.1442L247.665 50.4162ZM264.177 38.5122C262.812 38.5122 261.148 39.3228 259.185 40.9442C257.308 42.5655 255.345 44.7415 253.297 47.4722C251.334 50.1175 249.542 53.1042 247.921 56.4322C246.3 59.7602 245.148 63.1308 244.465 66.5442C243.441 71.5788 243.398 75.5468 244.337 78.4482C245.361 81.2642 247.324 82.6722 250.225 82.6722C252.358 82.6722 254.364 81.8188 256.241 80.1122C258.118 78.4055 259.825 76.1868 261.361 73.4562C262.897 70.7255 264.22 67.8242 265.329 64.7522C266.524 61.5948 267.42 58.5655 268.017 55.6642C268.7 52.7628 269.041 50.2882 269.041 48.2402C269.041 45.9362 268.785 43.7602 268.273 41.7122C267.761 39.5788 266.396 38.5122 264.177 38.5122Z" fill="white"/>
<path d="M209.354 31.5996C214.388 31.5996 218.058 33.3489 220.362 36.8476C222.751 40.2609 223.946 44.6556 223.946 50.0316C223.946 54.3836 223.135 58.7356 221.514 63.0876C219.978 67.4396 217.844 71.4076 215.114 74.9916C212.383 78.4903 209.311 81.3063 205.897 83.4396C202.569 85.5729 199.114 86.6396 195.53 86.6396C190.58 86.6396 186.911 85.0183 184.521 81.7756C182.132 78.4476 180.938 74.0956 180.938 68.7196C180.938 64.3676 181.706 60.0156 183.242 55.6636C184.863 51.2263 187.039 47.2156 189.77 43.6316C192.5 39.9623 195.529 37.0609 198.857 34.9276C202.271 32.7089 205.77 31.5996 209.354 31.5996ZM207.562 35.5676C204.916 35.5676 202.569 36.5489 200.521 38.5116C198.473 40.4743 196.724 43.0343 195.273 46.1916C193.823 49.3489 192.713 52.7196 191.945 56.3036C191.177 59.8023 190.793 63.1303 190.793 66.2876C190.793 71.2369 191.391 75.2049 192.586 78.1916C193.866 81.1783 195.615 82.6716 197.833 82.6716C200.394 82.6716 202.697 81.6903 204.745 79.7276C206.793 77.6796 208.5 75.0769 209.866 71.9196C211.316 68.7623 212.383 65.4343 213.066 61.9356C213.834 58.3516 214.217 54.9809 214.217 51.8236C214.217 46.7889 213.663 42.8209 212.553 39.9196C211.444 37.0183 209.78 35.5676 207.562 35.5676Z" fill="white"/>
<path d="M162.576 31.2158C165.051 31.2158 167.099 31.5145 168.72 32.1118C170.427 32.6238 171.963 33.4772 173.328 34.6718C173.669 35.0985 173.968 35.7812 174.224 36.7198C174.48 37.5732 174.608 38.2132 174.608 38.6398C174.608 40.0052 174.224 41.1998 173.456 42.2238C172.688 43.2478 171.664 43.7598 170.384 43.7598C169.275 43.7598 168.208 43.3332 167.184 42.4798C166.245 41.5412 165.349 40.5172 164.496 39.4078C163.813 38.3838 163.088 37.4878 162.32 36.7198C161.637 35.8665 160.4 35.4398 158.608 35.4398C156.475 35.4398 154.896 36.2932 153.872 37.9998C152.933 39.6212 152.464 41.1145 152.464 42.4798C152.464 44.9545 153.36 47.2585 155.152 49.3918C157.029 51.4398 158.907 53.5732 160.784 55.7918C162.747 58.0105 164.496 60.3998 166.032 62.9598C167.568 65.4345 168.336 68.2505 168.336 71.4078C168.336 76.0158 166.629 79.7278 163.216 82.5438C159.888 85.3598 155.579 86.7678 150.288 86.7678C148.411 86.7678 146.491 86.5118 144.528 85.9998C142.651 85.4025 140.901 84.4212 139.28 83.0558C139.109 82.7145 138.853 82.1598 138.512 81.3918C138.171 80.5385 138 79.8132 138 79.2158C138 77.4238 138.427 76.0158 139.28 74.9918C140.219 73.9678 141.328 73.4558 142.608 73.4558C143.888 73.4558 144.869 74.0532 145.552 75.2478C146.235 76.4425 147.045 77.7225 147.984 79.0878C148.667 80.0265 149.52 80.8798 150.544 81.6478C151.653 82.4158 153.019 82.7998 154.64 82.7998C156.347 82.7998 157.627 82.3732 158.48 81.5198C159.333 80.6665 159.931 79.6852 160.272 78.5758C160.613 77.3812 160.784 76.3572 160.784 75.5038C160.784 73.2852 160.101 71.2798 158.736 69.4878C157.371 67.6958 155.877 65.8612 154.256 63.9838C152.123 61.5092 150.075 58.9492 148.112 56.3038C146.235 53.6585 145.296 50.5438 145.296 46.9598C145.296 44.5705 145.979 42.1812 147.344 39.7918C148.795 37.4025 150.8 35.3972 153.36 33.7758C156.005 32.0692 159.077 31.2158 162.576 31.2158Z" fill="white"/>
</svg>
